<svg viewBox="0 0 330 200" xmlns="http://www.w3.org/2000/svg"><g><g><g><g><g><line x1="41.171875" y1="177" x2="36.171875" y2="177" style="visibility: inherit;" fill="rgb(0, 0, 0)" stroke="rgb(204, 204, 204)" stroke-width="1px"></line><line x1="41.171875" y1="157.33333333333331" x2="36.171875" y2="157.33333333333331" style="visibility: inherit;" fill="rgb(0, 0, 0)" stroke="rgb(204, 204, 204)" stroke-width="1px"></line><line x1="41.171875" y1="137.66666666666666" x2="36.171875" y2="137.66666666666666" style="visibility: inherit;" fill="rgb(0, 0, 0)" stroke="rgb(204, 204, 204)" stroke-width="1px"></line><line x1="41.171875" y1="118.00000000000001" x2="36.171875" y2="118.00000000000001" style="visibility: inherit;" fill="rgb(0, 0, 0)" stroke="rgb(204, 204, 204)" stroke-width="1px"></line><line x1="41.171875" y1="98.33333333333334" x2="36.171875" y2="98.33333333333334" style="visibility: inherit;" fill="rgb(0, 0, 0)" stroke="rgb(204, 204, 204)" stroke-width="1px"></line><line x1="41.171875" y1="78.66666666666666" x2="36.171875" y2="78.66666666666666" style="visibility: inherit;" fill="rgb(0, 0, 0)" stroke="rgb(204, 204, 204)" stroke-width="1px"></line><line x1="41.171875" y1="59.00000000000001" x2="36.171875" y2="59.00000000000001" style="visibility: inherit;" fill="rgb(0, 0, 0)" stroke="rgb(204, 204, 204)" stroke-width="1px"></line><line x1="41.171875" y1="39.33333333333335" x2="36.171875" y2="39.33333333333335" style="visibility: inherit;" fill="rgb(0, 0, 0)" stroke="rgb(204, 204, 204)" stroke-width="1px"></line><line x1="41.171875" y1="19.666666666666657" x2="36.171875" y2="19.666666666666657" style="visibility: inherit;" fill="rgb(0, 0, 0)" stroke="rgb(204, 204, 204)" stroke-width="1px"></line><line x1="41.171875" y1="0" x2="36.171875" y2="0" style="visibility: inherit;" fill="rgb(0, 0, 0)" stroke="rgb(204, 204, 204)" stroke-width="1px"></line></g><g transform="translate(31.171875, 0)"><text x="0" y="177" dx="0em" dy="0.3em" style="text-anchor: end; visibility: hidden; font-family: Roboto, sans-serif; font-size: 12px; font-weight: 200;" fill="rgb(255, 255, 255)" stroke="none" stroke-width="1px">0</text><text x="0" y="157.33333333333331" dx="0em" dy="0.3em" style="text-anchor: end; visibility: inherit; font-family: Roboto, sans-serif; font-size: 12px; font-weight: 200;" fill="rgb(255, 255, 255)" stroke="none" stroke-width="1px">0.1</text><text x="0" y="137.66666666666666" dx="0em" dy="0.3em" style="text-anchor: end; visibility: hidden; font-family: Roboto, sans-serif; font-size: 12px; font-weight: 200;" fill="rgb(255, 255, 255)" stroke="none" stroke-width="1px">0.2</text><text x="0" y="118.00000000000001" dx="0em" dy="0.3em" style="text-anchor: end; visibility: inherit; font-family: Roboto, sans-serif; font-size: 12px; font-weight: 200;" fill="rgb(255, 255, 255)" stroke="none" stroke-width="1px">0.3</text><text x="0" y="98.33333333333334" dx="0em" dy="0.3em" style="text-anchor: end; visibility: hidden; font-family: Roboto, sans-serif; font-size: 12px; font-weight: 200;" fill="rgb(255, 255, 255)" stroke="none" stroke-width="1px">0.4</text><text x="0" y="78.66666666666666" dx="0em" dy="0.3em" style="text-anchor: end; visibility: inherit; font-family: Roboto, sans-serif; font-size: 12px; font-weight: 200;" fill="rgb(255, 255, 255)" stroke="none" stroke-width="1px">0.5</text><text x="0" y="59.00000000000001" dx="0em" dy="0.3em" style="text-anchor: end; visibility: hidden; font-family: Roboto, sans-serif; font-size: 12px; font-weight: 200;" fill="rgb(255, 255, 255)" stroke="none" stroke-width="1px">0.6</text><text x="0" y="39.33333333333335" dx="0em" dy="0.3em" style="text-anchor: end; visibility: inherit; font-family: Roboto, sans-serif; font-size: 12px; font-weight: 200;" fill="rgb(255, 255, 255)" stroke="none" stroke-width="1px">0.7</text><text x="0" y="19.666666666666657" dx="0em" dy="0.3em" style="text-anchor: end; visibility: hidden; font-family: Roboto, sans-serif; font-size: 12px; font-weight: 200;" fill="rgb(255, 255, 255)" stroke="none" stroke-width="1px">0.8</text><text x="0" y="0" dx="0em" dy="0.3em" style="text-anchor: end; visibility: hidden; font-family: Roboto, sans-serif; font-size: 12px; font-weight: 200;" fill="rgb(255, 255, 255)" stroke="none" stroke-width="1px">0.9</text></g><line x1="41.171875" y1="0" x2="41.171875" y2="177" fill="rgb(0, 0, 0)" stroke="rgb(204, 204, 204)" stroke-width="1px"></line></g></g><g transform="translate(41, 0)" clip-path="url(#clip_0)"><clipPath id="clip_0"><rect width="288" height="177"></rect></clipPath><g><g><g><line x1="0" y1="0" x2="0" y2="177" fill="rgb(0, 0, 0)" stroke="rgb(189, 189, 189)" stroke-width="1px" opacity="0.25"></line><line x1="24.069010416666664" y1="0" x2="24.069010416666664" y2="177" fill="rgb(0, 0, 0)" stroke="rgb(189, 189, 189)" stroke-width="1px" opacity="0.25"></line><line x1="48.13802083333333" y1="0" x2="48.13802083333333" y2="177" fill="rgb(0, 0, 0)" stroke="rgb(189, 189, 189)" stroke-width="1px" opacity="0.25"></line><line x1="72.20703125" y1="0" x2="72.20703125" y2="177" fill="rgb(0, 0, 0)" stroke="rgb(189, 189, 189)" stroke-width="1px" opacity="0.25"></line><line x1="96.27604166666666" y1="0" x2="96.27604166666666" y2="177" fill="rgb(0, 0, 0)" stroke="rgb(189, 189, 189)" stroke-width="1px" opacity="0.25"></line><line x1="120.34505208333334" y1="0" x2="120.34505208333334" y2="177" fill="rgb(0, 0, 0)" stroke="rgb(189, 189, 189)" stroke-width="1px" opacity="0.25"></line><line x1="144.4140625" y1="0" x2="144.4140625" y2="177" fill="rgb(0, 0, 0)" stroke="rgb(189, 189, 189)" stroke-width="1px" opacity="0.25"></line><line x1="168.48307291666669" y1="0" x2="168.48307291666669" y2="177" fill="rgb(0, 0, 0)" stroke="rgb(189, 189, 189)" stroke-width="1px" opacity="0.25"></line><line x1="192.55208333333331" y1="0" x2="192.55208333333331" y2="177" fill="rgb(0, 0, 0)" stroke="rgb(189, 189, 189)" stroke-width="1px" opacity="0.25"></line><line x1="216.62109375" y1="0" x2="216.62109375" y2="177" fill="rgb(0, 0, 0)" stroke="rgb(189, 189, 189)" stroke-width="1px" opacity="0.25"></line><line x1="240.69010416666669" y1="0" x2="240.69010416666669" y2="177" fill="rgb(0, 0, 0)" stroke="rgb(189, 189, 189)" stroke-width="1px" opacity="0.25"></line><line x1="264.7591145833333" y1="0" x2="264.7591145833333" y2="177" fill="rgb(0, 0, 0)" stroke="rgb(189, 189, 189)" stroke-width="1px" opacity="0.25"></line><line x1="288.828125" y1="0" x2="288.828125" y2="177" fill="rgb(0, 0, 0)" stroke="rgb(189, 189, 189)" stroke-width="1px" opacity="0.25"></line></g><g><line x1="0" y1="177" x2="288.828125" y2="177" fill="rgb(0, 0, 0)" stroke="rgb(189, 189, 189)" stroke-width="1px" opacity="0.25"></line><line x1="0" y1="157.33333333333331" x2="288.828125" y2="157.33333333333331" fill="rgb(0, 0, 0)" stroke="rgb(189, 189, 189)" stroke-width="1px" opacity="0.25"></line><line x1="0" y1="137.66666666666666" x2="288.828125" y2="137.66666666666666" fill="rgb(0, 0, 0)" stroke="rgb(189, 189, 189)" stroke-width="1px" opacity="0.25"></line><line x1="0" y1="118.00000000000001" x2="288.828125" y2="118.00000000000001" fill="rgb(0, 0, 0)" stroke="rgb(189, 189, 189)" stroke-width="1px" opacity="0.25"></line><line x1="0" y1="98.33333333333334" x2="288.828125" y2="98.33333333333334" fill="rgb(0, 0, 0)" stroke="rgb(189, 189, 189)" stroke-width="1px" opacity="0.25"></line><line x1="0" y1="78.66666666666666" x2="288.828125" y2="78.66666666666666" fill="rgb(0, 0, 0)" stroke="rgb(189, 189, 189)" stroke-width="1px" opacity="0.25"></line><line x1="0" y1="59.00000000000001" x2="288.828125" y2="59.00000000000001" fill="rgb(0, 0, 0)" stroke="rgb(189, 189, 189)" stroke-width="1px" opacity="0.25"></line><line x1="0" y1="39.33333333333335" x2="288.828125" y2="39.33333333333335" fill="rgb(0, 0, 0)" stroke="rgb(189, 189, 189)" stroke-width="1px" opacity="0.25"></line><line x1="0" y1="19.666666666666657" x2="288.828125" y2="19.666666666666657" fill="rgb(0, 0, 0)" stroke="rgb(189, 189, 189)" stroke-width="1px" opacity="0.25"></line><line x1="0" y1="0" x2="288.828125" y2="0" fill="rgb(0, 0, 0)" stroke="rgb(189, 189, 189)" stroke-width="1px" opacity="0.25"></line></g></g></g><g><g><line x1="0" y1="177" x2="288.828125" y2="177" fill="rgb(0, 0, 0)" stroke="rgb(153, 153, 153)" stroke-width="1.5px"></line></g></g><g><g><line x1="24.069010416666664" y1="0" x2="24.069010416666664" y2="177" fill="rgb(0, 0, 0)" stroke="rgb(153, 153, 153)" stroke-width="1.5px"></line></g></g><g><g><g><g><g><path stroke="rgb(238, 51, 119)" stroke-width="2px" d="M33.02268229166666,-0.027691726032066155L33.070820312500004,0.6653185466560556L33.263372395833336,1.345934348460379L33.6484765625,2.0625414763782413L34.033580729166665,2.8041030351529277L34.08171875,3.505567469314703L34.32240885416667,4.2087068307202005L34.85192708333334,4.977813898970286L35.14075520833334,5.756212469479552L35.3814453125,6.539654534534526L35.525859374999996,7.304488270706479L36.103515625,8.141844040738027L36.39234375,8.990232401326116L36.63303385416666,9.840785382618444L36.97,10.712475389712202L37.16255208333334,11.578695812944886L37.258828125,12.416734989742336L38.17345052083333,13.407922133854296L38.414140625,14.395886210342386L38.46227864583333,15.340064218644057L38.702968750000004,16.284593284057035L38.943658854166664,17.225044629528494L39.03993489583333,18.141163009727357L39.425039062500005,19.08973606688531L39.47317708333333,19.999834967945784L39.81014322916667,20.940646302528183L40.0026953125,21.882821049862905L40.4359375,22.873528744543968L40.821041666666666,23.89971399074452L41.591249999999995,25.061960225847024L41.783802083333335,26.210992371261312L42.07263020833334,27.36367850792603L42.26518229166667,28.504661771593025L42.36145833333333,29.613830416945884L44.38325520833334,31.126147139625008L44.431393229166666,32.5784992691283L44.527669270833336,33.984388847702164L44.81649739583334,35.39835893430632L45.24973958333334,36.8481484540869L45.346015625,38.25528757179145L45.394153645833335,39.61127020697606L45.53856770833334,40.94238713919523L45.827395833333334,42.28567516859561L46.26063802083334,43.66987340904082L46.40505208333334,45.02963400159663L46.453190104166666,46.34380452675724L46.9345703125,47.713176443819975L47.752916666666664,49.237245557401586L47.849192708333334,50.717412117321885L48.523125,52.30433386333703L48.76381510416667,53.890847895654275L48.86009114583333,55.436616433954974L49.004505208333335,56.96214606696294L49.389609375000006,58.52710249616852L49.678437499999994,60.0945574220697L49.77471354166667,61.62745874529558L49.91912760416667,63.13407528322256L50.20795572916667,64.6655626481703L50.44864583333333,66.20893689214708L50.93002604166667,67.82291827824092L51.21885416666667,69.46822278340362L51.50768229166667,71.14478255300726L51.700234375,72.81193803054921L51.989062499999996,74.5033958138182L52.08533854166667,76.16120144100842L52.1334765625,77.76967720894204L52.22975260416667,79.34231227801854L52.32602864583333,80.88173915476276L52.37416666666667,82.37339873380658L52.614856770833335,83.89685499918309L52.66299479166666,85.37452250152892L53.09623697916666,86.93963417675708L53.385065104166664,88.53131138323641L53.48134114583333,90.0970093128683L53.72203125,91.705489644006L53.96272135416666,93.33641844049022L54.05899739583334,94.93877339642634L54.636653645833334,96.69361420149504L54.973619791666664,98.5093933912226L55.0217578125,100.27272286228019L55.11803385416666,102.00321938723047L55.21430989583334,103.71091152964074L55.262447916666666,105.37229868500705L55.358723958333336,107.0066455463243L55.93638020833333,108.86393031608372L56.08079427083333,110.71848320990901L56.27334635416667,112.51150174573965L56.41776041666667,114.23475214623693L56.562174479166664,115.89100948840061L56.754726562500004,117.4829339252541L56.80286458333333,119.01307578530245L56.995416666666664,120.48388042066026L57.23610677083333,121.8976928180252L57.765625,123.25676198575083L57.95817708333333,124.5632451294187L58.10259114583333,125.81921162751922L58.4876953125,127.02664681811524L58.680247395833334,128.18745560668285L58.82466145833333,129.30346590469065L58.872799479166666,130.37643190789026L58.920937499999994,131.40803722274526L59.25790364583333,132.39989784891628L59.54673177083333,133.35356502524613L59.643007812499995,134.2705279462483L59.69114583333333,135.15221635568972L59.88369791666667,136.00000302347553L60.076249999999995,136.8152061116847L60.268802083333334,137.59909143527108L60.31694010416667,138.35287462263148L60.5094921875,139.07772318094982L60.942734375,139.7747584709524L61.13528645833333,140.44505759545413L61.18342447916667,141.08965520583376L61.231562499999995,141.7095452303531L61.32783854166667,142.305682528022L61.3759765625,142.87898447151554L61.6648046875,143.43033246246077L61.857356770833334,143.96057338223855L61.90549479166666,144.47052098127995L62.00177083333333,144.9609572096831L62.098046875,145.43263349183118L62.2424609375,145.88627194755483L62.290598958333334,146.32256656225414L62.33873697916666,146.74218430827358L62.386874999999996,147.14576621970892L62.5312890625,147.53392842271725L62.72384114583333,147.90726312329883L62.96453125,148.26633955442458L63.012669270833335,148.61170488429025L63.06080729166666,148.94388508739385L63.349635416666665,149.2633857800516L64.16798177083334,149.5706930218895L64.36053385416666,149.86627408477702L64.45680989583333,150.15057819059822L64.6975,150.42403721919257L65.8528125,150.6870663877342L65.94908854166667,150.94006490276084L66.18977864583333,151.18341658600738L66.2860546875,151.41749047514716L66.47860677083334,151.6426414004929L66.57488281250001,151.85921053866258L66.95998697916667,152.06752594417026L67.24881510416667,152.2679030598586L67.4413671875,152.46064520704917L67.77833333333334,152.6460440562484L67.87460937499999,152.82438007920956L68.1634375,152.99592298311603L68.25971354166667,153.16093212761825L68.40412760416667,153.31965692542434L68.54854166666667,153.47233722711496L68.93364583333333,153.61920369082253L68.98178385416666,153.76047813738955L69.12619791666667,153.89637389159256L69.4631640625,154.02709610999457L69.607578125,154.1528420959646L70.0408203125,154.2738016023794L70.23337239583333,154.39015712250261L70.37778645833333,154.50208416951358L70.42592447916667,154.60975154513986L70.85916666666667,154.7133215978281L70.9073046875,154.8129504708699L71.09985677083334,154.90878834088142L71.1961328125,155.00097964702042L71.24427083333333,155.08966331130682L71.43682291666666,155.17497295039985L71.4849609375,155.25703707916801L71.629375,155.3359793063769L71.67751302083333,155.4119185228045L72.0626171875,155.4849690820824L72.25516927083333,155.5552409745484L72.3514453125,155.62283999438543L72.44772135416667,155.687867900309L72.495859375,155.75042257005666L72.9291015625,155.8105981489214L73.073515625,155.86848519256202L73.45861979166668,155.92417080431352L73.55489583333333,155.97773876721206L73.79558593750001,156.02926967094086L74.03627604166667,156.0788410338939L74.3732421875,156.12652742054775L74.99903645833334,156.17240055432404L75.28786458333333,156.2165294261171L75.43227864583334,156.2589803986551L75.5285546875,156.29981730685657L75.72110677083333,156.3391015543367L75.91365885416666,156.37689220621317L76.00993489583333,156.41324607835392L76.250625,156.44821782320517L76.29876302083333,156.48186001233105L76.34690104166665,156.51422321579233L76.73200520833333,156.5453560784857L77.02083333333333,156.57530539356148L77.21338541666665,156.6041161730316L77.2615234375,156.63183171567664L77.30966145833334,156.65849367235563L77.74290364583334,156.6841421088187L77.98359375000001,156.7088155661183L78.65752604166666,156.732551118712L78.75380208333334,156.7553844303448L79.71656250000001,156.77734980779667L79.76470052083333,156.7984802525772L79.95725260416667,156.81880751064625L80.005390625,156.83836212023607L80.05352864583334,156.85717345784806L80.92001302083334,156.8752697824938L81.16070312500001,156.8926782782479L81.49766927083334,156.90942509517726L81.54580729166666,156.9255353887089L81.83463541666667,156.94103335749622L81.93091145833334,156.95594227984097L82.17160156249999,156.97028454872662L82.26787760416667,156.98408170551585L83.42319010416666,156.99735447236327L83.51946614583333,157.010122783393L83.61574218749999,157.0224058146875L84.00084635416667,157.03422201313393L84.14526041666667,157.04558912417116L84.53036458333334,157.0565242184796L84.67477864583334,157.06704371765414L84.81919270833333,157.07716341889926L85.44498697916667,157.08689851878353L85.781953125,157.09626363608916L86.07078125,157.10527283379156L86.35960937499999,157.11393964020178L86.40774739583334,157.12227706930415L86.69657552083333,157.13029764031927L87.17795572916667,157.13801339652238L87.41864583333333,157.14543592334533L87.46678385416666,157.15257636578946L87.61119791666667,157.15944544517572L87.90002604166666,157.16605347525714L87.99630208333332,157.17241037771828L88.14071614583332,157.17852569708458L88.28513020833333,157.18440861506465L88.42954427083333,157.19006796434647L88.47768229166667,157.19551224186887L89.34416666666667,157.20074962158793L90.06623697916667,157.2057879667578L90.78830729166667,157.2106348417441L90.93272135416667,157.21529752338813L90.980859375,157.2197830119385L91.07713541666668,157.22409804156717L91.1252734375,157.22824909048535L92.136171875,157.23224239067468L92.18430989583332,157.23608393724822L92.425,157.23977949745534L92.5694140625,157.24333461934438L92.76196614583333,157.24675464009562L92.8582421875,157.25004469403729L93.05079427083334,157.25320972035718L93.24334635416668,157.25625447052028L93.4358984375,157.25918351540506L94.63934895833333,157.26200125216786L94.68748697916666,157.26471191084661L95.21700520833333,157.26731956071325L95.602109375,157.26982811638464L95.65024739583333,157.27224134370113L95.79466145833334,157.27456286538174L95.8909375,157.27679616646418L95.93907552083333,157.278944599538L96.37231770833333,157.28101138977897L96.70928385416666,157.28299963979188L97.43135416666667,157.28491233426934L97.4794921875,157.28675234447343L97.62390625,157.28852243254693L98.53852864583334,157.29022525566074L98.77921875000001,157.2918633700036L98.82735677083333,157.29343923462008L98.9236328125,157.29495521510282L99.26059895833333,157.29641358714412L99.59756510416666,157.297816539953L99.645703125,157.29916617954197L100.0789453125,157.30046453188888L100.27149739583334,157.30171354597883L100.36777343749999,157.30291509673032L100.56032552083333,157.30407098781004L100.99356770833334,157.30518295434092L101.33053385416666,157.30625266550717L101.378671875,157.30728172706006L101.61936197916667,157.3082716837288L102.00446614583333,157.30922402153965L102.43770833333333,157.3101401700468L102.48584635416667,157.31102150447862L102.6783984375,157.31186934780217L102.91908854166667,157.3126849727094L103.06350260416667,157.3134696035277L103.15977864583334,157.314224418058L103.30419270833335,157.31495054934283L103.44860677083334,157.31564908736743L103.64115885416666,157.3163210806959L104.02626302083334,157.31696753804542L104.41136718749999,157.31758942980056L104.60391927083334,157.3181876894699L104.74833333333333,157.31876321508756L104.79647135416667,157.31931687056124L105.08529947916666,157.31984948696913L105.1334375,157.32036186380748L105.51854166666666,157.32085477019083L105.71109375,157.32132894600656L105.75923177083332,157.32178510302552L105.80736979166667,157.32222392597066L105.90364583333333,157.32264607354475L106.04805989583332,157.3230521794193L106.38502604166668,157.3234428531857L106.4331640625,157.3238186812704L106.81826822916668,157.3241802278152L106.86640625,157.32452803552403L107.2996484375,157.32486262647762L107.49220052083332,157.32518450291732L107.5884765625,157.32549414799902L107.732890625,157.32579202651823L107.97358072916667,157.32607858560806L108.02171875,157.3263542554102L108.11799479166667,157.3266194497207L108.1661328125,157.32687456661122L108.21427083333333,157.32711998902641L108.4549609375,157.32735608535882L109.12889322916668,157.32758321000188L109.56213541666668,157.32780170388196L109.85096354166667,157.32801189497005L110.1879296875,157.328214098774L110.23606770833332,157.32840861881238L110.66930989583334,157.3285957470698L111.00627604166668,157.32877576443548L111.43951822916667,157.3289489411245L111.58393229166666,157.32911553708394L111.9208984375,157.32927580238263L112.01717447916666,157.32942997758676L112.20972656250001,157.32957829412086L112.69110677083333,157.32972097461536L112.73924479166666,157.3298582332406L112.88365885416665,157.32999027602838L113.12434895833333,157.33011730118125L113.31690104166665,157.33023949936998L113.9426953125,157.33035705401986L114.03897135416666,157.33047014158595L114.08710937500001,157.33057893181794L114.3759375,157.330683588015L114.42407552083333,157.33078426727096L114.47221354166666,157.33088112070996L114.56848958333333,157.33097429371347L115.242421875,157.33106392613834L116.10890625,157.33115015252696L116.39773437500001,157.33123310230897L116.73470052083333,157.33131289999574L117.02352864583334,157.3313896653671L117.21608072916666,157.33146351365136L117.31235677083333,157.331534555698L117.40863281249999,157.33160289814424L117.6974609375,157.33166864357514L117.84187499999999,157.33173189067742L117.93815104166667,157.3317927343878L118.08256510416666,157.33185126603524L118.22697916666667,157.33190757347833L118.37139322916667,157.33196174123694L118.80463541666667,157.33201385061923L118.90091145833334,157.33206397984355L119.47856770833334,157.33211220415612L119.52670572916666,157.33215859594358L119.57484375,157.332203224842L120.24877604166667,157.33224615784127L120.441328125,157.3322874593856L120.63388020833334,157.33232719147037L120.82643229166666,157.33236541373512L120.8745703125,157.33240218355306L121.018984375,157.3324375561172L121.11526041666667,157.3324715845233L121.21153645833334,157.33250431984933L121.59664062499999,157.33253581123245L121.69291666666666,157.33256610594248L121.83733072916667,157.33259524945308L121.98174479166667,157.3326232855098L122.12615885416666,157.332650256196L122.22243489583335,157.33267620199572L122.36684895833334,157.33270116185471L122.51126302083334,157.33272517323877L123.28147135416667,157.3327482721899L123.6184375,157.33277049338062L123.85912760416667,157.33279187016586L123.907265625,157.332812434633L123.95540364583333,157.33283221765018L124.0516796875,157.3328512489125L124.09981770833332,157.33286955698668L124.19609375,157.33288716935385L124.29236979166667,157.33290411245093L124.484921875,157.33292041171018L124.67747395833332,157.33293609159742L124.9181640625,157.33295117564882L125.01444010416667,157.33296568650616L125.35140625,157.3329796459508L125.44768229166667,157.33299307493644L125.4958203125,157.33300599362053L125.73651041666668,157.33301842139457L125.9290625,157.3330303769131L126.16975260416667,157.33304187812183L126.26602864583333,157.33305294228458L126.31416666666667,157.33306358600908L126.795546875,157.33307382527198L126.84368489583333,157.33308367544285L127.03623697916667,157.3330931513072L127.18065104166668,157.3331022670886L127.32506510416667,157.3331110364703L127.373203125,157.33311947261546L127.51761718750001,157.33312758818707L127.56575520833333,157.33313539536692L127.66203125,157.3331429058739L127.90272135416667,157.33315013098158L127.95085937500001,157.33315708153515L128.28782552083334,157.33316376796765L128.33596354166667,157.3331702003157L128.528515625,157.3331763882345L128.62479166666668,157.33318234101236L128.72106770833332,157.33318806758464L128.91361979166666,157.3331935765472L129.395,157.33319887616912L129.49127604166665,157.3332039744054L129.58755208333332,157.3332088789087L129.63569010416666,157.33321359704084L129.8282421875,157.33321813588398L129.97265625,157.33322250225106L130.35776041666665,157.33322670269618L130.5503125,157.33323074352435L131.22424479166665,157.3332346308011L131.41679687500002,157.33323837036127L131.51307291666666,157.33324196781814L131.75376302083333,157.33324542857167L131.80190104166667,157.33324875781656L131.89817708333334,157.33325196055014L131.994453125,157.33325504157983L132.04259114583334,157.3332580055304L132.1388671875,157.3332608568508L132.23514322916665,157.33326359982107L132.28328125000002,157.33326623855848L132.62024739583333,157.33326877702382L132.76466145833334,157.3332712190275L133.0053515625,157.333273568235L133.5830078125,157.33327582817265L133.77555989583334,157.33327800223267L133.91997395833334,157.33328009367838L134.40135416666666,157.33328210564918L134.69018229166667,157.33328404116506L134.7383203125,157.33328590313135L134.83459635416668,157.33328769434289L134.97901041666665,157.33328941748843L135.12342447916666,157.33329107515442L135.17156250000002,157.3332926698291L135.21970052083333,157.33329420390612L135.70108072916668,157.33329567968826L135.74921874999998,157.33329709939065L135.79735677083335,157.33329846514434L135.8936328125,157.33329977899942L136.4712890625,157.33330104292799L136.51942708333334,157.33330225882725L136.56756510416668,157.33330342852236L136.61570312499998,157.33330455376904L137.00080729166666,157.33330563625637L137.43404947916667,157.33330667760916L138.25239583333334,157.33330767939057L138.926328125,157.33330864310426L139.11888020833334,157.33330957019683L139.16701822916667,157.3333104620599L139.26329427083334,157.33331132003215L139.6483984375,157.33331214540146L139.74467447916666,157.33331293940674L139.9372265625,157.33331370323984L140.41860677083335,157.33331443804727L140.8037109375,157.33331514493202L140.85184895833333,157.33331582495512L141.3813671875,157.33331647913735L141.76647135416667,157.33331710846068L142.05529947916668,157.3333177138697L142.10343749999998,157.33331829627318L142.19971354166668,157.33331885654533L142.29598958333332,157.33331939552716L142.5366796875,157.33331991402764L143.45130208333333,157.33332041282515L143.74013020833334,157.33332089266833L143.78826822916668,157.33332135427744L144.2696484375,157.33332179834545L144.36592447916667,157.33332222553886L144.51033854166667,157.3333226364989L144.55847656249998,157.3333230318425L144.60661458333334,157.33332341216303L145.1361328125,157.33332377803134L145.280546875,157.3333241299967L145.569375,157.33332446858734L145.81006510416668,157.33332479431158L145.90634114583332,157.33332510765825L146.0026171875,157.3333254090978L146.09889322916666,157.3333256990826L146.53213541666665,157.333325978048L146.72468750000002,157.33332624641272L146.91723958333336,157.33332650457956L147.013515625,157.33332675293607L147.15792968749997,157.33332699185505L147.59117187500001,157.33332722169507L147.63930989583332,157.3333274428012L147.8318619791667,157.3333276555053L148.12069010416667,157.33332786012662L148.21696614583334,157.33332805697233L148.79462239583333,157.33332824633794L148.84276041666666,157.33332842850763L148.8908984375,157.33332860375486L148.93903645833336,157.3333287723427L149.08345052083334,157.33332893452422L149.27600260416668,157.33332909054283L149.5648307291667,157.33332924063274L149.61296875,157.33332938501923L149.7573828125,157.33332952391902L150.14248697916668,157.33332965754065L150.38317708333335,157.33332978608462L150.52759114583333,157.33332990974395L150.67200520833333,157.3333300287042L150.72014322916667,157.333330143144L151.00897135416668,157.33333025323503L151.10524739583335,157.33333035914265L151.39407552083333,157.33333046102575L151.53848958333333,157.3333305590373L151.68290364583333,157.33333065332442L151.92359375,157.33333074402864L152.83821614583334,157.33333083128608L153.03076822916668,157.33333091522775L153.12704427083332,157.33333099597962L153.367734375,157.33333107366292L153.60842447916667,157.33333114839425L154.23421875,157.33333122028583L154.4267708333333,157.3333312894455L154.57118489583334,157.3333313559771L155.29325520833333,157.3333314199805L155.8227734375,157.33333148155177L155.87091145833332,157.33333154078335L156.01532552083333,157.3333315977641L156.30415364583334,157.3333316525796L156.64111979166665,157.3333317053121L156.6892578125,157.3333317560408L156.73739583333332,157.33333180484178L156.78553385416666,157.33333185178833L156.83367187500002,157.33333189695088L156.88180989583333,157.3333319403973L157.2669140625,157.33333198219273L158.37408854166668,157.33333202239996L158.4222265625,157.3333320610793L158.47036458333332,157.3333320982888L158.80733072916667,157.33333213408434L159.33684895833332,157.3333321685197L159.43312500000002,157.33333220164647L160.01078125,157.33333223351443L160.05891927083334,157.33333226417142L160.20333333333332,157.33333229366343L160.29960937500002,157.33333232203478L160.34774739583335,157.33333234932797L160.4440234375,157.33333237558404L161.35864583333333,157.33333240084238L161.5993359375,157.3333324251409L161.74375,157.33333244851607L161.8881640625,157.333332471003L162.32140625000002,157.33333249263544L162.36954427083333,157.3333325134458L162.65837239583334,157.3333325334654L162.7546484375,157.33333255272424L162.80278645833332,157.33333257125128L163.09161458333332,157.33333258907425L163.23602864583336,157.33333260621995L163.52485677083334,157.33333262271412L163.6211328125,157.3333326385815L163.71740885416665,157.33333265384596L163.86182291666668,157.33333266853035L164.29506510416667,157.33333268265673L164.53575520833334,157.33333269624632L164.63203124999998,157.33333270931948L164.68016927083335,157.33333272189586L164.72830729166668,157.33333273399435L165.25782552083334,157.3333327456331L165.73920572916666,157.33333275682958L166.12430989583333,157.33333276760058L166.94265625,157.3333327779623L167.27962239583334,157.3333327879303L167.32776041666668,157.33333279751946L167.47217447916665,157.33333280674424L167.9535546875,157.3333328156185L168.2423828125,157.33333282415555L168.43493489583335,157.33333283236817L168.675625,157.3333328402687L168.77190104166667,157.33333284786903L168.86817708333334,157.33333285518054L168.96445312499998,157.3333328622142L169.06072916666668,157.3333328689806L169.25328125,157.33333287548987L169.30141927083332,157.33333288175177L169.44583333333333,157.33333288777575L169.73466145833333,157.3333328935708L169.8309375,157.33333289914563L169.9753515625,157.33333290450864L170.36045572916666,157.33333290966786L170.45673177083333,157.333332914631L170.5048697916667,157.33333291940556L170.5530078125,157.33333292399868L170.93811197916668,157.33333292841726L171.66018229166667,157.33333293266796L171.75645833333334,157.3333329367571L171.85273437499998,157.33333294069087L171.94901041666668,157.33333294447516L172.04528645833332,157.3333329481156L172.4785286458333,157.33333295161776L172.67108072916668,157.33333295498682L173.296875,157.33333295822786L173.48942708333334,157.33333296134572L174.40404947916667,157.33333296434512L175.12611979166664,157.33333296723052L175.1742578125,157.3333329700063L175.4630859375,157.33333297267663L175.51122395833335,157.33333297524544L175.6075,157.33333297771662L175.75191406250002,157.33333298009396L175.99260416666664,157.3333329823809L176.13701822916667,157.33333298458098L176.18515625,157.3333329866974L176.28143229166665,157.33333298873345L177.051640625,157.3333329906921L177.38860677083332,157.33333299257635L177.58115885416666,157.33333299438897L177.918125,157.33333299613273L177.96626302083334,157.3333329978102L178.30322916666665,157.33333299942396L178.44764322916666,157.33333300097638L179.60295572916667,157.3333330024698L179.74736979166664,157.3333330039065L180.08433593750001,157.33333300528858L180.22875,157.33333300661815L180.27688802083333,157.33333300789718L180.37316406250002,157.33333300912764L180.42130208333333,157.33333301031132L180.75826822916667,157.33333301145L180.85454427083332,157.33333301254544L181.3840625,157.33333301359926L181.62475260416667,157.333333014613L182.05799479166666,157.33333301558824L182.15427083333336,157.33333301652644L182.250546875,157.33333301742897L182.44309895833334,157.3333330182972L182.58751302083334,157.33333301913243L183.21330729166667,157.33333301993594L183.26144531249997,157.3333330207089L183.30958333333334,157.33333302145252L183.59841145833335,157.33333302216784L183.983515625,157.333333022856L184.27234375,157.333333023518L184.32048177083334,157.33333302415485L184.36861979166665,157.3333330247675L184.561171875,157.33333302535686L184.8018619791667,157.33333302592382L185.138828125,157.33333302646926L185.52393229166665,157.33333302699396L185.716484375,157.33333302749872L185.90903645833336,157.3333330279843L186.0053125,157.33333302845142L186.294140625,157.3333330289008L186.4385546875,157.33333302933312L186.53483072916669,157.333333029749L186.63110677083333,157.33333303014908L186.7273828125,157.33333303053394L186.871796875,157.33333303090419L187.11248697916668,157.33333303126037L187.69014322916667,157.333333031603L187.9308333333333,157.33333303193263L188.17152343749999,157.3333330322497L189.03800781249998,157.33333303255475L189.23055989583332,157.3333330328482L189.37497395833333,157.3333330331305L189.6156640625,157.33333303340208L189.95263020833332,157.33333303366334L190.14518229166666,157.33333303391467L190.24145833333333,157.33333303415642L190.5302864583333,157.33333303438903L190.57842447916667,157.3333330346128L190.86725260416668,157.33333303482803L191.20421875,157.33333303503508L191.493046875,157.3333330352343L191.63746093749998,157.3333330354259L191.9262890625,157.33333303561028L192.45580729166667,157.33333303578763L192.55208333333331,157.33333303595822L192.88904947916666,157.33333303612233L193.03346354166666,157.33333303628024L193.17787760416664,157.33333303643212L193.27415364583334,157.3333330365782L193.51484375,157.33333303671878L194.2850520833333,157.333333036854L194.381328125,157.33333303698407L194.42946614583335,157.3333330371092L194.62201822916666,157.3333330372296L194.67015625000002,157.3333330373454L194.86270833333333,157.3333330374568L194.958984375,157.333333037564L195.2478125,157.3333330376671L195.29595052083334,157.33333303776627L195.63291666666666,157.33333303786168L196.21057291666668,157.33333303795348L196.45126302083335,157.3333330380418L196.59567708333333,157.33333303812674L197.02891927083334,157.33333303820845L197.07705729166668,157.33333303828707L197.36588541666666,157.33333303836267L197.4140234375,157.33333303843543L198.08795572916665,157.33333303850543L198.2805078125,157.33333303857276L198.37678385416666,157.3333330386375L198.47305989583333,157.33333303869983L198.61747395833333,157.33333303875978L198.76188802083334,157.33333303881741L199.19513020833332,157.3333330388729L199.48395833333333,157.33333303892627L199.58023437499997,157.3333330389776L200.10975260416666,157.33333303902697L200.157890625,157.3333330390745L200.44671874999997,157.3333330391202L200.78368489583335,157.33333303916413L201.93899739583335,157.33333303920645L202.08341145833333,157.33333303924715L202.22782552083333,157.33333303928626L202.3241015625,157.33333303932392L203.33499999999998,157.33333303936016L203.4794140625,157.333333039395L203.67196614583335,157.33333303942854L203.7201041666667,157.33333303946077L203.7682421875,157.3333330394918L204.0570703125,157.33333303952162L204.20148437499998,157.33333303955035L204.29776041666668,157.33333303957798L204.73100260416666,157.33333303960453L204.9235546875,157.3333330396301L205.06796874999998,157.3333330396547L205.30865885416665,157.33333303967834L205.69376302083333,157.3333330397011L205.88631510416667,157.333333039723L205.9825911458333,157.33333303974405L206.0788671875,157.3333330397643L206.70466145833333,157.3333330397838L206.8009375,157.33333303980257L206.9453515625,157.3333330398206L207.5230078125,157.33333303983792L207.7155598958333,157.33333303985464L207.95624999999998,157.3333330398707L208.05252604166668,157.33333303988613L208.53390625,157.333333039901L208.63018229166667,157.3333330399153L208.72645833333334,157.33333303992904L209.35225260416667,157.3333330399423L209.64108072916667,157.333333039955L210.12246093750002,157.33333303996724L210.36315104166667,157.33333303997904L210.7001171875,157.33333303999035L210.84453125,157.33333304000126L210.94080729166666,157.33333304001172L211.90356770833333,157.33333304002184L211.95170572916666,157.33333304003153L211.99984375,157.33333304004086L212.24053385416667,157.33333304004984L212.3368098958333,157.33333304005848L212.62563802083332,157.33333304006678L212.81819010416666,157.3333330400748L213.2032942708333,157.33333304008247L213.25143229166665,157.33333304008988L213.49212239583332,157.333333040097L213.54026041666665,157.33333304010384L213.7328125,157.33333304011043L214.26233072916668,157.33333304011677L214.55115885416666,157.33333304012288L214.83998697916667,157.33333304012874L214.98440104166664,157.33333304013436L215.51391927083333,157.3333330401398L215.70647135416667,157.33333304014502L215.8990234375,157.33333304015002L216.23598958333335,157.33333304015486L216.42854166666666,157.33333304015952L216.66923177083333,157.33333304016398L216.909921875,157.3333330401683L217.10247395833335,157.33333304017242L217.15061197916668,157.33333304017643L217.24688802083332,157.33333304018026L217.68013020833334,157.33333304018393L217.72826822916667,157.33333304018745L218.25778645833336,157.3333330401909L218.3540625,157.33333304019416L218.40220052083333,157.33333304019732L218.73916666666665,157.33333304020033L218.83544270833335,157.33333304020326L218.88358072916668,157.33333304020607L218.93171875000002,157.3333330402088L218.97985677083332,157.3333330402114L219.17240885416666,157.3333330402139L219.26868489583333,157.3333330402163L220.32772135416667,157.3333330402186L220.47213541666665,157.33333304022082L221.14606770833336,157.33333304022298L221.38675781249998,157.33333304022503L221.43489583333334,157.333333040227L221.531171875,157.33333304022892L221.91627604166666,157.33333304023077L222.15696614583334,157.3333330402325L222.49393229166665,157.3333330402342L223.841796875,157.33333304023586L224.17876302083334,157.33333304023742L224.70828125,157.33333304023893L224.94897135416667,157.33333304024038L225.38221354166666,157.33333304024177L225.4303515625,157.33333304024313L225.91173177083334,157.33333304024444L225.95986979166668,157.33333304024566L226.00800781249998,157.33333304024686L226.10428385416668,157.33333304024802L226.20055989583332,157.33333304024913L226.2968359375,157.33333304025018L226.34497395833333,157.3333330402512L226.3931119791667,157.33333304025223L226.48938802083333,157.33333304025317L227.35587239583333,157.33333304025408L227.5965625,157.33333304025496L227.83725260416668,157.33333304025578L227.98166666666665,157.3333330402566L228.1260807291667,157.33333304025737L228.36677083333333,157.33333304025814L228.8962890625,157.33333304025885L229.32953125,157.33333304025956L229.4739453125,157.33333304026024L229.5220833333333,157.33333304026087L229.95532552083333,157.3333330402615L230.24415364583334,157.3333330402621L230.96622395833333,157.33333304026266L231.01436197916667,157.33333304026323L231.30319010416665,157.33333304026374L231.49574218749999,157.33333304026425L231.64015625000002,157.33333304026476L231.92898437500003,157.33333304026522L232.02526041666667,157.33333304026567L232.45850260416665,157.3333330402661L232.6510546875,157.33333304026652L232.9398828125,157.33333304026692L233.18057291666668,157.33333304026732L233.46940104166666,157.3333330402677L233.66195312500003,157.33333304026806L233.90264322916664,157.3333330402684L234.23960937500001,157.33333304026874L234.43216145833333,157.33333304026905L234.86540364583334,157.33333304026937L235.00981770833332,157.33333304026968L235.58747395833333,157.33333304026996L235.92444010416665,157.33333304027025L236.06885416666668,157.3333330402705L236.16513020833332,157.33333304027076L236.21326822916666,157.33333304027101L236.4058203125,157.33333304027124L236.45395833333333,157.33333304027144L236.50209635416667,157.33333304027167L237.07975260416666,157.3333330402719L237.36858072916667,157.3333330402721L237.41671874999997,157.33333304027227L237.51299479166667,157.33333304027246L237.75368489583335,157.33333304027266L237.80182291666668,157.3333330402728L237.94623697916666,157.33333304027298L238.23506510416667,157.33333304027315L238.4276171875,157.3333330402733L238.76458333333332,157.33333304027343L239.24596354166667,157.3333330402736L239.53479166666668,157.33333304027371L239.72734375,157.33333304027386L239.8717578125,157.333333040274L240.25686197916667,157.3333330402741L240.35313802083334,157.33333304027423L240.97893229166667,157.3333330402743L241.17148437499998,157.33333304027445L241.2196223958333,157.33333304027454L242.13424479166667,157.33333304027465L242.1823828125,157.33333304027474L242.32679687499999,157.33333304027482L242.66376302083333,157.33333304027494L242.7600390625,157.33333304027502L243.14514322916668,157.33333304027508L243.24141927083332,157.33333304027516L243.28955729166668,157.33333304027525L243.9153515625,157.33333304027533L244.01162760416668,157.3333330402754L244.05976562499998,157.33333304027545L244.4930078125,157.33333304027553L244.637421875,157.3333330402756L244.73369791666667,157.33333304027565L245.16694010416666,157.3333330402757L245.3113541666667,157.3333330402758L245.40763020833333,157.33333304027582L245.50390625,157.33333304027587L246.0815625,157.3333330402759L246.89990885416665,157.33333304027596L247.14059895833333,157.33333304027602L247.62197916666665,157.33333304027607L247.91080729166666,157.3333330402761L248.2477734375,157.33333304027616L248.5366015625,157.3333330402762L248.63287760416668,157.33333304027622L248.82542968750002,157.33333304027627L249.16239583333333,157.3333330402763L249.21053385416667,157.33333304027633L249.258671875,157.33333304027636L249.74005208333335,157.3333330402764L250.51026041666665,157.33333304027641L250.75095052083333,157.33333304027644L250.991640625,157.33333304027647L251.23233072916668,157.3333330402765L251.28046875,157.33333304027653L251.37674479166665,157.33333304027656L251.52115885416666,157.33333304027659L252.0025390625,157.3333330402766L252.19509114583332,157.3333330402766L252.24322916666665,157.33333304027664L252.53205729166666,157.33333304027667L252.724609375,157.33333304027667L252.77274739583333,157.3333330402767L253.15785156249999,157.33333304027673L253.302265625,157.33333304027673L253.35040364583332,157.33333304027676L253.4466796875,157.33333304027678L253.59109375,157.33333304027678L253.63923177083333,157.3333330402768L253.68736979166667,157.3333330402768L253.73550781249997,157.33333304027684L253.92805989583334,157.33333304027684L254.02433593749998,157.33333304027687L254.16875,157.33333304027687L254.21688802083332,157.33333304027687L254.26502604166666,157.3333330402769L254.3131640625,157.3333330402769L254.40944010416666,157.33333304027693L254.55385416666667,157.33333304027693L254.60199218749997,157.33333304027693L254.89082031249998,157.33333304027693L255.1796484375,157.33333304027695L255.27592447916666,157.33333304027695L255.42033854166667,157.33333304027698L255.99799479166666,157.33333304027698L256.38309895833333,157.33333304027698L256.43123697916667,157.33333304027698L256.479375,157.333333040277L256.768203125,157.333333040277L257.10516927083336,157.333333040277L257.34585937500003,157.333333040277L257.6828255208333,157.33333304027704L257.87537760416666,157.33333304027704L258.3086197916667,157.33333304027704L258.5974479166667,157.33333304027704L258.69372395833335,157.33333304027704L258.83813802083336,157.33333304027704L259.17510416666664,157.33333304027704L259.46393229166665,157.33333304027707L259.60834635416666,157.33333304027707L259.7046223958333,157.33333304027707L259.75276041666666,157.3333330402771L260.1860026041667,157.3333330402771L260.66738281249997,157.3333330402771L260.7155208333333,157.3333330402771L261.100625,157.3333330402771L261.67828125,157.3333330402771L261.8226953125,157.3333330402771L261.967109375,157.3333330402771L262.59290364583336,157.33333304027713L262.9780078125,157.33333304027713L263.36311197916666,157.33333304027713L263.41125,157.33333304027713L263.5556640625,157.33333304027713L263.65194010416667,157.33333304027713L263.700078125,157.33333304027713L264.3740104166667,157.33333304027713L264.66283854166664,157.33333304027713L264.7591145833333,157.33333304027713" style="fill: none;" fill="none"></path></g></g></g></g><g opacity="0.2"><g><g><g><path stroke="rgb(238, 51, 119)" stroke-width="2px" d="M29.556744791666667,-0.5752645730972159L30.1825390625,1.52926556269328L30.808333333333334,3.627770463625592L31.3378515625,5.6625649531682445L31.578541666666666,6.556409716606146L31.722955729166667,7.101048747698468L32.15619791666667,8.740240852038074L32.2043359375,8.897236903508501L32.68571614583333,10.898224433263154L32.92640625,11.772071043650312L33.02268229166666,12.096695224444074L33.070820312500004,12.27971466382345L33.263372395833336,12.973906119664514L33.6484765625,14.529553771018982L34.033580729166665,15.928392926851917L34.08171875,16.123263557751972L34.32240885416667,17.052333672841396L34.85192708333334,19.232448856035877L35.14075520833334,20.383655548095703L35.3814453125,21.456100463867195L35.525859374999996,22.04904687404634L36.103515625,24.476606965065017L36.39234375,25.72746447722118L36.63303385416666,26.801316062609356L36.97,28.27254009246826L37.16255208333334,29.19878514607748L37.258828125,29.62199342250824L38.17345052083333,33.937608917554215L38.414140625,35.03164621194203L38.46227864583333,35.22015166282654L38.702968750000004,36.32498514652253L38.943658854166664,37.3253851334254L39.03993489583333,37.85868875185649L39.425039062500005,39.64249821503958L39.47317708333333,39.84516414006552L39.81014322916667,41.581170280774444L40.0026953125,42.67415257294974L40.4359375,44.85814781983693L40.821041666666666,46.79346732298533L41.591249999999995,51.1239466269811L41.783802083333335,52.102941791216544L42.07263020833334,53.45982702573141L42.26518229166667,54.45190421740215L42.36145833333333,54.946090698242195L44.38325520833334,65.80822936693828L44.431393229166666,66.0169088045756L44.527669270833336,66.47551826635997L44.81649739583334,68.19471470514932L45.24973958333334,70.59218378861745L45.346015625,71.11574621995291L45.394153645833335,71.37824249267578L45.53856770833334,72.22234976291656L45.827395833333334,73.94438298543295L46.26063802083334,76.38468515872955L46.40505208333334,77.25374909241995L46.453190104166666,77.56828041871388L46.9345703125,80.33019415537515L47.752916666666664,85.62567812204361L47.849192708333334,86.13862605889639L48.523125,90.3637926975886L48.76381510416667,92.0208670894305L48.86009114583333,92.66266596317293L49.004505208333335,93.77228212356567L49.389609375000006,96.35913582642873L49.678437499999994,98.05496982733408L49.77471354166667,98.81501100460689L49.91912760416667,99.74443864822388L50.20795572916667,101.93941177924474L50.44864583333333,103.8294189373652L50.93002604166667,107.22215366363525L51.21885416666667,109.6886491974195L51.50768229166667,112.18470237652461L51.700234375,113.67468786239623L51.989062499999996,116.01356915632884L52.08533854166667,116.89432017008464L52.1334765625,117.33628990252812L52.22975260416667,118.0701318581899L52.32602864583333,118.83211892843245L52.37416666666667,119.18381563822427L52.614856770833335,121.52888627847037L52.66299479166666,121.90997066100438L53.09623697916666,125.67227852344512L53.385065104166664,127.95575754841168L53.48134114583333,128.91049645344415L53.72203125,131.61169188221297L53.96272135416666,133.83091834187508L54.05899739583334,134.75344451268515L54.636653645833334,140.3284132182598L54.973619791666664,143.69052650531134L55.0217578125,144.17780858278275L55.11803385416666,145.11820824941L55.21430989583334,146.28375417987507L55.262447916666666,146.81510897477466L55.358723958333336,147.79799006382623L55.93638020833333,155.24473343789577L56.08079427083333,157.05526669323444L56.27334635416667,157.33333304027718L56.41776041666667,157.33333304027718L56.562174479166664,157.33333304027718L56.754726562500004,157.33333304027718L56.80286458333333,157.33333304027718L56.995416666666664,157.33333304027718L57.23610677083333,157.33333304027718L57.765625,157.33333304027718L57.95817708333333,157.33333304027718L58.10259114583333,157.33333304027718L58.4876953125,157.33333304027718L58.680247395833334,157.33333304027718L58.82466145833333,157.33333304027718L58.872799479166666,157.33333304027718L58.920937499999994,157.33333304027718L59.25790364583333,157.33333304027718L59.54673177083333,157.33333304027718L59.643007812499995,157.33333304027718L59.69114583333333,157.33333304027718L59.88369791666667,157.33333304027718L60.076249999999995,157.33333304027718L60.268802083333334,157.33333304027718L60.31694010416667,157.33333304027718L60.5094921875,157.33333304027718L60.942734375,157.33333304027718L61.13528645833333,157.33333304027718L61.18342447916667,157.33333304027718L61.231562499999995,157.33333304027718L61.32783854166667,157.33333304027718L61.3759765625,157.33333304027718L61.6648046875,157.33333304027718L61.857356770833334,157.33333304027718L61.90549479166666,157.33333304027718L62.00177083333333,157.33333304027718L62.098046875,157.33333304027718L62.2424609375,157.33333304027718L62.290598958333334,157.33333304027718L62.33873697916666,157.33333304027718L62.386874999999996,157.33333304027718L62.5312890625,157.33333304027718L62.72384114583333,157.33333304027718L62.96453125,157.33333304027718L63.012669270833335,157.33333304027718L63.06080729166666,157.33333304027718L63.349635416666665,157.33333304027718L64.16798177083334,157.33333304027718L64.36053385416666,157.33333304027718L64.45680989583333,157.33333304027718L64.6975,157.33333304027718L65.8528125,157.33333304027718L65.94908854166667,157.33333304027718L66.18977864583333,157.33333304027718L66.2860546875,157.33333304027718L66.47860677083334,157.33333304027718L66.57488281250001,157.33333304027718L66.95998697916667,157.33333304027718L67.24881510416667,157.33333304027718L67.4413671875,157.33333304027718L67.77833333333334,157.33333304027718L67.87460937499999,157.33333304027718L68.1634375,157.33333304027718L68.25971354166667,157.33333304027718L68.40412760416667,157.33333304027718L68.54854166666667,157.33333304027718L68.93364583333333,157.33333304027718L68.98178385416666,157.33333304027718L69.12619791666667,157.33333304027718L69.4631640625,157.33333304027718L69.607578125,157.33333304027718L70.0408203125,157.33333304027718L70.23337239583333,157.33333304027718L70.37778645833333,157.33333304027718L70.42592447916667,157.33333304027718L70.85916666666667,157.33333304027718L70.9073046875,157.33333304027718L71.09985677083334,157.33333304027718L71.1961328125,157.33333304027718L71.24427083333333,157.33333304027718L71.43682291666666,157.33333304027718L71.4849609375,157.33333304027718L71.629375,157.33333304027718L71.67751302083333,157.33333304027718L72.0626171875,157.33333304027718L72.25516927083333,157.33333304027718L72.3514453125,157.33333304027718L72.44772135416667,157.33333304027718L72.495859375,157.33333304027718L72.9291015625,157.33333304027718L73.073515625,157.33333304027718L73.45861979166668,157.33333304027718L73.55489583333333,157.33333304027718L73.79558593750001,157.33333304027718L74.03627604166667,157.33333304027718L74.3732421875,157.33333304027718L74.99903645833334,157.33333304027718L75.28786458333333,157.33333304027718L75.43227864583334,157.33333304027718L75.5285546875,157.33333304027718L75.72110677083333,157.33333304027718L75.91365885416666,157.33333304027718L76.00993489583333,157.33333304027718L76.250625,157.33333304027718L76.29876302083333,157.33333304027718L76.34690104166665,157.33333304027718L76.73200520833333,157.33333304027718L77.02083333333333,157.33333304027718L77.21338541666665,157.33333304027718L77.2615234375,157.33333304027718L77.30966145833334,157.33333304027718L77.74290364583334,157.33333304027718L77.98359375000001,157.33333304027718L78.65752604166666,157.33333304027718L78.75380208333334,157.33333304027718L79.71656250000001,157.33333304027718L79.76470052083333,157.33333304027718L79.95725260416667,157.33333304027718L80.005390625,157.33333304027718L80.05352864583334,157.33333304027718L80.92001302083334,157.33333304027718L81.16070312500001,157.33333304027718L81.49766927083334,157.33333304027718L81.54580729166666,157.33333304027718L81.83463541666667,157.33333304027718L81.93091145833334,157.33333304027718L82.17160156249999,157.33333304027718L82.26787760416667,157.33333304027718L83.42319010416666,157.33333304027718L83.51946614583333,157.33333304027718L83.61574218749999,157.33333304027718L84.00084635416667,157.33333304027718L84.14526041666667,157.33333304027718L84.53036458333334,157.33333304027718L84.67477864583334,157.33333304027718L84.81919270833333,157.33333304027718L85.44498697916667,157.33333304027718L85.781953125,157.33333304027718L86.07078125,157.33333304027718L86.35960937499999,157.33333304027718L86.40774739583334,157.33333304027718L86.69657552083333,157.33333304027718L87.17795572916667,157.33333304027718L87.41864583333333,157.33333304027718L87.46678385416666,157.33333304027718L87.61119791666667,157.33333304027718L87.90002604166666,157.33333304027718L87.99630208333332,157.33333304027718L88.14071614583332,157.33333304027718L88.28513020833333,157.33333304027718L88.42954427083333,157.33333304027718L88.47768229166667,157.33333304027718L89.34416666666667,157.33333304027718L90.06623697916667,157.33333304027718L90.78830729166667,157.33333304027718L90.93272135416667,157.33333304027718L90.980859375,157.33333304027718L91.07713541666668,157.33333304027718L91.1252734375,157.33333304027718L92.136171875,157.33333304027718L92.18430989583332,157.33333304027718L92.425,157.33333304027718L92.5694140625,157.33333304027718L92.76196614583333,157.33333304027718L92.8582421875,157.33333304027718L93.05079427083334,157.33333304027718L93.24334635416668,157.33333304027718L93.4358984375,157.33333304027718L94.63934895833333,157.33333304027718L94.68748697916666,157.33333304027718L95.21700520833333,157.33333304027718L95.602109375,157.33333304027718L95.65024739583333,157.33333304027718L95.79466145833334,157.33333304027718L95.8909375,157.33333304027718L95.93907552083333,157.33333304027718L96.37231770833333,157.33333304027718L96.70928385416666,157.33333304027718L97.43135416666667,157.33333304027718L97.4794921875,157.33333304027718L97.62390625,157.33333304027718L98.53852864583334,157.33333304027718L98.77921875000001,157.33333304027718L98.82735677083333,157.33333304027718L98.9236328125,157.33333304027718L99.26059895833333,157.33333304027718L99.59756510416666,157.33333304027718L99.645703125,157.33333304027718L100.0789453125,157.33333304027718L100.27149739583334,157.33333304027718L100.36777343749999,157.33333304027718L100.56032552083333,157.33333304027718L100.99356770833334,157.33333304027718L101.33053385416666,157.33333304027718L101.378671875,157.33333304027718L101.61936197916667,157.33333304027718L102.00446614583333,157.33333304027718L102.43770833333333,157.33333304027718L102.48584635416667,157.33333304027718L102.6783984375,157.33333304027718L102.91908854166667,157.33333304027718L103.06350260416667,157.33333304027718L103.15977864583334,157.33333304027718L103.30419270833335,157.33333304027718L103.44860677083334,157.33333304027718L103.64115885416666,157.33333304027718L104.02626302083334,157.33333304027718L104.41136718749999,157.33333304027718L104.60391927083334,157.33333304027718L104.74833333333333,157.33333304027718L104.79647135416667,157.33333304027718L105.08529947916666,157.33333304027718L105.1334375,157.33333304027718L105.51854166666666,157.33333304027718L105.71109375,157.33333304027718L105.75923177083332,157.33333304027718L105.80736979166667,157.33333304027718L105.90364583333333,157.33333304027718L106.04805989583332,157.33333304027718L106.38502604166668,157.33333304027718L106.4331640625,157.33333304027718L106.81826822916668,157.33333304027718L106.86640625,157.33333304027718L107.2996484375,157.33333304027718L107.49220052083332,157.33333304027718L107.5884765625,157.33333304027718L107.732890625,157.33333304027718L107.97358072916667,157.33333304027718L108.02171875,157.33333304027718L108.11799479166667,157.33333304027718L108.1661328125,157.33333304027718L108.21427083333333,157.33333304027718L108.4549609375,157.33333304027718L109.12889322916668,157.33333304027718L109.56213541666668,157.33333304027718L109.85096354166667,157.33333304027718L110.1879296875,157.33333304027718L110.23606770833332,157.33333304027718L110.66930989583334,157.33333304027718L111.00627604166668,157.33333304027718L111.43951822916667,157.33333304027718L111.58393229166666,157.33333304027718L111.9208984375,157.33333304027718L112.01717447916666,157.33333304027718L112.20972656250001,157.33333304027718L112.69110677083333,157.33333304027718L112.73924479166666,157.33333304027718L112.88365885416665,157.33333304027718L113.12434895833333,157.33333304027718L113.31690104166665,157.33333304027718L113.9426953125,157.33333304027718L114.03897135416666,157.33333304027718L114.08710937500001,157.33333304027718L114.3759375,157.33333304027718L114.42407552083333,157.33333304027718L114.47221354166666,157.33333304027718L114.56848958333333,157.33333304027718L115.242421875,157.33333304027718L116.10890625,157.33333304027718L116.39773437500001,157.33333304027718L116.73470052083333,157.33333304027718L117.02352864583334,157.33333304027718L117.21608072916666,157.33333304027718L117.31235677083333,157.33333304027718L117.40863281249999,157.33333304027718L117.6974609375,157.33333304027718L117.84187499999999,157.33333304027718L117.93815104166667,157.33333304027718L118.08256510416666,157.33333304027718L118.22697916666667,157.33333304027718L118.37139322916667,157.33333304027718L118.80463541666667,157.33333304027718L118.90091145833334,157.33333304027718L119.47856770833334,157.33333304027718L119.52670572916666,157.33333304027718L119.57484375,157.33333304027718L120.24877604166667,157.33333304027718L120.441328125,157.33333304027718L120.63388020833334,157.33333304027718L120.82643229166666,157.33333304027718L120.8745703125,157.33333304027718L121.018984375,157.33333304027718L121.11526041666667,157.33333304027718L121.21153645833334,157.33333304027718L121.59664062499999,157.33333304027718L121.69291666666666,157.33333304027718L121.83733072916667,157.33333304027718L121.98174479166667,157.33333304027718L122.12615885416666,157.33333304027718L122.22243489583335,157.33333304027718L122.36684895833334,157.33333304027718L122.51126302083334,157.33333304027718L123.28147135416667,157.33333304027718L123.6184375,157.33333304027718L123.85912760416667,157.33333304027718L123.907265625,157.33333304027718L123.95540364583333,157.33333304027718L124.0516796875,157.33333304027718L124.09981770833332,157.33333304027718L124.19609375,157.33333304027718L124.29236979166667,157.33333304027718L124.484921875,157.33333304027718L124.67747395833332,157.33333304027718L124.9181640625,157.33333304027718L125.01444010416667,157.33333304027718L125.35140625,157.33333304027718L125.44768229166667,157.33333304027718L125.4958203125,157.33333304027718L125.73651041666668,157.33333304027718L125.9290625,157.33333304027718L126.16975260416667,157.33333304027718L126.26602864583333,157.33333304027718L126.31416666666667,157.33333304027718L126.795546875,157.33333304027718L126.84368489583333,157.33333304027718L127.03623697916667,157.33333304027718L127.18065104166668,157.33333304027718L127.32506510416667,157.33333304027718L127.373203125,157.33333304027718L127.51761718750001,157.33333304027718L127.56575520833333,157.33333304027718L127.66203125,157.33333304027718L127.90272135416667,157.33333304027718L127.95085937500001,157.33333304027718L128.28782552083334,157.33333304027718L128.33596354166667,157.33333304027718L128.528515625,157.33333304027718L128.62479166666668,157.33333304027718L128.72106770833332,157.33333304027718L128.91361979166666,157.33333304027718L129.395,157.33333304027718L129.49127604166665,157.33333304027718L129.58755208333332,157.33333304027718L129.63569010416666,157.33333304027718L129.8282421875,157.33333304027718L129.97265625,157.33333304027718L130.35776041666665,157.33333304027718L130.5503125,157.33333304027718L131.22424479166665,157.33333304027718L131.41679687500002,157.33333304027718L131.51307291666666,157.33333304027718L131.75376302083333,157.33333304027718L131.80190104166667,157.33333304027718L131.89817708333334,157.33333304027718L131.994453125,157.33333304027718L132.04259114583334,157.33333304027718L132.1388671875,157.33333304027718L132.23514322916665,157.33333304027718L132.28328125000002,157.33333304027718L132.62024739583333,157.33333304027718L132.76466145833334,157.33333304027718L133.0053515625,157.33333304027718L133.5830078125,157.33333304027718L133.77555989583334,157.33333304027718L133.91997395833334,157.33333304027718L134.40135416666666,157.33333304027718L134.69018229166667,157.33333304027718L134.7383203125,157.33333304027718L134.83459635416668,157.33333304027718L134.97901041666665,157.33333304027718L135.12342447916666,157.33333304027718L135.17156250000002,157.33333304027718L135.21970052083333,157.33333304027718L135.70108072916668,157.33333304027718L135.74921874999998,157.33333304027718L135.79735677083335,157.33333304027718L135.8936328125,157.33333304027718L136.4712890625,157.33333304027718L136.51942708333334,157.33333304027718L136.56756510416668,157.33333304027718L136.61570312499998,157.33333304027718L137.00080729166666,157.33333304027718L137.43404947916667,157.33333304027718L138.25239583333334,157.33333304027718L138.926328125,157.33333304027718L139.11888020833334,157.33333304027718L139.16701822916667,157.33333304027718L139.26329427083334,157.33333304027718L139.6483984375,157.33333304027718L139.74467447916666,157.33333304027718L139.9372265625,157.33333304027718L140.41860677083335,157.33333304027718L140.8037109375,157.33333304027718L140.85184895833333,157.33333304027718L141.3813671875,157.33333304027718L141.76647135416667,157.33333304027718L142.05529947916668,157.33333304027718L142.10343749999998,157.33333304027718L142.19971354166668,157.33333304027718L142.29598958333332,157.33333304027718L142.5366796875,157.33333304027718L143.45130208333333,157.33333304027718L143.74013020833334,157.33333304027718L143.78826822916668,157.33333304027718L144.2696484375,157.33333304027718L144.36592447916667,157.33333304027718L144.51033854166667,157.33333304027718L144.55847656249998,157.33333304027718L144.60661458333334,157.33333304027718L145.1361328125,157.33333304027718L145.280546875,157.33333304027718L145.569375,157.33333304027718L145.81006510416668,157.33333304027718L145.90634114583332,157.33333304027718L146.0026171875,157.33333304027718L146.09889322916666,157.33333304027718L146.53213541666665,157.33333304027718L146.72468750000002,157.33333304027718L146.91723958333336,157.33333304027718L147.013515625,157.33333304027718L147.15792968749997,157.33333304027718L147.59117187500001,157.33333304027718L147.63930989583332,157.33333304027718L147.8318619791667,157.33333304027718L148.12069010416667,157.33333304027718L148.21696614583334,157.33333304027718L148.79462239583333,157.33333304027718L148.84276041666666,157.33333304027718L148.8908984375,157.33333304027718L148.93903645833336,157.33333304027718L149.08345052083334,157.33333304027718L149.27600260416668,157.33333304027718L149.5648307291667,157.33333304027718L149.61296875,157.33333304027718L149.7573828125,157.33333304027718L150.14248697916668,157.33333304027718L150.38317708333335,157.33333304027718L150.52759114583333,157.33333304027718L150.67200520833333,157.33333304027718L150.72014322916667,157.33333304027718L151.00897135416668,157.33333304027718L151.10524739583335,157.33333304027718L151.39407552083333,157.33333304027718L151.53848958333333,157.33333304027718L151.68290364583333,157.33333304027718L151.92359375,157.33333304027718L152.83821614583334,157.33333304027718L153.03076822916668,157.33333304027718L153.12704427083332,157.33333304027718L153.367734375,157.33333304027718L153.60842447916667,157.33333304027718L154.23421875,157.33333304027718L154.4267708333333,157.33333304027718L154.57118489583334,157.33333304027718L155.29325520833333,157.33333304027718L155.8227734375,157.33333304027718L155.87091145833332,157.33333304027718L156.01532552083333,157.33333304027718L156.30415364583334,157.33333304027718L156.64111979166665,157.33333304027718L156.6892578125,157.33333304027718L156.73739583333332,157.33333304027718L156.78553385416666,157.33333304027718L156.83367187500002,157.33333304027718L156.88180989583333,157.33333304027718L157.2669140625,157.33333304027718L158.37408854166668,157.33333304027718L158.4222265625,157.33333304027718L158.47036458333332,157.33333304027718L158.80733072916667,157.33333304027718L159.33684895833332,157.33333304027718L159.43312500000002,157.33333304027718L160.01078125,157.33333304027718L160.05891927083334,157.33333304027718L160.20333333333332,157.33333304027718L160.29960937500002,157.33333304027718L160.34774739583335,157.33333304027718L160.4440234375,157.33333304027718L161.35864583333333,157.33333304027718L161.5993359375,157.33333304027718L161.74375,157.33333304027718L161.8881640625,157.33333304027718L162.32140625000002,157.33333304027718L162.36954427083333,157.33333304027718L162.65837239583334,157.33333304027718L162.7546484375,157.33333304027718L162.80278645833332,157.33333304027718L163.09161458333332,157.33333304027718L163.23602864583336,157.33333304027718L163.52485677083334,157.33333304027718L163.6211328125,157.33333304027718L163.71740885416665,157.33333304027718L163.86182291666668,157.33333304027718L164.29506510416667,157.33333304027718L164.53575520833334,157.33333304027718L164.63203124999998,157.33333304027718L164.68016927083335,157.33333304027718L164.72830729166668,157.33333304027718L165.25782552083334,157.33333304027718L165.73920572916666,157.33333304027718L166.12430989583333,157.33333304027718L166.94265625,157.33333304027718L167.27962239583334,157.33333304027718L167.32776041666668,157.33333304027718L167.47217447916665,157.33333304027718L167.9535546875,157.33333304027718L168.2423828125,157.33333304027718L168.43493489583335,157.33333304027718L168.675625,157.33333304027718L168.77190104166667,157.33333304027718L168.86817708333334,157.33333304027718L168.96445312499998,157.33333304027718L169.06072916666668,157.33333304027718L169.25328125,157.33333304027718L169.30141927083332,157.33333304027718L169.44583333333333,157.33333304027718L169.73466145833333,157.33333304027718L169.8309375,157.33333304027718L169.9753515625,157.33333304027718L170.36045572916666,157.33333304027718L170.45673177083333,157.33333304027718L170.5048697916667,157.33333304027718L170.5530078125,157.33333304027718L170.93811197916668,157.33333304027718L171.66018229166667,157.33333304027718L171.75645833333334,157.33333304027718L171.85273437499998,157.33333304027718L171.94901041666668,157.33333304027718L172.04528645833332,157.33333304027718L172.4785286458333,157.33333304027718L172.67108072916668,157.33333304027718L173.296875,157.33333304027718L173.48942708333334,157.33333304027718L174.40404947916667,157.33333304027718L175.12611979166664,157.33333304027718L175.1742578125,157.33333304027718L175.4630859375,157.33333304027718L175.51122395833335,157.33333304027718L175.6075,157.33333304027718L175.75191406250002,157.33333304027718L175.99260416666664,157.33333304027718L176.13701822916667,157.33333304027718L176.18515625,157.33333304027718L176.28143229166665,157.33333304027718L177.051640625,157.33333304027718L177.38860677083332,157.33333304027718L177.58115885416666,157.33333304027718L177.918125,157.33333304027718L177.96626302083334,157.33333304027718L178.30322916666665,157.33333304027718L178.44764322916666,157.33333304027718L179.60295572916667,157.33333304027718L179.74736979166664,157.33333304027718L180.08433593750001,157.33333304027718L180.22875,157.33333304027718L180.27688802083333,157.33333304027718L180.37316406250002,157.33333304027718L180.42130208333333,157.33333304027718L180.75826822916667,157.33333304027718L180.85454427083332,157.33333304027718L181.3840625,157.33333304027718L181.62475260416667,157.33333304027718L182.05799479166666,157.33333304027718L182.15427083333336,157.33333304027718L182.250546875,157.33333304027718L182.44309895833334,157.33333304027718L182.58751302083334,157.33333304027718L183.21330729166667,157.33333304027718L183.26144531249997,157.33333304027718L183.30958333333334,157.33333304027718L183.59841145833335,157.33333304027718L183.983515625,157.33333304027718L184.27234375,157.33333304027718L184.32048177083334,157.33333304027718L184.36861979166665,157.33333304027718L184.561171875,157.33333304027718L184.8018619791667,157.33333304027718L185.138828125,157.33333304027718L185.52393229166665,157.33333304027718L185.716484375,157.33333304027718L185.90903645833336,157.33333304027718L186.0053125,157.33333304027718L186.294140625,157.33333304027718L186.4385546875,157.33333304027718L186.53483072916669,157.33333304027718L186.63110677083333,157.33333304027718L186.7273828125,157.33333304027718L186.871796875,157.33333304027718L187.11248697916668,157.33333304027718L187.69014322916667,157.33333304027718L187.9308333333333,157.33333304027718L188.17152343749999,157.33333304027718L189.03800781249998,157.33333304027718L189.23055989583332,157.33333304027718L189.37497395833333,157.33333304027718L189.6156640625,157.33333304027718L189.95263020833332,157.33333304027718L190.14518229166666,157.33333304027718L190.24145833333333,157.33333304027718L190.5302864583333,157.33333304027718L190.57842447916667,157.33333304027718L190.86725260416668,157.33333304027718L191.20421875,157.33333304027718L191.493046875,157.33333304027718L191.63746093749998,157.33333304027718L191.9262890625,157.33333304027718L192.45580729166667,157.33333304027718L192.55208333333331,157.33333304027718L192.88904947916666,157.33333304027718L193.03346354166666,157.33333304027718L193.17787760416664,157.33333304027718L193.27415364583334,157.33333304027718L193.51484375,157.33333304027718L194.2850520833333,157.33333304027718L194.381328125,157.33333304027718L194.42946614583335,157.33333304027718L194.62201822916666,157.33333304027718L194.67015625000002,157.33333304027718L194.86270833333333,157.33333304027718L194.958984375,157.33333304027718L195.2478125,157.33333304027718L195.29595052083334,157.33333304027718L195.63291666666666,157.33333304027718L196.21057291666668,157.33333304027718L196.45126302083335,157.33333304027718L196.59567708333333,157.33333304027718L197.02891927083334,157.33333304027718L197.07705729166668,157.33333304027718L197.36588541666666,157.33333304027718L197.4140234375,157.33333304027718L198.08795572916665,157.33333304027718L198.2805078125,157.33333304027718L198.37678385416666,157.33333304027718L198.47305989583333,157.33333304027718L198.61747395833333,157.33333304027718L198.76188802083334,157.33333304027718L199.19513020833332,157.33333304027718L199.48395833333333,157.33333304027718L199.58023437499997,157.33333304027718L200.10975260416666,157.33333304027718L200.157890625,157.33333304027718L200.44671874999997,157.33333304027718L200.78368489583335,157.33333304027718L201.93899739583335,157.33333304027718L202.08341145833333,157.33333304027718L202.22782552083333,157.33333304027718L202.3241015625,157.33333304027718L203.33499999999998,157.33333304027718L203.4794140625,157.33333304027718L203.67196614583335,157.33333304027718L203.7201041666667,157.33333304027718L203.7682421875,157.33333304027718L204.0570703125,157.33333304027718L204.20148437499998,157.33333304027718L204.29776041666668,157.33333304027718L204.73100260416666,157.33333304027718L204.9235546875,157.33333304027718L205.06796874999998,157.33333304027718L205.30865885416665,157.33333304027718L205.69376302083333,157.33333304027718L205.88631510416667,157.33333304027718L205.9825911458333,157.33333304027718L206.0788671875,157.33333304027718L206.70466145833333,157.33333304027718L206.8009375,157.33333304027718L206.9453515625,157.33333304027718L207.5230078125,157.33333304027718L207.7155598958333,157.33333304027718L207.95624999999998,157.33333304027718L208.05252604166668,157.33333304027718L208.53390625,157.33333304027718L208.63018229166667,157.33333304027718L208.72645833333334,157.33333304027718L209.35225260416667,157.33333304027718L209.64108072916667,157.33333304027718L210.12246093750002,157.33333304027718L210.36315104166667,157.33333304027718L210.7001171875,157.33333304027718L210.84453125,157.33333304027718L210.94080729166666,157.33333304027718L211.90356770833333,157.33333304027718L211.95170572916666,157.33333304027718L211.99984375,157.33333304027718L212.24053385416667,157.33333304027718L212.3368098958333,157.33333304027718L212.62563802083332,157.33333304027718L212.81819010416666,157.33333304027718L213.2032942708333,157.33333304027718L213.25143229166665,157.33333304027718L213.49212239583332,157.33333304027718L213.54026041666665,157.33333304027718L213.7328125,157.33333304027718L214.26233072916668,157.33333304027718L214.55115885416666,157.33333304027718L214.83998697916667,157.33333304027718L214.98440104166664,157.33333304027718L215.51391927083333,157.33333304027718L215.70647135416667,157.33333304027718L215.8990234375,157.33333304027718L216.23598958333335,157.33333304027718L216.42854166666666,157.33333304027718L216.66923177083333,157.33333304027718L216.909921875,157.33333304027718L217.10247395833335,157.33333304027718L217.15061197916668,157.33333304027718L217.24688802083332,157.33333304027718L217.68013020833334,157.33333304027718L217.72826822916667,157.33333304027718L218.25778645833336,157.33333304027718L218.3540625,157.33333304027718L218.40220052083333,157.33333304027718L218.73916666666665,157.33333304027718L218.83544270833335,157.33333304027718L218.88358072916668,157.33333304027718L218.93171875000002,157.33333304027718L218.97985677083332,157.33333304027718L219.17240885416666,157.33333304027718L219.26868489583333,157.33333304027718L220.32772135416667,157.33333304027718L220.47213541666665,157.33333304027718L221.14606770833336,157.33333304027718L221.38675781249998,157.33333304027718L221.43489583333334,157.33333304027718L221.531171875,157.33333304027718L221.91627604166666,157.33333304027718L222.15696614583334,157.33333304027718L222.49393229166665,157.33333304027718L223.841796875,157.33333304027718L224.17876302083334,157.33333304027718L224.70828125,157.33333304027718L224.94897135416667,157.33333304027718L225.38221354166666,157.33333304027718L225.4303515625,157.33333304027718L225.91173177083334,157.33333304027718L225.95986979166668,157.33333304027718L226.00800781249998,157.33333304027718L226.10428385416668,157.33333304027718L226.20055989583332,157.33333304027718L226.2968359375,157.33333304027718L226.34497395833333,157.33333304027718L226.3931119791667,157.33333304027718L226.48938802083333,157.33333304027718L227.35587239583333,157.33333304027718L227.5965625,157.33333304027718L227.83725260416668,157.33333304027718L227.98166666666665,157.33333304027718L228.1260807291667,157.33333304027718L228.36677083333333,157.33333304027718L228.8962890625,157.33333304027718L229.32953125,157.33333304027718L229.4739453125,157.33333304027718L229.5220833333333,157.33333304027718L229.95532552083333,157.33333304027718L230.24415364583334,157.33333304027718L230.96622395833333,157.33333304027718L231.01436197916667,157.33333304027718L231.30319010416665,157.33333304027718L231.49574218749999,157.33333304027718L231.64015625000002,157.33333304027718L231.92898437500003,157.33333304027718L232.02526041666667,157.33333304027718L232.45850260416665,157.33333304027718L232.6510546875,157.33333304027718L232.9398828125,157.33333304027718L233.18057291666668,157.33333304027718L233.46940104166666,157.33333304027718L233.66195312500003,157.33333304027718L233.90264322916664,157.33333304027718L234.23960937500001,157.33333304027718L234.43216145833333,157.33333304027718L234.86540364583334,157.33333304027718L235.00981770833332,157.33333304027718L235.58747395833333,157.33333304027718L235.92444010416665,157.33333304027718L236.06885416666668,157.33333304027718L236.16513020833332,157.33333304027718L236.21326822916666,157.33333304027718L236.4058203125,157.33333304027718L236.45395833333333,157.33333304027718L236.50209635416667,157.33333304027718L237.07975260416666,157.33333304027718L237.36858072916667,157.33333304027718L237.41671874999997,157.33333304027718L237.51299479166667,157.33333304027718L237.75368489583335,157.33333304027718L237.80182291666668,157.33333304027718L237.94623697916666,157.33333304027718L238.23506510416667,157.33333304027718L238.4276171875,157.33333304027718L238.76458333333332,157.33333304027718L239.24596354166667,157.33333304027718L239.53479166666668,157.33333304027718L239.72734375,157.33333304027718L239.8717578125,157.33333304027718L240.25686197916667,157.33333304027718L240.35313802083334,157.33333304027718L240.97893229166667,157.33333304027718L241.17148437499998,157.33333304027718L241.2196223958333,157.33333304027718L242.13424479166667,157.33333304027718L242.1823828125,157.33333304027718L242.32679687499999,157.33333304027718L242.66376302083333,157.33333304027718L242.7600390625,157.33333304027718L243.14514322916668,157.33333304027718L243.24141927083332,157.33333304027718L243.28955729166668,157.33333304027718L243.9153515625,157.33333304027718L244.01162760416668,157.33333304027718L244.05976562499998,157.33333304027718L244.4930078125,157.33333304027718L244.637421875,157.33333304027718L244.73369791666667,157.33333304027718L245.16694010416666,157.33333304027718L245.3113541666667,157.33333304027718L245.40763020833333,157.33333304027718L245.50390625,157.33333304027718L246.0815625,157.33333304027718L246.89990885416665,157.33333304027718L247.14059895833333,157.33333304027718L247.62197916666665,157.33333304027718L247.91080729166666,157.33333304027718L248.2477734375,157.33333304027718L248.5366015625,157.33333304027718L248.63287760416668,157.33333304027718L248.82542968750002,157.33333304027718L249.16239583333333,157.33333304027718L249.21053385416667,157.33333304027718L249.258671875,157.33333304027718L249.74005208333335,157.33333304027718L250.51026041666665,157.33333304027718L250.75095052083333,157.33333304027718L250.991640625,157.33333304027718L251.23233072916668,157.33333304027718L251.28046875,157.33333304027718L251.37674479166665,157.33333304027718L251.52115885416666,157.33333304027718L252.0025390625,157.33333304027718L252.19509114583332,157.33333304027718L252.24322916666665,157.33333304027718L252.53205729166666,157.33333304027718L252.724609375,157.33333304027718L252.77274739583333,157.33333304027718L253.15785156249999,157.33333304027718L253.302265625,157.33333304027718L253.35040364583332,157.33333304027718L253.4466796875,157.33333304027718L253.59109375,157.33333304027718L253.63923177083333,157.33333304027718L253.68736979166667,157.33333304027718L253.73550781249997,157.33333304027718L253.92805989583334,157.33333304027718L254.02433593749998,157.33333304027718L254.16875,157.33333304027718L254.21688802083332,157.33333304027718L254.26502604166666,157.33333304027718L254.3131640625,157.33333304027718L254.40944010416666,157.33333304027718L254.55385416666667,157.33333304027718L254.60199218749997,157.33333304027718L254.89082031249998,157.33333304027718L255.1796484375,157.33333304027718L255.27592447916666,157.33333304027718L255.42033854166667,157.33333304027718L255.99799479166666,157.33333304027718L256.38309895833333,157.33333304027718L256.43123697916667,157.33333304027718L256.479375,157.33333304027718L256.768203125,157.33333304027718L257.10516927083336,157.33333304027718L257.34585937500003,157.33333304027718L257.6828255208333,157.33333304027718L257.87537760416666,157.33333304027718L258.3086197916667,157.33333304027718L258.5974479166667,157.33333304027718L258.69372395833335,157.33333304027718L258.83813802083336,157.33333304027718L259.17510416666664,157.33333304027718L259.46393229166665,157.33333304027718L259.60834635416666,157.33333304027718L259.7046223958333,157.33333304027718L259.75276041666666,157.33333304027718L260.1860026041667,157.33333304027718L260.66738281249997,157.33333304027718L260.7155208333333,157.33333304027718L261.100625,157.33333304027718L261.67828125,157.33333304027718L261.8226953125,157.33333304027718L261.967109375,157.33333304027718L262.59290364583336,157.33333304027718L262.9780078125,157.33333304027718L263.36311197916666,157.33333304027718L263.41125,157.33333304027718L263.5556640625,157.33333304027718L263.65194010416667,157.33333304027718L263.700078125,157.33333304027718L264.3740104166667,157.33333304027718L264.66283854166664,157.33333304027718L264.7591145833333,157.33333304027718" style="fill: none;" fill="none"></path></g></g></g></g></g></g><g transform="translate(41, 177)" clip-path="url(#clip_1)"><clipPath id="clip_1"><rect width="288" height="23"></rect></clipPath><g><g><line x1="0" y1="0" x2="0" y2="5" style="visibility: inherit;" fill="rgb(0, 0, 0)" stroke="rgb(204, 204, 204)" stroke-width="1px"></line><line x1="24.069010416666664" y1="0" x2="24.069010416666664" y2="5" style="visibility: inherit;" fill="rgb(0, 0, 0)" stroke="rgb(204, 204, 204)" stroke-width="1px"></line><line x1="48.13802083333333" y1="0" x2="48.13802083333333" y2="5" style="visibility: inherit;" fill="rgb(0, 0, 0)" stroke="rgb(204, 204, 204)" stroke-width="1px"></line><line x1="72.20703125" y1="0" x2="72.20703125" y2="5" style="visibility: inherit;" fill="rgb(0, 0, 0)" stroke="rgb(204, 204, 204)" stroke-width="1px"></line><line x1="96.27604166666666" y1="0" x2="96.27604166666666" y2="5" style="visibility: inherit;" fill="rgb(0, 0, 0)" stroke="rgb(204, 204, 204)" stroke-width="1px"></line><line x1="120.34505208333334" y1="0" x2="120.34505208333334" y2="5" style="visibility: inherit;" fill="rgb(0, 0, 0)" stroke="rgb(204, 204, 204)" stroke-width="1px"></line><line x1="144.4140625" y1="0" x2="144.4140625" y2="5" style="visibility: inherit;" fill="rgb(0, 0, 0)" stroke="rgb(204, 204, 204)" stroke-width="1px"></line><line x1="168.48307291666669" y1="0" x2="168.48307291666669" y2="5" style="visibility: inherit;" fill="rgb(0, 0, 0)" stroke="rgb(204, 204, 204)" stroke-width="1px"></line><line x1="192.55208333333331" y1="0" x2="192.55208333333331" y2="5" style="visibility: inherit;" fill="rgb(0, 0, 0)" stroke="rgb(204, 204, 204)" stroke-width="1px"></line><line x1="216.62109375" y1="0" x2="216.62109375" y2="5" style="visibility: inherit;" fill="rgb(0, 0, 0)" stroke="rgb(204, 204, 204)" stroke-width="1px"></line><line x1="240.69010416666669" y1="0" x2="240.69010416666669" y2="5" style="visibility: inherit;" fill="rgb(0, 0, 0)" stroke="rgb(204, 204, 204)" stroke-width="1px"></line><line x1="264.7591145833333" y1="0" x2="264.7591145833333" y2="5" style="visibility: inherit;" fill="rgb(0, 0, 0)" stroke="rgb(204, 204, 204)" stroke-width="1px"></line><line x1="288.828125" y1="0" x2="288.828125" y2="5" style="visibility: inherit;" fill="rgb(0, 0, 0)" stroke="rgb(204, 204, 204)" stroke-width="1px"></line></g><g transform="translate(0, 8)"><text x="0" y="0" dx="0em" dy="0.95em" style="text-anchor: middle; visibility: hidden; font-family: Roboto, sans-serif; font-size: 12px; font-weight: 200;" fill="rgb(255, 255, 255)" stroke="none" stroke-width="1px">-500</text><text x="24.069010416666664" y="0" dx="0em" dy="0.95em" style="text-anchor: middle; visibility: inherit; font-family: Roboto, sans-serif; font-size: 12px; font-weight: 200;" fill="rgb(255, 255, 255)" stroke="none" stroke-width="1px">0</text><text x="48.13802083333333" y="0" dx="0em" dy="0.95em" style="text-anchor: middle; visibility: inherit; font-family: Roboto, sans-serif; font-size: 12px; font-weight: 200;" fill="rgb(255, 255, 255)" stroke="none" stroke-width="1px">500</text><text x="72.20703125" y="0" dx="0em" dy="0.95em" style="text-anchor: middle; visibility: inherit; font-family: Roboto, sans-serif; font-size: 12px; font-weight: 200;" fill="rgb(255, 255, 255)" stroke="none" stroke-width="1px">1k</text><text x="96.27604166666666" y="0" dx="0em" dy="0.95em" style="text-anchor: middle; visibility: inherit; font-family: Roboto, sans-serif; font-size: 12px; font-weight: 200;" fill="rgb(255, 255, 255)" stroke="none" stroke-width="1px">1.5k</text><text x="120.34505208333334" y="0" dx="0em" dy="0.95em" style="text-anchor: middle; visibility: inherit; font-family: Roboto, sans-serif; font-size: 12px; font-weight: 200;" fill="rgb(255, 255, 255)" stroke="none" stroke-width="1px">2k</text><text x="144.4140625" y="0" dx="0em" dy="0.95em" style="text-anchor: middle; visibility: inherit; font-family: Roboto, sans-serif; font-size: 12px; font-weight: 200;" fill="rgb(255, 255, 255)" stroke="none" stroke-width="1px">2.5k</text><text x="168.48307291666669" y="0" dx="0em" dy="0.95em" style="text-anchor: middle; visibility: inherit; font-family: Roboto, sans-serif; font-size: 12px; font-weight: 200;" fill="rgb(255, 255, 255)" stroke="none" stroke-width="1px">3k</text><text x="192.55208333333331" y="0" dx="0em" dy="0.95em" style="text-anchor: middle; visibility: inherit; font-family: Roboto, sans-serif; font-size: 12px; font-weight: 200;" fill="rgb(255, 255, 255)" stroke="none" stroke-width="1px">3.5k</text><text x="216.62109375" y="0" dx="0em" dy="0.95em" style="text-anchor: middle; visibility: inherit; font-family: Roboto, sans-serif; font-size: 12px; font-weight: 200;" fill="rgb(255, 255, 255)" stroke="none" stroke-width="1px">4k</text><text x="240.69010416666669" y="0" dx="0em" dy="0.95em" style="text-anchor: middle; visibility: inherit; font-family: Roboto, sans-serif; font-size: 12px; font-weight: 200;" fill="rgb(255, 255, 255)" stroke="none" stroke-width="1px">4.5k</text><text x="264.7591145833333" y="0" dx="0em" dy="0.95em" style="text-anchor: middle; visibility: inherit; font-family: Roboto, sans-serif; font-size: 12px; font-weight: 200;" fill="rgb(255, 255, 255)" stroke="none" stroke-width="1px">5k</text><text x="288.828125" y="0" dx="0em" dy="0.95em" style="text-anchor: middle; visibility: hidden; font-family: Roboto, sans-serif; font-size: 12px; font-weight: 200;" fill="rgb(255, 255, 255)" stroke="none" stroke-width="1px">5.5k</text></g><line x1="0" y1="0" x2="288.828125" y2="0" fill="rgb(0, 0, 0)" stroke="rgb(204, 204, 204)" stroke-width="1px"></line></g></g></g></g></svg>