<svg viewBox="0 0 330 200" xmlns="http://www.w3.org/2000/svg"><g><g><g><g><g><line x1="72.34375" y1="177" x2="67.34375" y2="177" style="visibility: inherit;" fill="rgb(0, 0, 0)" stroke="rgb(204, 204, 204)" stroke-width="1px"></line><line x1="72.34375" y1="151.7142857142857" x2="67.34375" y2="151.7142857142857" style="visibility: inherit;" fill="rgb(0, 0, 0)" stroke="rgb(204, 204, 204)" stroke-width="1px"></line><line x1="72.34375" y1="126.42857142857142" x2="67.34375" y2="126.42857142857142" style="visibility: inherit;" fill="rgb(0, 0, 0)" stroke="rgb(204, 204, 204)" stroke-width="1px"></line><line x1="72.34375" y1="101.14285714285714" x2="67.34375" y2="101.14285714285714" style="visibility: inherit;" fill="rgb(0, 0, 0)" stroke="rgb(204, 204, 204)" stroke-width="1px"></line><line x1="72.34375" y1="75.85714285714285" x2="67.34375" y2="75.85714285714285" style="visibility: inherit;" fill="rgb(0, 0, 0)" stroke="rgb(204, 204, 204)" stroke-width="1px"></line><line x1="72.34375" y1="50.57142857142855" x2="67.34375" y2="50.57142857142855" style="visibility: inherit;" fill="rgb(0, 0, 0)" stroke="rgb(204, 204, 204)" stroke-width="1px"></line><line x1="72.34375" y1="25.285714285714274" x2="67.34375" y2="25.285714285714274" style="visibility: inherit;" fill="rgb(0, 0, 0)" stroke="rgb(204, 204, 204)" stroke-width="1px"></line><line x1="72.34375" y1="0" x2="67.34375" y2="0" style="visibility: inherit;" fill="rgb(0, 0, 0)" stroke="rgb(204, 204, 204)" stroke-width="1px"></line></g><g transform="translate(62.34375, 0)"><text x="0" y="177" dx="0em" dy="0.3em" style="text-anchor: end; visibility: hidden; font-family: Roboto, sans-serif; font-size: 12px; font-weight: 200;" fill="rgb(255, 255, 255)" stroke="none" stroke-width="1px">1e-3</text><text x="0" y="151.7142857142857" dx="0em" dy="0.3em" style="text-anchor: end; visibility: inherit; font-family: Roboto, sans-serif; font-size: 12px; font-weight: 200;" fill="rgb(255, 255, 255)" stroke="none" stroke-width="1px">1.5e-3</text><text x="0" y="126.42857142857142" dx="0em" dy="0.3em" style="text-anchor: end; visibility: inherit; font-family: Roboto, sans-serif; font-size: 12px; font-weight: 200;" fill="rgb(255, 255, 255)" stroke="none" stroke-width="1px">2e-3</text><text x="0" y="101.14285714285714" dx="0em" dy="0.3em" style="text-anchor: end; visibility: inherit; font-family: Roboto, sans-serif; font-size: 12px; font-weight: 200;" fill="rgb(255, 255, 255)" stroke="none" stroke-width="1px">2.5e-3</text><text x="0" y="75.85714285714285" dx="0em" dy="0.3em" style="text-anchor: end; visibility: inherit; font-family: Roboto, sans-serif; font-size: 12px; font-weight: 200;" fill="rgb(255, 255, 255)" stroke="none" stroke-width="1px">3e-3</text><text x="0" y="50.57142857142855" dx="0em" dy="0.3em" style="text-anchor: end; visibility: inherit; font-family: Roboto, sans-serif; font-size: 12px; font-weight: 200;" fill="rgb(255, 255, 255)" stroke="none" stroke-width="1px">3.5e-3</text><text x="0" y="25.285714285714274" dx="0em" dy="0.3em" style="text-anchor: end; visibility: inherit; font-family: Roboto, sans-serif; font-size: 12px; font-weight: 200;" fill="rgb(255, 255, 255)" stroke="none" stroke-width="1px">4e-3</text><text x="0" y="0" dx="0em" dy="0.3em" style="text-anchor: end; visibility: hidden; font-family: Roboto, sans-serif; font-size: 12px; font-weight: 200;" fill="rgb(255, 255, 255)" stroke="none" stroke-width="1px">4.5e-3</text></g><line x1="72.34375" y1="0" x2="72.34375" y2="177" fill="rgb(0, 0, 0)" stroke="rgb(204, 204, 204)" stroke-width="1px"></line></g></g><g transform="translate(72, 0)" clip-path="url(#clip_0)"><clipPath id="clip_0"><rect width="257" height="177"></rect></clipPath><g><g><g><line x1="0" y1="0" x2="0" y2="177" fill="rgb(0, 0, 0)" stroke="rgb(189, 189, 189)" stroke-width="1px" opacity="0.25"></line><line x1="21.471354166666664" y1="0" x2="21.471354166666664" y2="177" fill="rgb(0, 0, 0)" stroke="rgb(189, 189, 189)" stroke-width="1px" opacity="0.25"></line><line x1="42.94270833333333" y1="0" x2="42.94270833333333" y2="177" fill="rgb(0, 0, 0)" stroke="rgb(189, 189, 189)" stroke-width="1px" opacity="0.25"></line><line x1="64.4140625" y1="0" x2="64.4140625" y2="177" fill="rgb(0, 0, 0)" stroke="rgb(189, 189, 189)" stroke-width="1px" opacity="0.25"></line><line x1="85.88541666666666" y1="0" x2="85.88541666666666" y2="177" fill="rgb(0, 0, 0)" stroke="rgb(189, 189, 189)" stroke-width="1px" opacity="0.25"></line><line x1="107.35677083333334" y1="0" x2="107.35677083333334" y2="177" fill="rgb(0, 0, 0)" stroke="rgb(189, 189, 189)" stroke-width="1px" opacity="0.25"></line><line x1="128.828125" y1="0" x2="128.828125" y2="177" fill="rgb(0, 0, 0)" stroke="rgb(189, 189, 189)" stroke-width="1px" opacity="0.25"></line><line x1="150.29947916666669" y1="0" x2="150.29947916666669" y2="177" fill="rgb(0, 0, 0)" stroke="rgb(189, 189, 189)" stroke-width="1px" opacity="0.25"></line><line x1="171.77083333333331" y1="0" x2="171.77083333333331" y2="177" fill="rgb(0, 0, 0)" stroke="rgb(189, 189, 189)" stroke-width="1px" opacity="0.25"></line><line x1="193.2421875" y1="0" x2="193.2421875" y2="177" fill="rgb(0, 0, 0)" stroke="rgb(189, 189, 189)" stroke-width="1px" opacity="0.25"></line><line x1="214.71354166666669" y1="0" x2="214.71354166666669" y2="177" fill="rgb(0, 0, 0)" stroke="rgb(189, 189, 189)" stroke-width="1px" opacity="0.25"></line><line x1="236.18489583333331" y1="0" x2="236.18489583333331" y2="177" fill="rgb(0, 0, 0)" stroke="rgb(189, 189, 189)" stroke-width="1px" opacity="0.25"></line><line x1="257.65625" y1="0" x2="257.65625" y2="177" fill="rgb(0, 0, 0)" stroke="rgb(189, 189, 189)" stroke-width="1px" opacity="0.25"></line></g><g><line x1="0" y1="177" x2="257.65625" y2="177" fill="rgb(0, 0, 0)" stroke="rgb(189, 189, 189)" stroke-width="1px" opacity="0.25"></line><line x1="0" y1="151.7142857142857" x2="257.65625" y2="151.7142857142857" fill="rgb(0, 0, 0)" stroke="rgb(189, 189, 189)" stroke-width="1px" opacity="0.25"></line><line x1="0" y1="126.42857142857142" x2="257.65625" y2="126.42857142857142" fill="rgb(0, 0, 0)" stroke="rgb(189, 189, 189)" stroke-width="1px" opacity="0.25"></line><line x1="0" y1="101.14285714285714" x2="257.65625" y2="101.14285714285714" fill="rgb(0, 0, 0)" stroke="rgb(189, 189, 189)" stroke-width="1px" opacity="0.25"></line><line x1="0" y1="75.85714285714285" x2="257.65625" y2="75.85714285714285" fill="rgb(0, 0, 0)" stroke="rgb(189, 189, 189)" stroke-width="1px" opacity="0.25"></line><line x1="0" y1="50.57142857142855" x2="257.65625" y2="50.57142857142855" fill="rgb(0, 0, 0)" stroke="rgb(189, 189, 189)" stroke-width="1px" opacity="0.25"></line><line x1="0" y1="25.285714285714274" x2="257.65625" y2="25.285714285714274" fill="rgb(0, 0, 0)" stroke="rgb(189, 189, 189)" stroke-width="1px" opacity="0.25"></line><line x1="0" y1="0" x2="257.65625" y2="0" fill="rgb(0, 0, 0)" stroke="rgb(189, 189, 189)" stroke-width="1px" opacity="0.25"></line></g></g></g><g><g><line x1="0" y1="227.57142857142858" x2="257.65625" y2="227.57142857142858" fill="rgb(0, 0, 0)" stroke="rgb(153, 153, 153)" stroke-width="1.5px"></line></g></g><g><g><line x1="21.471354166666664" y1="0" x2="21.471354166666664" y2="177" fill="rgb(0, 0, 0)" stroke="rgb(153, 153, 153)" stroke-width="1.5px"></line></g></g><g><g><g><g><g><path stroke="rgb(238, 51, 119)" stroke-width="2px" d="M23.661432291666667,-30.036753278594173L23.74731770833333,1.7415897438810277L23.876145833333332,24.984100113276522L23.96203125,43.068883074103766L24.2196875,44.19850219128447L24.348515625,52.8079965463104L24.99265625,59.34086613635828L25.121484375,59.372281489206856L25.336197916666666,65.48265691894748L25.679739583333333,63.98438525586644L25.980338541666665,65.76524746233609L26.323880208333335,69.30280439853264L26.452708333333334,72.27276435980525L26.495651041666665,72.95335641812774L26.796249999999997,75.3096814539228L27.354505208333336,79.79491718723403L27.912760416666668,82.79149945847517L28.385130208333333,85.26142518887961L28.59984375,88.53993407901753L28.728671875,90.16456990088305L29.115156250000002,90.73433568951724L29.158098958333333,92.07541324744861L29.587526041666667,93.27540490868482L29.802239583333332,95.23498076468019L29.888125000000002,95.78699100131593L29.931067708333334,95.64678489456004L30.102838541666667,97.48012063311366L30.446380208333334,97.68171001125505L30.789921874999997,94.05929509480808L30.832864583333336,90.7427256363407L31.047578124999998,87.7081130351381L31.519947916666666,80.48123425292081L31.777604166666666,74.8831799438442L31.99231770833333,70.37817060812571L32.12114583333333,66.04584187114696L32.63645833333334,63.22571923585845L32.894114583333334,61.180408331819L33.108828125,60.898765659826566L33.409427083333334,60.175730656570444L33.58119791666667,60.21780768567659L33.66708333333333,61.02515769778717L34.48299479166667,61.954597832152885L34.69770833333333,62.174936081202446L34.740651041666666,61.45647724425689L34.95536458333333,62.091425742584015L35.170078125,62.703044221176796L35.25596354166667,62.73343294110083L35.59950520833333,62.60580614754345L35.64244791666667,61.86701320886965L35.943046875,61.76293272265809L36.114817708333334,61.07766196799933L36.501302083333336,59.778788509318694L36.844843749999995,56.94897961600265L37.531927083333336,53.86985803063825L37.70369791666667,51.579690246180974L37.961354166666666,49.824639089479064L38.133125,47.51649432898983L38.21901041666667,45.607591653874614L40.02260416666667,43.528551447795934L40.065546875,42.27607145129743L40.151432291666666,39.23486604012683L40.40908854166666,35.67394736799371L40.795572916666664,33.88059546591588L40.881458333333335,32.315760285148436L40.92440104166666,29.40460425437948L41.05322916666667,27.653595422736117L41.310885416666665,25.470051084115127L41.69736979166667,24.033882715025893L41.826197916666665,21.425114495515732L41.869140625,19.948378102114148L42.29856770833333,18.148170177027552L43.028593750000006,17.113276678433486L43.11447916666667,16.954192588066878L43.71567708333333,16.37498424734136L43.930390625,17.047584107804543L44.016276041666664,16.766781058157274L44.14510416666667,16.99204827461683L44.48864583333333,16.517755366933095L44.74630208333333,16.25695617845326L44.832187499999996,16.00720338450476L44.961015624999995,15.431649791564679L45.218671875,14.938558224734562L45.43338541666667,14.76663452338224L45.8628125,14.296689142029313L46.12046875,14.026418732929423L46.378125,14.127960384761522L46.54989583333334,14.889993097091471L46.807552083333334,15.619892776073938L46.8934375,15.715277943572767L46.93638020833333,16.136223826351262L47.022265624999996,14.655900500430853L47.108151041666666,14.78072647040224L47.15109375,14.910864079552221L47.36580729166666,14.51104676443334L47.40875,14.38182204620035L47.795234375,15.358277514833407L48.052890624999996,15.707662133966393L48.13877604166667,16.772398352202444L48.353489583333335,17.032833678805535L48.568203125000004,17.304996737296825L48.65408854166667,18.641855556873573L49.16940104166667,17.750990511051306L49.47,16.80519198913091L49.512942708333334,16.70999559308782L49.598828125000004,15.201885218450428L49.68471354166667,14.810501283009872L49.72765625,14.708817024039334L49.813541666666666,14.93412354407807L50.328854166666666,14.840945877327028L50.457682291666664,15.19281638623273L50.629453125000005,15.932470237247175L50.75828125,17.33136856284605L50.887109375,17.486034459315338L51.05888020833333,17.034253117104946L51.10182291666667,17.104516171043024L51.27359375,17.813409375596915L51.488307291666665,18.26922649005472L51.96067708333333,17.758977909902583L52.13244791666667,17.603642240776924L52.26127604166667,17.331952819575942L52.604817708333336,16.436498408504193L52.77658854166667,17.11415608676708L52.90541666666667,17.266416537971157L52.948359374999995,17.223613109443267L52.99130208333333,17.734307565695165L53.29190104166667,17.61075379273088L53.549557291666666,17.971599491685083L53.635442708333336,17.75952335519658L53.67838541666667,18.07008585169313L53.85015625,15.780238035387825L54.02192708333333,15.932361673667597L54.19369791666667,16.091219645295997L54.236640625,16.009580068449715L54.40841145833333,16.268882685396214L54.794895833333335,15.991360461623831L54.96666666666667,16.209739851818775L55.009609375,16.68762488018364L55.05255208333333,14.653132064798555L55.1384375,14.250690030411315L55.18138020833334,13.018852824480636L55.439036458333334,12.458213069530638L55.61080729166667,10.495850220872658L55.65375,10.603481596986954L55.739635416666665,8.909367281275776L55.825520833333336,9.770717391579497L55.954348958333334,10.653730753805325L55.99729166666666,9.896935021039132L56.040234375,10.439271485794505L56.08317708333333,11.642472377478777L56.21200520833334,12.75762003660217L56.383776041666664,13.863502849468578L56.59848958333333,14.170518515811457L56.64143229166667,15.425038058444757L56.684375,17.13563125041534L56.94203125,18.398904674648374L57.67205729166667,19.853297999268122L57.843828125,21.32556696337995L57.929713541666665,21.929383141016693L58.14442708333333,23.79393409739736L59.175052083333334,25.48074254360978L59.260937500000004,26.547480893113725L59.475651041666666,28.033036223818936L59.56153645833333,28.707060280543917L59.73330729166667,29.397239267685368L59.81919270833333,31.213771072248075L60.16273437500001,33.05478679653147L60.420390624999996,34.44484910074238L60.59216145833333,35.752533684656974L60.89276041666667,37.8925007434432L60.97864583333333,39.35116143667908L61.236302083333335,40.57869083520594L61.3221875,42.04088434263725L61.451015625,43.110803950480026L61.579843749999995,44.563382680312664L61.92338541666667,46.40292054001649L61.966328125,46.18152481139763L62.095156249999995,47.81960838541975L62.395755208333334,48.99873890233095L62.52458333333333,49.798615030000164L62.911067708333334,51.36528270041563L63.08283854166666,52.34816423507643L63.211666666666666,54.31235815097715L63.254609375,54.96345389942739L63.641093749999996,56.125734921206416L63.68403645833334,57.913653017309386L63.855807291666665,59.26508021540053L63.941692708333335,61.175885754088L63.98463541666666,62.988328794903396L64.15640625,64.56254955010598L64.19934895833333,65.70653594514609L64.32817708333333,67.64246632247774L64.37111979166666,68.8170999601723L64.71466145833332,70.50784457374829L64.88643229166667,72.10133292179212L64.97231770833334,72.75121033951L65.058203125,74.03729897443003L65.10114583333333,74.35737293515052L65.48763020833333,75.38709159126178L65.61645833333333,76.31252722143793L65.96000000000001,77.63287327761796L66.04588541666668,77.03056130373847L66.21765625,76.89647670688633L66.26059895833333,77.630779350443L66.4753125,78.90350445054688L66.77591145833333,79.80043989437945L67.33416666666666,81.14367060414352L67.59182291666666,82.20969399660666L67.72065104166666,83.32987505391297L67.80653645833333,82.69496156367279L67.97830729166667,83.36423764593059L68.15007812500001,84.54353314654999L68.23596354166666,85.79382438140146L68.45067708333333,87.00860291409221L68.49361979166666,88.52442966687514L68.5365625,88.0036358456412L68.88010416666665,88.53675383986835L69.13776041666667,89.59848354290375L69.30953125,90.94993774081064L69.35247395833333,92.46786946790117L69.39541666666666,93.50112326301186L69.78190104166666,94.1197729817966L69.99661458333334,95.35907141691385L70.5978125,95.03392262310548L70.68369791666666,95.86708299266321L71.54255208333333,95.14390991697628L71.58549479166666,95.50555318187513L71.757265625,96.13686406995157L71.80020833333333,97.18609690976446L71.84315104166666,98.39179723022318L72.61611979166666,99.06516393711495L72.83083333333333,99.29230100830533L73.13143229166667,100.6564838803628L73.174375,102.35118995339573L73.43203125,103.32382899204823L73.51791666666666,104.08098732648149L73.73263020833333,102.66306089090368L73.81851562499999,103.38548698103678L74.84914062499999,102.87885200013822L74.93502604166666,103.86669543374852L75.02091145833334,102.79296367607274L75.364453125,103.73649600394789L75.49328125,104.31436560716396L75.83682291666666,105.48001488793642L75.96565104166666,104.57475196816361L76.09447916666667,105.76258499995186L76.652734375,106.6843886125009L76.95333333333333,107.61568370726266L77.21098958333334,105.51366359316346L77.46864583333334,105.387441105882L77.51158854166667,105.92715247527826L77.76924479166667,104.4390407431844L78.198671875,104.05975727579583L78.41338541666667,103.88878370428735L78.456328125,102.32254249807421L78.58515625,102.72354488215505L78.8428125,101.37777240751812L78.92869791666666,101.225000895447L79.05752604166668,101.19033000997378L79.18635416666667,100.096362846714L79.31518229166667,100.47982310793144L79.358125,99.1192533182501L80.13109375,99.46870887832742L80.775234375,100.19741954849879L81.419375,100.96484589358907L81.548203125,102.1755209307147L81.59114583333333,100.71774137832585L81.67703125,101.5863648275629L81.71997395833333,102.55207195461053L82.62177083333333,103.11824281321513L82.66471354166667,104.01278290468261L82.87942708333333,105.09310702204569L83.00825520833332,106.09846032609354L83.18002604166668,106.78641380753166L83.26591145833333,107.42167257932894L83.43768229166666,107.92607076221037L83.609453125,108.68977703250091L83.78122395833333,109.23726740413522L84.85479166666666,108.77944181701515L84.897734375,109.41726541383055L85.37010416666666,109.1065910714512L85.71364583333333,109.88948086893248L85.75658854166666,109.43673735708582L85.88541666666666,110.59753500974405L85.97130208333333,111.02552870599605L86.01424479166666,112.16937842888318L86.40072916666666,113.14634793616132L86.701328125,113.3337178567343L87.34546875000001,113.74802545835232L87.38841145833334,114.35124017316656L87.51723958333334,114.64355849802956L88.33315104166667,115.35801652858468L88.54786458333334,116.1098268875892L88.59080729166666,115.32993257378084L88.67669270833333,115.52582512903484L88.97729166666666,115.49611164980578L89.277890625,116.22125922891166L89.32083333333334,115.67112871052451L89.70731770833333,115.15873747309728L89.87908854166666,115.35107361754648L89.96497395833333,115.53583374932741L90.13674479166667,115.866572765955L90.52322916666667,116.29998679845627L90.82382812499999,115.70205614544527L90.86677083333333,116.12225139113083L91.08148437499999,116.6255035044424L91.42502604166667,116.66493956375353L91.81151041666666,116.36583684105989L91.85445312499999,116.8056302685255L92.02622395833333,117.42862888756352L92.2409375,117.90393265297696L92.369765625,117.78221402783257L92.45565104166667,118.35299868349162L92.58447916666667,117.48732151247957L92.71330729166667,117.97881216456437L92.88507812499999,118.74330257620564L93.22861979166667,119.01752875642032L93.57216145833334,119.10332325441009L93.74393229166667,119.17207069722627L93.87276041666667,118.39907230596397L93.915703125,118.18725394352344L94.173359375,118.01848717311724L94.21630208333333,117.548045609073L94.55984375,117.34947661945797L94.73161458333333,117.42582815677646L94.77455729166667,117.31223424224845L94.8175,116.41685430235322L94.90338541666667,116.81369446413504L95.03221354166666,115.39414008704955L95.3328125,116.05631225310488L95.37575520833333,117.13558896443998L95.719296875,117.5164106917982L95.76223958333333,118.4341956890789L96.14872395833333,119.16018858379775L96.32049479166668,119.77953142854197L96.40638020833333,119.55427173020655L96.53520833333333,119.97021171587485L96.749921875,120.74834445441603L96.79286458333333,120.52345167584787L96.87875,120.75457854259449L96.92169270833332,121.21418108891524L96.96463541666667,121.78701458100366L97.17934895833334,121.93780236154224L97.780546875,121.45140372239177L98.16703125000001,121.31471876873397L98.4246875,121.62505028467012L98.72528645833333,121.04266566153254L98.76822916666667,121.27223123769282L99.15471354166668,121.47879297937938L99.4553125,122.07124481539114L99.841796875,122.71410607807539L99.970625,122.79288247515993L100.27122395833334,121.37549248412469L100.35710937500001,121.17363117763996L100.52888020833333,121.24179646996764L100.95830729166666,121.55397964275417L101.00125,122.24076188423565L101.130078125,122.59998879174196L101.34479166666667,123.0064673563206L101.5165625,122.73804816451812L102.07481770833333,122.98668923134095L102.16070312500001,123.70816868145648L102.20364583333334,124.53056475352025L102.46130208333334,124.70448174063489L102.50424479166666,125.19987463357845L102.5471875,125.74149973728899L102.63307291666666,124.51800094346945L103.23427083333334,123.7447240241059L104.00723958333333,124.57880333128843L104.26489583333334,124.9744933729681L104.56549479166667,124.31040820444275L104.82315104166666,124.31469753620713L104.99492187499999,124.08261441375055L105.08080729166666,124.15857117491537L105.16669270833333,123.7461875749752L105.42434895833334,123.890200996745L105.55317708333334,122.41987425160605L105.6390625,122.6168598942999L105.76789062499999,122.00173029957855L105.89671874999999,120.79743696540167L106.02554687499999,120.99959696985418L106.41203125,121.64430413864594L106.49791666666667,121.35685695249823L107.01322916666666,122.2159004219395L107.05617187499999,121.9353929695094L107.09911458333333,121.05536057061582L107.7003125,121.0976576688736L107.87208333333334,119.91752667539728L108.04385416666666,119.68299486357924L108.215625,120.63380096002787L108.25856770833335,120.46689466830863L108.38739583333334,121.61603010094395L108.47328125,121.3613616429127L108.55916666666667,122.27369953262367L108.90270833333334,122.420786141353L108.98859374999999,123.19771007482116L109.11742187499999,122.76667516578306L109.24625,122.37264943159306L109.375078125,122.62986736925095L109.46096354166667,122.3717438778557L109.58979166666667,122.8287280976564L109.71861979166667,123.12140643890109L110.405703125,123.81021164873088L110.70630208333333,123.28948637709104L110.921015625,123.52678776377184L110.96395833333332,124.28560138970204L111.00690104166667,124.89060438208102L111.09278645833332,124.57049763024507L111.13572916666666,125.08419012519822L111.22161458333333,126.11021750804149L111.3075,125.51867840145262L111.47927083333333,125.2758379047776L111.65104166666667,126.04826016242876L111.86575520833333,125.59056914172116L111.951640625,126.37016701583093L112.25223958333333,126.58417640782353L112.338125,126.76699090262484L112.38106770833333,127.24775004876021L112.59578125,128.09515350603863L112.76755208333333,128.2521394821192L112.982265625,128.70138213933416L113.06815104166667,127.91682390623362L113.11109375,128.23084749719933L113.54052083333333,128.79259465755908L113.58346354166667,129.02867340932488L113.755234375,129.3376360860407L113.8840625,128.8275449574986L114.012890625,129.49226401002352L114.05583333333333,129.08581991665142L114.18466145833332,129.61433873071468L114.22760416666667,130.0131961232044L114.31348958333334,129.64021423219825L114.528203125,129.8224777416893L114.57114583333333,129.96391159736876L114.87174479166667,129.5242981388279L114.9146875,129.2632662426913L115.08645833333333,129.2720731111455L115.17234375,129.4781724383889L115.25822916666668,129.0262286910339L115.43,128.76526901528405L115.85942708333333,128.83944208483445L115.9453125,128.98952214051536L116.03119791666666,128.77574949891155L116.074140625,128.71981655239458L116.24591145833332,128.60469449405792L116.37473958333334,127.24144958862036L116.71828125,126.89921443788809L116.89005208333333,127.15981049626151L117.49125000000001,126.06875542289205L117.66302083333333,125.24119105830859L117.74890625,125.02932046281694L117.96361979166666,125.63234813960551L118.0065625,126.10078571558702L118.09244791666666,125.35406225309274L118.17833333333333,126.05528517359353L118.22127604166666,126.8191698924603L118.30716145833334,126.29180521145719L118.39304687500001,126.87787056078953L118.43598958333334,127.55426710937105L118.73658854166666,127.87562143685383L118.86541666666666,128.74805504619437L119.08013020833333,129.39919041201313L119.59544270833334,130.11360766251372L119.76721354166666,130.44653574272644L119.89604166666666,131.61748634327043L120.32546875000001,132.1634413163775L120.58312500000001,132.46865431846567L120.62606770833334,133.1919461171461L120.71195312500001,134.0960552684785L120.84078124999999,134.6942695379718L120.96960937499999,133.54334107980733L121.01255208333333,133.9265950070649L121.05549479166666,134.6539734183493L121.484921875,135.2934763212548L121.52786458333334,135.99799823988178L121.57080729166667,135.22535775119619L121.65669270833334,135.80552511510493L122.17200520833333,134.83567295501237L122.21494791666666,135.5719846806542L122.25789062499999,135.9654078288303L122.30083333333334,136.55872750724868L122.644375,136.6962780108301L123.03085937499999,136.85838078726832L123.76088541666667,136.90746613341994L124.36208333333335,136.67569101725127L124.53385416666667,135.7959090698673L124.576796875,135.72556416466287L124.66268229166667,136.20130025933102L125.00622395833334,136.32787715039078L125.09210937499999,136.29714094673201L125.26388020833333,136.6107125198771L125.69330729166667,136.49003678524784L126.03684895833334,136.64600381229326L126.07979166666667,135.5767377371277L126.55216145833333,135.73664881853054L126.895703125,134.23631561914482L127.153359375,134.03391495824874L127.19630208333332,134.11923274742816L127.28218749999999,133.54580515800305L127.36807291666668,133.65202618836446L127.58278645833333,133.66720952015774L128.39869791666666,134.0933694592332L128.65635416666666,134.09293567889893L128.699296875,134.14151173137645L129.12872395833332,133.91746872240108L129.21460937499998,133.02379499178474L129.3434375,133.34114855393577L129.38638020833332,132.65787355452719L129.42932291666665,132.80306783126588L129.90169270833334,133.46533373798204L130.03052083333336,133.7471629100759L130.28817708333335,134.0217188665096L130.502890625,134.22852271974762L130.58877604166668,133.38224592960563L130.67466145833333,133.33670960527357L130.760546875,132.5194348398041L131.14703125,132.18042274653737L131.31880208333334,131.80437603632436L131.49057291666665,131.29556231894432L131.57645833333333,131.6259320076706L131.70528645833332,130.86176907446725L132.09177083333336,130.75603404490036L132.13471354166668,130.52421164786637L132.306484375,129.73781872421893L132.564140625,130.28030106046722L132.65002604166668,130.69331710681405L133.16533854166667,130.9647905790527L133.20828125,131.53239357507363L133.25122395833333,130.76012363095674L133.29416666666665,130.76404465440612L133.42299479166667,130.96569211703613L133.59476562499998,131.40531979410335L133.85242187499998,130.81314838515934L133.89536458333336,130.36276180792663L134.02419270833335,130.00701367338036L134.367734375,128.97243895378094L134.58244791666667,128.72485590507932L134.71127604166668,129.26594522141224L134.84010416666666,129.60464939950828L134.883046875,130.07572100549245L135.140703125,129.34906756124371L135.22658854166667,129.83727979962165L135.48424479166667,129.26078900452936L135.61307291666665,129.59850162905204L135.74190104166667,129.73559805656885L135.78484375,130.0772103229049L135.95661458333333,130.07649054381483L136.77252604166668,130.61156696673677L136.944296875,130.6401933832985L137.03018229166668,131.03754892765085L137.24489583333332,131.83344984043333L137.45960937499999,132.71244579480728L138.01786458333333,132.9914710400432L138.18963541666668,132.876134128002L138.3184635416667,133.73116916335223L138.96260416666667,133.07600019778354L139.43497395833333,133.58639546860232L139.47791666666666,134.04792525668526L139.60674479166664,133.74223502491907L139.86440104166664,133.5812180423534L140.16500000000002,134.0102563887607L140.20794270833335,133.12520456146737L140.25088541666668,133.1664060860505L140.293828125,133.64251938745136L140.33677083333333,133.4362953417767L140.37971354166666,132.6329014604012L140.72325520833334,133.20881239125058L141.7109375,132.40592135341976L141.75388020833333,132.40307470827722L141.79682291666666,132.86506308548584L142.097421875,132.13494011081218L142.56979166666667,132.26365811175674L142.65567708333333,132.3751018697115L143.17098958333332,132.72502378502833L143.21393229166665,133.48878591805473L143.34276041666666,133.77205347168632L143.42864583333332,133.6164325684382L143.47158854166665,133.09098072273144L143.55747395833333,133.47646796411212L144.37338541666668,134.08617938467134L144.58809895833335,134.80755286730852L144.71692708333333,135.07341179203786L144.84575520833334,134.19288645748193L145.23223958333332,134.9050692004675L145.27518229166665,133.96314613607663L145.53283854166665,134.25823990128922L145.61872395833333,135.06483887058852L145.66166666666666,134.51700131685388L145.91932291666666,134.92263981184485L146.04815104166667,134.5753049324191L146.30580729166667,134.77191137903054L146.39169270833335,135.6869768595627L146.477578125,135.50233515838045L146.60640625,136.44158378958667L146.992890625,137.21209245369548L147.20760416666667,137.93001629515402L147.29348958333333,138.40792498162813L147.33643229166665,138.69670168128397L147.37937499999998,138.91453305363314L147.85174479166665,138.92665502674348L148.281171875,138.9605746390678L148.62471354166667,139.13106933337198L149.35473958333333,138.67683997983622L149.65533854166665,139.0216928591937L149.69828124999998,139.7006879011979L149.827109375,139.60016942985507L150.25653645833336,140.41661964219404L150.51419270833333,140.60772535762572L150.68596354166667,140.79877699347577L150.90067708333333,140.4534014815985L150.9865625,140.78799666175138L151.07244791666668,141.37692662646947L151.15833333333333,141.55520948629015L151.24421875,142.1216485504145L151.41598958333333,142.85019788687438L151.45893229166666,142.8786221064308L151.58776041666667,143.44401428443643L151.84541666666667,144.38141155153767L151.93130208333332,144.72470578153343L152.06013020833333,144.7815250209092L152.40367187500001,144.8163087697581L152.48955729166667,144.79803282714337L152.5325,144.6943357668106L152.57544270833333,144.84076452625033L152.918984375,144.95396772968576L153.56312499999999,143.67576080357114L153.64901041666667,143.5337081994884L153.73489583333333,142.98398926100649L153.82078124999998,142.84285379806124L153.90666666666667,143.00464699973082L154.29315104166668,143.2761244380953L154.46492187500002,143.49873146684072L155.02317708333334,144.1310471937544L155.19494791666668,144.40127618393532L156.01085937500002,144.4570484124031L156.655,144.19648631355867L156.69794270833333,143.19170626040352L156.95559895833333,143.063677417621L156.99854166666665,143.16745867030482L157.08442708333334,142.60856626512054L157.21325520833332,143.16814851301737L157.42796875,143.42824122828551L157.556796875,143.16551703427535L157.59973958333333,143.34535239372875L157.685625,142.38512635011858L158.37270833333335,142.3808621334031L158.67330729166667,141.76324072885186L158.84507812500001,140.9207348937266L159.14567708333334,141.0575007064748L159.18861979166667,141.58063343064813L159.48921875,141.07634231291476L159.618046875,141.6685569662614L160.64867187500002,142.3872287474454L160.7775,142.51328434959922L161.07809895833333,141.41198527503994L161.20692708333334,142.10488298383572L161.24986979166667,142.07469162996114L161.33575520833332,142.4412657590814L161.37869791666665,142.8171043773595L161.67929687499998,142.63383599067902L161.76518229166666,142.7069402247987L162.23755208333336,142.70480277618617L162.452265625,142.61791016081742L162.83875,142.31123201740198L162.92463541666666,142.7010312919125L163.01052083333335,141.87656135775453L163.18229166666666,140.83422740357966L163.31111979166667,140.9175176847009L163.869375,141.23190280890242L163.91231770833332,141.66632022656285L163.95526041666665,140.7122218237545L164.21291666666667,140.8389808878011L164.55645833333335,140.48399965498763L164.81411458333335,140.3778454512274L164.85705729166668,140.3478599650746L164.9,140.36299668704606L165.07177083333335,140.91785710896283L165.286484375,141.446554459241L165.58708333333334,141.15026942594523L165.930625,140.09323057780176L166.10239583333336,140.1125183017779L166.27416666666667,140.31796917152988L166.36005208333336,139.7223440163127L166.61770833333333,139.39964293146195L166.74653645833334,138.7430357842355L166.832421875,138.89901540678864L166.91830729166668,137.78258110751432L167.00419270833333,137.96900623956674L167.13302083333332,137.72977855050712L167.347734375,137.28036754596286L167.86304687499998,137.41675652189008L168.07776041666665,137.8699086872781L168.29247395833335,137.70344259002488L169.06544270833334,138.10405353051794L169.23721354166668,138.64393036296858L169.36604166666666,138.68755747914705L169.58075520833333,138.73072611167825L169.88135416666665,139.38632435545986L170.053125,139.93727601321484L170.13901041666668,138.94168550644497L170.39666666666668,139.2605180891038L170.439609375,139.42949807763117L170.697265625,138.41887599792364L170.99786458333332,138.37819764131774L171.25552083333332,139.0660575730552L171.38434895833333,138.85868911652668L171.64200520833333,139.18792153149528L172.11437500000002,138.39413123073356L172.20026041666668,138.41374394963833L172.500859375,137.86224179475118L172.62968750000002,138.1295576285426L172.758515625,138.40964130632992L172.84440104166666,138.8825940154256L173.05911458333333,138.39810456518106L173.74619791666666,138.31590012607347L173.83208333333332,137.51120660751906L173.87502604166664,137.11404248509973L174.04679687499998,136.34066632244847L174.0897395833333,135.90721642420397L174.26151041666668,134.94630422054286L174.34739583333334,135.01970457730803L174.60505208333333,135.58504525537236L174.64799479166666,135.2233395778303L174.94859375000001,135.69298242321582L175.46390625,135.05181800158235L175.67861979166665,135.18481671957161L175.80744791666666,134.65146011297242L176.19393229166667,134.81643308368027L176.23687500000003,134.27833025633558L176.49453125000002,134.55154352135878L176.53747395833335,134.7106212315188L177.138671875,134.7909379140961L177.31044270833334,135.02950899817742L177.396328125,135.46011000123394L177.48221354166665,135.31038694879462L177.61104166666667,135.4343969720383L177.73986979166665,135.69540545522958L178.12635416666666,135.93665900385682L178.38401041666668,136.1643126366892L178.46989583333334,135.8974515770969L178.942265625,136.40746975591057L178.98520833333333,136.99603756526616L179.24286458333333,136.44487188312118L179.54346354166665,136.77242907689242L180.57408854166667,137.25826245187733L180.70291666666668,137.65428633710894L180.83174479166667,137.05189875660324L180.91763020833335,137.2080160201945L181.81942708333332,137.16941277392348L181.94825520833334,137.77871966062182L182.12002604166665,138.4128109616066L182.16296874999998,138.8879779342781L182.20591145833336,139.23348063149808L182.46356770833336,138.60499826817156L182.59239583333334,139.10176501561602L182.67828125,139.11496983572587L183.064765625,139.2583016688329L183.23653645833332,138.75631917235364L183.36536458333333,138.32470360435718L183.580078125,137.9716080288655L183.92361979166665,138.44997004054784L184.095390625,138.068722044883L184.18127604166665,137.06098456430357L184.26716145833333,137.2394412459701L184.82541666666668,137.7923741681634L184.91130208333334,138.6346168277787L185.04013020833332,138.9267216974593L185.55544270833332,139.68478336984052L185.72721354166666,140.57747245894282L185.94192708333333,141.06767815467714L186.02781249999998,141.04488243284393L186.45723958333335,141.48737979368605L186.543125,141.81333682837533L186.6290104166667,141.83103260800166L187.187265625,141.76382829212096L187.444921875,142.23012190980927L187.87434895833331,142.81301560160477L188.08906249999998,142.98682134066428L188.38966145833334,142.92019011104009L188.51848958333335,143.67063412693958L188.604375,143.01715102370503L189.46322916666665,143.21061479118345L189.506171875,143.50840690285747L189.54911458333333,143.5354915690711L189.763828125,143.00265835955304L189.84971354166666,143.28417683942553L190.10736979166666,143.69248199657474L190.27914062500003,143.9237250739833L190.62268229166668,143.61989408512082L190.665625,143.19556553888182L190.88033854166667,143.0947589085617L190.92328125,142.09287612971127L191.09505208333334,141.61702363670062L191.567421875,141.655351102656L191.825078125,141.95699520596185L192.082734375,141.58557187608614L192.21156249999999,141.9938331244976L192.68393229166668,142.14848382538025L192.85570312500002,142.67394284256142L193.02747395833333,143.09492286435196L193.32807291666666,143.14251663994773L193.49984375,143.01298782492003L193.71455729166667,143.1832477001476L193.92927083333333,143.52276068191964L194.10104166666665,143.39269868475827L194.14398437499997,143.7468434704655L194.22986979166666,142.83052809237984L194.61635416666667,141.83223319177043L194.659296875,141.87564463762433L195.13166666666666,141.75181404305638L195.21755208333335,140.4198876802926L195.26049479166667,140.2092509091294L195.56109375,140.19717084499285L195.64697916666665,140.30078420614325L195.68992187499998,140.55887067861465L195.73286458333334,140.67906003305666L195.77580729166667,139.92846567843551L195.94757812499998,140.70759663815542L196.03346354166666,140.29284193908464L196.978203125,141.46364719744133L197.10703125,142.47579885378167L197.70822916666665,143.29517816564058L197.92294270833332,144.0699486029729L197.96588541666665,144.2484695239302L198.05177083333334,144.53055818578187L198.39531250000002,143.20235392953344L198.61002604166669,142.98372069447618L198.910625,143.60841335980203L200.1130208333333,144.31690801207728L200.4136197916667,143.96694231719758L200.88598958333333,144.46628198525698L201.100703125,144.71776704198953L201.4871875,144.48135586189724L201.53013020833333,144.7102255003023L201.95955729166667,144.43233964882506L202.0025,144.62170506640595L202.04544270833333,144.62758069056477L202.13132812499998,144.43405534656512L202.21721354166667,144.7878300593271L202.30309895833335,145.18951168979157L202.34604166666668,144.77002610953966L202.388984375,145.0362014960147L202.4748697916667,145.2657378843874L203.24783854166668,145.77967438765523L203.46255208333332,145.729826868373L203.677265625,145.48488604968614L203.80609375,145.85660634629332L203.934921875,146.00195917629736L204.14963541666665,146.39101625754023L204.62200520833335,147.02487291152147L205.00848958333333,147.71593751511568L205.13731770833334,148.32442247830718L205.18026041666667,148.992488484946L205.56674479166665,149.3721971663233L205.82440104166665,149.91135333960042L206.46854166666668,149.96198080883892L206.511484375,149.54688779975322L206.769140625,149.48396730778828L206.94091145833335,148.9085348040736L207.06973958333333,149.38568211248838L207.32739583333333,150.00255521383613L207.41328125,150.27128117031833L207.799765625,150.16274397470065L207.97153645833333,149.88220865217446L208.22919270833333,150.30517198143656L208.44390625000003,150.71558333841162L208.70156250000002,150.96242168646702L208.87333333333333,151.4796872635986L209.088046875,152.02918365331823L209.38864583333333,151.65574745593455L209.56041666666667,151.44865667870485L209.94690104166665,152.0172828342558L210.07572916666666,152.26199959026462L210.59104166666668,151.67958565847184L210.891640625,152.07010915221375L211.02046875,152.33545732492578L211.10635416666668,152.97314095266745L211.149296875,152.9147170221414L211.32106770833335,153.2448932432574L211.36401041666667,152.64889458446618L211.406953125,152.41979599488027L211.922265625,152.66042793272248L212.179921875,151.49738026889264L212.22286458333332,151.4276868114233L212.30874999999997,151.8435815786942L212.52346354166667,151.18429164938541L212.56640625,150.7045525700489L212.695234375,150.81421362557975L212.952890625,150.23541703010864L213.12466145833335,150.2548834889694L213.42526041666667,150.64866593450895L213.85468749999998,150.60158410420902L214.11234374999998,150.76026221434805L214.28411458333332,151.0672629729188L214.41294270833336,151.02184697705658L214.756484375,149.87825759150766L214.84236979166667,149.73119834155074L215.400625,149.39182595406277L215.57239583333333,148.81445626183495L215.61533854166666,148.85563127573687L216.43125,148.92458256939355L216.47419270833333,149.47799279894173L216.60302083333335,148.99819300170145L216.90361979166667,149.6695868092141L216.98950520833333,148.5098257017336L217.333046875,148.3035457397687L217.41893229166666,148.1200180618649L217.461875,148.3421822461213L218.0201302083333,148.04524623076045L218.106015625,148.08924479127901L218.14895833333333,147.1779945280529L218.53544270833333,145.8773045926291L218.66427083333335,146.2295357350498L218.75015625,145.29362592318273L219.136640625,144.03748879437026L219.26546875,143.7247096591432L219.35135416666668,143.163407544698L219.43723958333334,143.13989497127588L219.95255208333333,142.5925798978091L220.68257812500002,141.24869220305402L220.89729166666666,140.48558305851563L221.32671875,140.52433774045173L221.584375,140.9972249065637L221.88497395833332,140.2828416791172L222.14263020833332,140.23428144128582L222.228515625,137.96170439729303L222.4002864583333,137.87205685502607L222.70088541666667,138.10021121788142L222.74382812500002,138.4788009989547L222.78677083333335,138.7879388928764L223.21619791666666,138.36487762587058L223.90328125,138.92220149304083L224.11799479166666,139.6804255370764L224.33270833333333,140.58889589323536L224.54742187500003,141.97635472806044L224.59036458333335,143.17675836743157L224.67625,143.62191795166368L224.80507812500002,143.91832080061488L225.23450520833333,144.28749560057835L225.40627604166667,144.65303341219078L225.44921875,145.20797599254863L225.706875,146.1120731959925L225.87864583333334,146.71830383588954L225.92158854166667,147.498259038734L226.26513020833332,147.8649773748881L226.39395833333333,147.9356322642256L226.43690104166666,148.08339451066465L226.52278645833334,148.66719849832762L226.65161458333336,148.41002852724762L226.69455729166668,148.7182077672082L226.7375,149.19343591223537L226.78044270833334,149.99512529715622L226.95221354166668,150.398135591364L227.03809895833334,149.59097181852837L227.16692708333335,150.20454285965582L227.20986979166668,149.99416857299693L227.2528125,149.5892897361182L227.29575520833333,149.3990200751806L227.381640625,149.81519878102623L227.51046875,149.82083331209463L227.55341145833333,149.84356338542L227.81106770833333,149.66704957257735L228.06872395833332,149.69986107517272L228.15460937499998,150.29063453809343L228.2834375,150.4766323189461L228.79875,150.42730418969273L229.14229166666667,150.70165555819457L229.185234375,151.38179271117707L229.22817708333335,150.98708979432877L229.48583333333335,150.70107714390429L229.78643229166667,150.79444339842192L230.00114583333334,151.0178028791663L230.30174479166666,151.2244459414255L230.47351562499998,151.16207584445164L230.86,150.9000853230444L231.11765625,151.01795574109076L231.20354166666667,151.53533745560156L231.33236979166668,151.65358208146466L231.63296875,151.4641689294948L231.890625,151.76042259038735L232.01945312499998,151.4190781635757L232.10533854166667,151.87506821479639L232.14828125,152.43923632122895L232.534765625,152.42022006784322L232.96419270833334,152.4591080465372L233.00713541666667,151.88825036281392L233.35067708333332,152.00591021678645L233.86598958333332,152.03853000803267L233.99481770833333,151.6659523138245L234.1236458333333,151.69133964521046L234.6819010416667,151.8536345627711L235.02544270833334,151.8788882834854L235.368984375,151.45223066284677L235.41192708333332,151.44917891579834L235.54075520833334,151.29479053810667L235.626640625,151.55998113650583L235.66958333333332,152.06204001396011L236.18489583333331,151.63303723785492" style="fill: none;" fill="none"></path></g></g></g></g><g opacity="0.2"><g><g><g><path stroke="rgb(238, 51, 119)" stroke-width="2px" d="M22.716692708333333,-0.6278107166290283L22.974348958333334,73.01199131937963L23.661432291666667,169.41914143732618L23.74731770833333,117.22941831446118L23.876145833333332,128.60082324487823L23.96203125,138.02597869746387L24.2196875,50.99105730280278L24.348515625,110.89314096367784L24.99265625,108.02554839849472L25.121484375,59.627722234598224L25.336197916666666,119.15679903062326L25.679739583333333,49.88219816929526L25.980338541666665,83.60349528385059L26.323880208333335,106.79384508995074L26.452708333333334,105.40943727589078L26.495651041666665,80.9130865723959L26.796249999999997,104.0871992350689L27.354505208333336,136.80581447561937L27.912760416666668,122.31576530954666L28.385130208333333,118.9773191341332L28.59984375,134.74674098885487L28.728671875,113.7547402685242L29.115156250000002,99.24123025525893L29.158098958333333,112.62763053870626L29.587526041666667,112.12102930886405L29.802239583333332,126.72539196802038L29.888125000000002,104.85174615095768L29.931067708333334,93.29702281153627L30.102838541666667,128.8017210992319L30.446380208333334,101.18881614772337L30.789921874999997,29.949144145207736L30.832864583333336,31.085438046072195L31.047578124999998,32.2775198987552L31.519947916666666,-53.461779889251524L32.12114583333333,-17.47332305354732L32.63645833333334,8.212024563125176L32.894114583333334,20.829968770699832L33.108828125,55.28264381417206L33.409427083333334,45.61029875278471L33.58119791666667,61.073711092982954L33.66708333333333,77.60035607591271L34.48299479166667,81.20536692866257L34.69770833333333,66.7771755095039L34.740651041666666,46.32900723548872L34.95536458333333,75.56334226152725L35.170078125,75.77521402282373L35.25596354166667,63.387486369482104L35.59950520833333,59.84051241299934L35.64244791666667,45.75712774374655L35.943046875,59.47950384340114L36.114817708333334,45.9555293875081L36.501302083333336,30.955717517329102L36.844843749999995,-6.182844799544147L37.70369791666667,-0.026271062237903875L37.961354166666666,10.09129435249735L38.133125,-4.973313021872747L38.21901041666667,2.01023644528217L40.02260416666667,-4.150246452007997L40.065546875,13.439442780401002L40.151432291666666,-31.04960018609254L43.028593750000006,-7.595676445535284L43.11447916666667,13.147221297025661L43.71567708333333,2.4837157864655626L43.930390625,33.21273932659198L44.016276041666664,10.00432731743369L44.14510416666667,22.42761419713495L44.48864583333333,5.051963248423142L44.74630208333333,9.940956537212621L44.832187499999996,9.94830387404985L44.961015624999995,1.4458573598946702L45.218671875,2.9375315819467676L45.43338541666667,10.575912444719233L45.8628125,2.82475467132668L46.12046875,7.419501249279272L46.378125,16.613562941551187L46.54989583333334,33.56776641043169L46.807552083333334,33.53240735190255L46.8934375,18.058939521866176L46.93638020833333,26.490997607154494L47.022265624999996,-21.79864373164521L47.108151041666666,17.857971020042875L47.15109375,18.122333851243745L47.36580729166666,4.634860587971542L47.40875,11.186730466783027L47.795234375,39.52313615434934L48.052890624999996,24.36161222628183L48.13877604166667,43.16709731199909L48.353489583333335,23.494202594671915L48.568203125000004,24.06256148751292L48.65408854166667,51.85958551934785L49.16940104166667,-4.400715280856422L49.47,-6.728643600429824L49.512942708333334,14.339703485369663L49.598828125000004,-22.372395381331444L49.68471354166667,5.053282001188798L49.72765625,12.17233331501482L49.813541666666666,20.557505029652784L50.328854166666666,12.514078674571847L50.457682291666664,23.984448935304354L50.629453125000005,34.42231820257646L50.75828125,52.31788742914794L50.887109375,21.35603337841374L51.05888020833333,5.724880396255411L51.10182291666667,18.864155831081515L51.27359375,35.57397792807645L51.488307291666665,29.693777091801145L51.96067708333333,4.965278803237833L52.13244791666667,13.707408632550903L52.26127604166667,10.514849481838082L52.604817708333336,-6.03945398543565L52.77658854166667,34.12895458510942L52.90541666666667,21.090610835169027L52.948359374999995,16.148231608527038L52.99130208333333,30.568581158561354L53.29190104166667,14.504853720111495L53.549557291666666,27.044991514512457L53.635442708333336,12.425533846020679L53.67838541666667,25.88307613134382L53.85015625,-41.840483084321065L54.02192708333333,19.76121385076214L54.19369791666667,20.09045460820196L54.236640625,13.9538741047893L54.40841145833333,22.799526026206347L54.794895833333335,9.000473872891469L54.96666666666667,21.711837584418898L55.009609375,28.7301927049245L55.05255208333333,-36.62448620796208L55.1384375,4.10578168822185L55.18138020833334,-18.038785400135204L55.61080729166667,-38.99525044326274L55.65375,13.318353017526006L55.739635416666665,-33.82854195152013L55.825520833333336,31.503141210015308L55.954348958333334,32.935589303395574L55.99729166666666,-9.202317649764701L56.040234375,24.127839749412868L56.08317708333333,42.01471933722494L56.21200520833334,40.91024034683193L56.383776041666664,41.785173933953025L56.59848958333333,21.922932223549907L56.64143229166667,47.10584681108592L56.684375,60.33788237348197L56.94203125,50.30665994116238L57.67205729166667,56.5915530323982L57.843828125,58.51847454000796L57.929713541666665,37.18439877192888L58.14442708333333,70.9042240642011L59.175052083333334,68.10331093573144L59.260937500000004,53.50394069775937L59.475651041666666,65.57557979758296L59.56153645833333,45.74193853778497L59.73330729166667,46.84151930361984L59.81919270833333,77.12944359279103L60.16273437500001,79.59207308771354L60.420390624999996,69.58490611878888L60.59216145833333,68.81192860486252L60.89276041666667,91.99555512677345L60.97864583333333,76.23116101697087L61.236302083333335,71.61639765596814L61.3221875,79.01372935250401L61.451015625,70.16587558495146L61.579843749999995,81.29634909491453L61.92338541666667,92.92328592283386L61.966328125,40.58238898962734L62.095156249999995,89.24861666506953L62.395755208333334,78.82140339112706L62.52458333333333,70.02986743141497L62.911067708333334,90.99233750945754L63.08283854166666,77.20984041318297L63.211666666666666,103.99759469447392L63.254609375,71.4337386233466L63.641093749999996,85.527955904603L63.68403645833334,103.1438906719642L63.855807291666665,93.45402503811887L63.941692708333335,109.51746988669038L63.98463541666666,108.8425863842879L64.15640625,104.39081851020455L64.19934895833333,94.65041638644678L64.32817708333333,116.62433451201234L64.37111979166666,98.53768742935998L64.71466145833332,113.28796066237348L64.88643229166667,112.42142234955514L64.97231770833334,89.19539557131273L65.058203125,106.58046618263636L65.10114583333333,82.45666313543916L65.48763020833333,101.44398303329945L65.61645833333333,99.7309349652912L65.96000000000001,111.04512721991964L66.04588541666668,61.788416219076936L66.21765625,73.50327382289937L66.26059895833333,96.21362117145742L66.4753125,111.11252490590725L66.77591145833333,102.49959752389363L67.33416666666666,115.13785287897501L67.59182291666666,109.18870011238116L67.72065104166666,111.67983586128268L67.80653645833333,66.62615476867981L67.97830729166667,100.3028968790812L68.15007812500001,114.39054394566587L68.23596354166666,117.43799319384354L68.45067708333333,117.75425836603556L68.49361979166666,126.8898710518011L68.5365625,74.82227385469845L68.88010416666665,102.03015686305505L69.13776041666667,116.47145338782242L69.30953125,125.15626457014254L69.35247395833333,130.8881587058838L69.39541666666666,119.65394527411885L69.78190104166666,109.7786064834467L69.99661458333334,126.72754671584282L70.5978125,86.80387275453124L70.68369791666666,116.95587131221379L71.54255208333333,76.8389882961554L71.58549479166666,104.6595026116286L71.757265625,112.11675513695393L71.80020833333333,123.74466925486922L71.84315104166666,128.91108926944435L72.61611979166666,116.10984431473273L72.83083333333333,105.04176429499472L73.13143229166667,135.1878579016775L73.174375,145.24924091622233L73.43203125,127.94431985914707L73.51791666666666,123.24707557739956L73.73263020833333,66.77068771688L73.81851562499999,121.67253187351993L74.84914062499999,90.0541626624763L74.93502604166666,128.8725275256272L75.02091145833334,75.61290146144373L75.364453125,127.6208133213222L75.49328125,118.94244283331292L75.83682291666666,134.98711900413036L75.96565104166666,81.65897078173501L76.09447916666667,135.83141513860653L76.652734375,130.0190064366907L76.95333333333333,131.1906299596386L77.21098958333334,52.30267467402986L77.46864583333334,102.19221038371325L77.51158854166667,119.58958542932356L77.76924479166667,66.76840344869665L78.198671875,94.45840833868299L78.41338541666667,99.56067456358245L78.456328125,62.673864504588494L78.58515625,112.8747553873275L78.8428125,67.31003404887659L78.92869791666666,97.35763919566358L79.05752604166668,100.31264622988445L79.18635416666667,72.40284528742943L79.31518229166667,110.18704305429543L79.358125,64.67664961995823L80.13109375,108.31513237633875L80.775234375,118.64466374899659L81.419375,120.39219955674238L81.548203125,132.823728641229L81.59114583333333,63.81404401628033L81.67703125,123.57559808556522L81.71997395833333,126.99900961773736L82.62177083333333,117.4509099062L82.66471354166667,126.65817090070672L82.87942708333333,132.44166712569339L83.00825520833332,131.54914820593382L83.18002604166668,124.20208807129944L83.26591145833333,123.50338459706731L83.43768229166666,120.6950299351343L83.609453125,128.02319775894284L83.78122395833333,123.09713809777583L84.85479166666666,97.18945111972945L84.897734375,125.56397111713886L85.37010416666666,101.24176642618008L85.71364583333333,129.70861089176364L85.75658854166666,97.97536889516881L85.88541666666666,139.98357298145336L85.97130208333333,121.86035994599972L86.01424479166666,141.12640766054392L86.40072916666666,137.87874937084104L86.701328125,118.0770702037428L87.34546875000001,124.23641096694129L87.38841145833334,129.6219028974218L87.51723958333334,122.04373722789543L88.33315104166667,133.444872968431L88.54786458333334,135.14228439650367L88.59080729166666,95.58650713307517L88.67669270833333,120.48494790973407L88.97729166666666,114.74389903939195L89.277890625,134.5787648553295L89.32083333333334,101.74427010278616L89.70731770833333,102.18726506084204L89.87908854166666,120.22017296829394L89.96497395833333,120.21314354506987L90.13674479166667,124.23942525897706L90.52322916666667,127.27212096058896L90.82382812499999,100.56508141330309L90.86677083333333,126.759750187397L91.08148437499999,129.36564097606708L91.42502604166667,117.66328797436185L91.81151041666666,108.79386317942823L91.85445312499999,127.93928033964974L92.02622395833333,133.2002384431128L92.2409375,129.93655495239156L92.369765625,114.70082763209939L92.45565104166667,132.8027875537851L92.58447916666667,95.57213037301386L92.71330729166667,130.42122603021562L92.88507812499999,138.0968910950635L93.22861979166667,125.95975001635296L93.57216145833334,121.27526937744446L93.74393229166667,120.91245929737175L93.87276041666667,98.8300855314093L93.915703125,112.82492537211094L94.173359375,113.74603885518653L94.21630208333333,105.63848814687557L94.55984375,112.32256299044404L94.73161458333333,119.358721273286L94.77455729166667,114.43652367378984L94.8175,93.74967292376927L94.90338541666667,126.85998717216509L95.03221354166666,79.45710109706435L95.3328125,132.81967818630594L95.37575520833333,144.4582600721291L95.719296875,127.15718930214643L95.76223958333333,141.6685916659023L96.14872395833333,137.53922940657606L96.32049479166668,135.45864965261092L96.40638020833333,113.85165682222161L96.53520833333333,130.50003916983093L96.749921875,140.44735007014657L96.79286458333333,114.83012427602495L96.87875,126.60572692911539L96.92169270833332,132.84936189811143L96.96463541666667,136.2887220965432L97.17934895833334,125.75510784611106L97.780546875,109.13785748343382L98.16703125000001,117.85443647791232L98.4246875,129.48132620751858L98.72528645833333,106.29915973331246L98.76822916666667,127.08385722871337L99.15471354166668,126.70805978881461L99.4553125,137.06961212706352L99.841796875,138.98862700536847L99.970625,124.78716686527643L100.27122395833334,85.4931855749871L100.35710937500001,116.06335827974337L100.52888020833333,122.96745289276753L100.95830729166666,129.45713533647358L101.00125,139.62718004653496L101.130078125,131.69409326437327L101.34479166666667,133.29678409759487L101.5165625,115.94281014746852L102.07481770833333,129.28122902448686L102.16070312500001,141.97297628862518L102.20364583333334,145.35015493924064L102.46130208333334,129.1073243908052L102.50424479166666,137.74112810008228L102.5471875,139.45315766707063L102.63307291666666,93.5441829838923L103.23427083333334,104.16862044376987L104.00723958333333,145.69416690511363L104.26489583333334,134.99169342778623L104.56549479166667,107.49857714825443L104.82315104166666,124.42328529858163L104.99492187499999,118.20724994103823L105.08080729166666,126.08147560645426L105.16669270833333,113.30637610277958L105.42434895833334,127.53601280865925L105.55317708333334,85.19740816897578L105.6390625,127.60370485910347L105.76789062499999,106.42924527398176L105.89671874999999,90.30981230576123L106.02554687499999,126.11743516847491L106.41203125,137.96556922367643L106.49791666666667,114.0799070218844L107.01322916666666,143.96325680187772L107.05617187499999,114.83412763263497L107.09911458333333,98.77665249524372L107.7003125,122.16844178629773L107.87208333333334,90.0415874128895L108.04385416666666,113.74563851952553L108.215625,144.70420157563473L108.25856770833335,116.24153119804603L108.38739583333334,150.70729368525954L108.47328125,114.91423008857029L108.55916666666667,145.3702482570495L108.90270833333334,126.14439895270127L108.98859374999999,142.86614869747842L109.11742187499999,111.85468834851469L109.24625,112.39757882856897L109.375078125,129.14154131524265L109.46096354166667,115.83714508212037L109.58979166666667,134.3976424051715L109.71861979166667,130.5307884809694L110.405703125,141.247856548056L110.70630208333333,110.10691704920359L110.921015625,129.5342588241079L110.96395833333332,143.49556466591144L111.00690104166667,140.20673067601663L111.09278645833332,116.4667435565165L111.13572916666666,138.08871953774775L111.22161458333333,152.0849075676607L111.3075,110.54340066547904L111.47927083333333,119.12813970712679L111.65104166666667,145.6027373048876L111.86575520833333,114.00376082424606L111.951640625,146.1063006935375L112.25223958333333,132.00199259870817L112.338125,131.3950837366283L112.38106770833333,139.41854629426132L112.59578125,149.54783918894827L112.76755208333333,132.22636307483273L112.982265625,140.07431376885089L113.06815104166667,108.05511436451758L113.11109375,136.18060203162688L113.54052083333333,143.01366650126874L113.58346354166667,135.00519298176678L113.755234375,137.1592696532607L113.8840625,115.91418614770684L114.012890625,146.32015058398247L114.05583333333333,118.79636741536004L114.18466145833332,142.99420901068618L114.22760416666667,140.11058535719556L114.31348958333334,120.19788369163871L114.528203125,134.43662214651704L114.57114583333333,133.54442114037062L114.87174479166667,118.39513688640935L114.9146875,122.65503800766808L115.08645833333333,129.49502592932964L115.17234375,134.69573940310093L115.25822916666668,117.58491638143147L115.43,122.15886905416846L115.85942708333333,130.71719182947916L115.9453125,132.78891710058917L116.03119791666666,123.36392649209924L116.074140625,127.30382989985603L116.24591145833332,125.69028879276343L116.37473958333334,92.72982960194349L116.71828125,118.23526166273015L116.89005208333333,133.7570052636521L117.49125000000001,98.44783562262143L117.66302083333333,104.29074636953217L117.74890625,119.66564920491405L117.96361979166666,140.89846948720515L118.0065625,137.95965249809834L118.09244791666666,106.45016869955829L118.17833333333333,143.80729662547154L118.22127604166666,146.15751422170015L118.30716145833334,112.9411522341626L118.39304687500001,141.71457728131543L118.43598958333334,144.67777942200857L118.73658854166666,136.01095979527702L118.86541666666666,150.83440025762786L119.08013020833333,145.88319598457645L119.59544270833334,148.19964409034165L119.76721354166666,138.8748728047524L119.89604166666666,161.2610248026571L120.32546875000001,145.9847222856645L120.58312500000001,140.19536232070197L120.62606770833334,151.50264878517817L120.71195312500001,156.9842919217689L120.84078124999999,149.8385358644383L120.96960937499999,104.40667886712721L121.01255208333333,143.6289706376514L121.05549479166666,153.06813195108305L121.484921875,151.48299701405423L121.52786458333334,153.83352663660688L121.57080729166667,115.66535398523722L121.65669270833334,150.49291982608182L122.17200520833333,110.28310006377953L122.21494791666666,154.2122971575175L122.25789062499999,145.92522534169257L122.30083333333334,151.57908345998396L122.644375,140.1784775754703L123.03085937499999,140.96214051917195L123.76088541666667,138.15010041424205L124.36208333333335,130.80812101012893L124.53385416666667,113.52353464971695L124.576796875,133.94472736492753L124.66268229166667,148.24493500563713L125.00622395833334,139.5322710584317L125.09210937499999,135.51902968995273L125.26388020833333,144.54902440868318L125.69330729166667,133.43503530829082L126.03684895833334,140.5944322145411L126.07979166666667,108.5074230139809L126.55216145833333,139.78492407154823L126.895703125,96.25419636815786L127.153359375,128.90998245908744L127.19630208333332,136.27911992796828L127.28218749999999,119.02903308187211L127.36807291666668,136.34109542066497L127.58278645833333,134.05158754996955L128.39869791666666,144.88194472183073L128.65635416666666,134.0819541873144L128.699296875,135.3712528454406L129.12872395833332,128.2456430915211L129.21460937499998,110.39973903607044L129.3434375,141.37520449927877L129.38638020833332,115.36022756408367L129.42932291666665,136.47877556431504L129.90169270833334,150.23111796565354L130.03052083333336,140.88189088100833L130.28817708333335,140.97231964208186L130.502890625,139.46392551889377L130.58877604166668,111.95808092025774L130.67466145833333,132.18392160747732L130.760546875,111.82947897644979L131.14703125,123.59806398089442L131.31880208333334,122.28445670594061L131.49057291666665,118.4145413913897L131.57645833333333,139.98950148160966L131.70528645833332,111.516381165811L132.09177083333336,128.0792683006397L132.13471354166668,124.65544465822833L132.306484375,109.82966105480278L132.564140625,144.01366965871836L132.65002604166668,141.1491443711732L133.16533854166667,137.8373558409512L133.20828125,145.9017115088978L133.25122395833333,111.20950033249599L133.29416666666665,130.86330845845598L133.42299479166667,136.07055682316422L133.59476562499998,142.53484150155316L133.85242187499998,115.8218616795327L133.89536458333336,118.9608700482973L134.02419270833335,121.00096880218811L134.367734375,102.78136318176985L134.58244791666667,122.45709557245884L134.71127604166668,142.96404842846096L134.84010416666666,138.17921305900174L134.883046875,142.00127060019543L135.140703125,110.95326196029782L135.22658854166667,142.19675803583647L135.48424479166667,114.66646941272276L135.61307291666665,138.147963328287L135.74190104166667,133.20630235091915L135.78484375,138.725394533681L135.95661458333333,130.0582687679146L136.77252604166668,144.15744903390961L136.944296875,131.3648937179574L137.03018229166668,141.09691822927977L137.24489583333332,151.98230977995055L137.45960937499999,154.9649223129132L138.01786458333333,140.05521540290545L138.18963541666668,129.95628914556332L138.3184635416667,155.37705610133708L138.96260416666667,116.4898806028068L139.43497395833333,146.50745468772948L139.47791666666666,145.73191620303052L139.60674479166664,126.00344547629356L139.86440104166664,129.50494601151772L140.16500000000002,144.87170083874037L140.20794270833335,110.71941883595926L140.25088541666668,134.2094552080546L140.293828125,145.69570348757716L140.33677083333333,128.21557081863284L140.37971354166666,112.29435110092163L140.72325520833334,147.78845226817896L141.7109375,112.08010087481566L141.75388020833333,132.33100963916095L141.79682291666666,144.5606635792979L142.097421875,113.6513005984681L142.56979166666667,135.52225592439729L142.65567708333333,135.19638858363032L143.17098958333332,141.58357332354146L143.21393229166665,152.8240272817867L143.34276041666666,140.94319522274392L143.42864583333332,129.67676654484654L143.47158854166665,119.78875242067235L143.55747395833333,143.23538180999458L144.37338541666668,149.5215053446591L144.58809895833335,153.0696920827031L144.71692708333333,141.80384035914074L144.84575520833334,111.9016924649477L145.23223958333332,152.9345375860908L145.27518229166665,110.11762014084628L145.53283854166665,141.72877153541359L145.61872395833333,155.48452856444885L145.66166666666666,120.64806114243609L145.91932291666666,145.19169855224234L146.04815104166667,125.78224824901137L146.30580729166667,139.74915879006895L146.39169270833335,158.85258191690912L146.477578125,130.82798472366161L146.60640625,160.21940439833062L146.992890625,156.71812758009347L147.20760416666667,156.1048251220158L147.29348958333333,150.50656067500157L147.33643229166665,146.00731181406547L147.37937499999998,144.42910621634553L147.85174479166665,139.2335323459868L148.281171875,139.81927640363574L148.62471354166667,143.44727712044758L149.35473958333333,127.17766529374889L149.65533854166665,147.75191575182336L149.69828124999998,156.8899834371571L149.827109375,137.0554649712784L150.25653645833336,161.08570133229452L150.51419270833333,145.4457174164376L150.68596354166667,145.6353999849941L150.90067708333333,131.70994773400682L150.9865625,149.2585378009826L151.07244791666668,156.28615362729343L151.15833333333333,146.06858083206626L151.24421875,156.46150064681257L151.41598958333333,161.29399950908763L151.45893229166666,143.59820366464555L151.58776041666667,157.75736363232136L151.84541666666667,168.11236341776592L151.93130208333332,153.4154702353158L152.06013020833333,146.21994892294916L152.40367187500001,145.6968868326928L152.48955729166667,144.33536291149045L152.5325,142.06916281847018L152.57544270833333,148.54772417300512L152.918984375,147.8197961955198L153.56312499999999,111.31694335916212L153.64901041666667,139.93753438043805L153.73489583333333,129.06742034506584L153.82078124999998,139.26989813095759L153.90666666666667,147.1005696313722L154.29315104166668,150.1487901144262L154.46492187500002,149.13420414179564L155.02317708333334,160.13861901685596L155.19494791666668,151.24233640890034L156.01085937500002,145.86896640674343L156.655,137.60015107451807L156.69794270833333,117.75490596784013L156.95559895833333,139.8225261872368L156.99854166666665,145.7947630145188L157.08442708333334,128.45976379726613L157.21325520833332,157.33441489376128L157.42796875,150.0126936515527L157.556796875,136.51444664916824L157.59973958333333,147.89802649351103L157.685625,118.07624598326427L158.37270833333335,142.27291012076395L158.67330729166667,126.12766727698701L158.84507812500001,119.59203454160264L159.14567708333334,144.51983522916478L159.18861979166667,154.82415134246858L159.48921875,128.30981454306414L159.618046875,156.66093845346143L160.64867187500002,160.58097226039638L160.7775,145.70448143567356L161.07809895833333,113.53172975618924L161.20692708333334,159.6461355063532L161.24986979166667,141.31037367135286L161.33575520833332,151.72137923831386L161.37869791666665,152.33175571369273L161.67929687499998,137.99425209632943L161.76518229166666,144.55763162539472L162.23755208333336,142.65069157710033L162.452265625,140.41815500333905L162.83875,134.54743270256688L162.92463541666666,152.5691076623542L163.01052083333335,121.0044540773545L163.18229166666666,114.44672045856714L163.31111979166667,143.02607690675984L163.869375,149.19081042680355L163.91231770833332,152.66394011569875L163.95526041666665,116.55846752119916L164.21291666666667,144.0479866670711L164.55645833333335,131.49736949801445L164.81411458333335,137.69046797709805L164.85705729166668,139.58875371036785L164.9,140.74619475379586L165.07177083333335,154.96458673743265L165.286484375,154.83094527412737L165.58708333333334,133.6495798988534L165.930625,113.3334576327886L166.10239583333336,140.60080226138234L166.27416666666667,145.51912013734025L166.36005208333336,124.64362298165048L166.61770833333333,131.2302102044757L166.74653645833334,122.12050747818179L166.832421875,142.84776269351798L166.91830729166668,109.5191654259605L167.00419270833333,142.68850563519766L167.13302083333332,131.6735407380121L167.347734375,125.90317316779068L167.86304687499998,140.86955112298685L168.07776041666665,149.34181350576026L168.29247395833335,133.48922191746533L169.06544270833334,148.2458357608744L169.23721354166668,152.3113385949816L169.36604166666666,139.79201236766363L169.58075520833333,139.8235741247024L169.88135416666665,155.98331147432327L170.053125,153.88505219109356L170.13901041666668,113.73752583510108L170.39666666666668,147.33201662903386L170.439609375,143.7073598924492L170.697265625,112.83418019062705L170.99786458333332,137.34839292934964L171.25552083333332,156.4797747922795L171.38434895833333,133.6089929275747L171.64200520833333,147.52270003674286L172.11437500000002,118.29870309042079L172.20026041666668,138.9102554124381L172.500859375,123.90052934736013L172.62968750000002,144.89686899978133L172.758515625,145.50018072820137L172.84440104166666,150.85576522988933L173.05911458333333,126.13287164058003L173.74619791666666,136.23482985182534L173.83208333333332,117.13975490097488L173.87502604166664,127.05951917544007L174.04679687499998,116.76203820481896L174.0897395833333,124.93409005286438L174.26151041666668,110.62005316998277L174.34739583333334,136.87789255646723L174.60505208333333,149.89709084214908L174.64799479166666,126.06647479374493L174.94859375000001,147.5823618248105L175.46390625,118.82023448550275L175.67861979166665,138.55178426445593L175.80744791666666,121.1491165459156L176.19393229166667,138.9928540789655L176.23687500000003,120.65583236409086L176.49453125000002,141.4681530201009L176.53747395833335,138.73779905188294L177.138671875,136.8242181414472L177.31044270833334,141.06912433728576L177.396328125,146.36111434176564L177.48221354166665,131.520029673885L177.61104166666667,138.57380861310023L177.73986979166665,142.30304126654352L178.12635416666666,142.04418305068145L178.38401041666668,141.9275440783905L178.46989583333334,129.14165317373616L178.942265625,149.31898259850485L178.98520833333333,151.89609631789583L179.24286458333333,122.4916775088225L179.54346354166665,145.06479803499366L180.57408854166667,149.5575178922819L180.70291666666668,147.67994364217986L180.83174479166667,121.80198158696294L180.91763020833335,141.16024779847692L181.81942708333332,136.19214111832636L181.94825520833334,153.20380452913898L182.12002604166665,154.46533284442765L182.16296874999998,150.91720497927497L182.20591145833336,147.98015417690786L182.46356770833336,122.69447107027683L182.59239583333334,151.67780741144503L182.67828125,139.44926028166498L183.064765625,142.88686018064618L183.23653645833332,126.04823597201279L183.36536458333333,127.398014751396L183.580078125,129.0327147756304L183.92361979166665,150.56008202050413L184.095390625,128.41712804936935L184.18127604166665,111.54931466121758L184.26716145833333,141.75721302921218L184.82541666666668,151.7903076194759L184.91130208333334,159.956654684352L185.04013020833332,146.32158708253075L185.55544270833332,158.8757130759103L185.72721354166666,163.17660150410873L185.94192708333333,153.47762234668645L186.02781249999998,140.46779073801423L186.45723958333335,152.68954982342464L186.543125,150.06519649603536L186.6290104166667,142.27901523959423L187.187265625,140.06249797956218L187.444921875,154.03471296812805L187.87434895833331,157.56942958863718L188.08906249999998,147.38685084001293L188.38966145833334,141.23336792950118L188.51848958333335,162.66871684523565L188.604375,126.47371035761066L189.46322916666665,148.10830279945264L189.506171875,151.04724930892033L189.54911458333333,144.22116127690035L189.763828125,129.51356500280755L189.84971354166666,150.41103940882851L190.10736979166666,154.02904939598272L190.27914062500003,149.7778261389051L190.62268229166668,135.92817273549736L190.665625,132.4533533946212L190.88033854166667,140.54275947782608L190.92328125,116.72942262302551L191.09505208333334,129.57044210311557L191.567421875,142.625641161842L191.825078125,149.59335382123078L192.082734375,132.18269705133778L192.21156249999999,152.32928893954625L192.68393229166668,146.063588410882L192.85570312500002,155.9763526985688L193.02747395833333,153.75236446862775L193.32807291666666,144.34739064318794L193.49984375,139.733863612903L193.71455729166667,147.49351085722446L193.92927083333333,152.1177998520434L194.10104166666665,140.10007654609424L194.14398437499997,152.7122983086322L194.22986979166666,119.63328088926417L194.61635416666667,116.55960965529084L194.659296875,142.97463966161013L195.13166666666666,138.61694478057325L195.21755208333335,106.70112028611558L195.26049479166667,134.87681475494588L195.56109375,139.8913544844836L195.64697916666665,142.92383824368673L195.68992187499998,147.09253348170648L195.73286458333334,143.72174842708876L195.77580729166667,120.92657701671124L195.94757812499998,160.43191198685338L196.03346354166666,129.79299929418733L196.978203125,171.1035066326814L197.10703125,168.0992171011333L197.70822916666665,164.03841232375373L197.92294270833332,163.68387388491203L197.96588541666665,148.76786757553262L198.05177083333334,151.6718553621322L198.39531250000002,109.57781460029739L198.61002604166669,137.4488477438156L198.910625,159.42300136094647L200.1130208333333,162.2530094723084L200.4136197916667,135.10728446261157L200.88598958333333,157.1074598977076L201.100703125,151.08430979400873L201.4871875,138.49642019745494L201.53013020833333,150.5042410830834L201.95955729166667,137.39743993511158L202.0025,149.41564011148046L202.04544270833333,144.77632675479563L202.13132812499998,139.53480848004776L202.21721354166667,153.74391620872277L202.30309895833335,155.35839928207653L202.34604166666668,134.150417472635L202.388984375,151.77464154309462L202.4748697916667,151.0766327689801L203.24783854166668,158.7903827072254L203.46255208333332,144.46789756443883L203.677265625,139.28401585029704L203.80609375,155.26699911829616L203.934921875,149.68168082008404L204.14963541666665,156.2403034195304L204.62200520833335,163.07145452020424L205.00848958333333,165.2107835324215L205.13731770833334,163.72869970436605L205.18026041666667,165.90510686353912L205.56674479166665,158.9848222054009L205.82440104166665,163.56051751572105L206.46854166666668,151.243655161666L206.511484375,139.03848056974155L206.769140625,147.89108537962395L206.94091145833335,134.34100668371786L207.06973958333333,161.465042920251L207.32739583333333,165.61918477953543L207.41328125,157.07429091073573L207.799765625,147.4150391803788L207.97153645833333,142.78023548716945L208.22919270833333,161.01282258012463L208.44390625000003,161.10547084920108L208.70156250000002,157.2113293398704L208.87333333333333,164.57467371624494L209.088046875,165.94011857200948L209.38864583333333,142.20191530111643L209.56041666666667,146.20599016041626L209.94690104166665,166.41250287741423L210.07572916666666,158.4571974660669L210.59104166666668,136.93531717466456L210.891640625,161.9565197043121L211.02046875,159.05295580253005L211.10635416666668,169.11660542339087L211.149296875,151.43566909671893L211.32106770833335,161.603564946247L211.36401041666667,137.5607180119093L211.406953125,146.61998433220597L211.922265625,158.75221541178013L212.179921875,122.05391046351619L212.22286458333332,149.66334191443664L212.30874999999997,162.37228595013065L212.52346354166667,134.49384659688386L212.56640625,138.55957903526723L212.695234375,153.59036982086087L212.952890625,135.58272427107605L213.12466145833335,150.747692263286L213.42526041666667,160.61757942422162L213.85468749999998,149.4096704003002L214.11234374999998,154.77732384470957L214.28411458333332,158.83922954515685L214.41294270833336,149.8721051870712L214.756484375,120.9273894626115L214.84236979166667,146.0082773294832L215.400625,140.8003460392356L215.57239583333333,134.19788668490946L215.61533854166666,149.89800925925374L216.43125,150.67013900354505L216.47419270833333,163.48800966276656L216.60302083333335,136.85168234524983L216.90361979166667,166.66645109413992L216.98950520833333,119.14955766499043L217.333046875,143.08140565002603L217.41893229166666,143.4738700054586L217.461875,153.96644396334887L218.0201302083333,140.52807657872992L218.106015625,149.203103086512L218.14895833333333,124.10897470638156L218.53544270833333,112.9493120169001L218.66427083333335,155.14654518264743L218.75015625,121.60033015960029L219.136640625,112.23738569127661L219.26546875,135.8064589199743L219.35135416666668,128.95360138426932L219.43723958333334,142.54465561253684L219.95255208333333,128.7368667221495L220.68257812500002,107.22711424635989L220.89729166666666,121.16687260993889L221.32671875,141.5054431094655L221.584375,152.96873684866088L221.88497395833332,122.19766628955091L222.14263020833332,139.0049406835543L222.228515625,80.42962238884397L222.4002864583333,135.60255854816307L222.70088541666667,143.87611903542918L222.74382812500002,148.06310019349414L222.78677083333335,146.6140087337366L223.21619791666666,127.6547476558813L223.90328125,153.03129518298167L224.11799479166666,158.87546580976675L224.33270833333333,163.58754017283874L224.54742187500003,177.10097049389566L224.59036458333335,173.56592418519514L224.67625,154.89148426827575L224.80507812500002,151.4219929240644L225.23450520833333,153.63344711544258L225.40627604166667,153.90691169564212L225.44921875,159.25678552687168L225.706875,169.00000766212386L225.87864583333334,162.06551108802003L225.92158854166667,167.24344075284898L226.26513020833332,157.14874156910392L226.39395833333333,149.72431656798082L226.43690104166666,151.82411243367406L226.52278645833334,163.44665734390063L226.65161458333336,141.8995676804334L226.69455729166668,156.5200085262103L226.7375,161.22421158371228L226.78044270833334,170.29052498910042L226.95221354166668,160.6006593552551L227.03809895833334,129.1569836746369L227.16692708333335,165.73757816398782L227.20986979166668,144.66837742126415L227.2528125,139.3394623393459L227.29575520833333,144.58219339565505L227.381640625,160.35109128164393L227.51046875,149.9634759144059L227.55341145833333,150.41899313644637L227.81106770833333,145.19846304745545L228.06872395833332,150.53051016719212L228.15460937499998,165.24653115203338L228.2834375,155.18531298158425L228.79875,149.17852365438426L229.14229166666667,157.64707704500427L229.185234375,168.60000168931273L229.22817708333335,140.99487384674805L229.48583333333335,143.46044109894763L229.78643229166667,153.1580838417368L230.00114583333334,156.6723244706435L230.30174479166666,156.45577820177587L230.47351562499998,149.58312760000783L230.86,144.26758843899836L231.11765625,154.00193842952805L231.20354166666667,164.63326401769052L231.33236979166668,154.64703813620974L231.63296875,146.6690254506788L231.890625,159.2603179003511L232.01945312499998,142.77767451639684L232.10533854166667,163.41881635359357L232.14828125,166.721597331443L232.534765625,151.9388086005513L232.96419270833334,153.4435879282121L233.00713541666667,137.43653742223978L233.35067708333332,154.98456230945885L233.86598958333332,152.86432577589792L233.99481770833333,142.23385384465965L234.1236458333333,152.33403998187612L234.6819010416667,155.96225852838586L235.02544270833334,152.51820616051555L235.368984375,140.65105616141642L235.41192708333332,151.37192152999341L235.54075520833334,147.38632687128018L235.626640625,158.2734904959798L235.66958333333332,164.77205685898662L236.18489583333331,140.77249327435027" style="fill: none;" fill="none"></path></g></g></g></g></g></g><g transform="translate(72, 177)" clip-path="url(#clip_1)"><clipPath id="clip_1"><rect width="257" height="23"></rect></clipPath><g><g><line x1="0" y1="0" x2="0" y2="5" style="visibility: inherit;" fill="rgb(0, 0, 0)" stroke="rgb(204, 204, 204)" stroke-width="1px"></line><line x1="21.471354166666664" y1="0" x2="21.471354166666664" y2="5" style="visibility: inherit;" fill="rgb(0, 0, 0)" stroke="rgb(204, 204, 204)" stroke-width="1px"></line><line x1="42.94270833333333" y1="0" x2="42.94270833333333" y2="5" style="visibility: inherit;" fill="rgb(0, 0, 0)" stroke="rgb(204, 204, 204)" stroke-width="1px"></line><line x1="64.4140625" y1="0" x2="64.4140625" y2="5" style="visibility: inherit;" fill="rgb(0, 0, 0)" stroke="rgb(204, 204, 204)" stroke-width="1px"></line><line x1="85.88541666666666" y1="0" x2="85.88541666666666" y2="5" style="visibility: inherit;" fill="rgb(0, 0, 0)" stroke="rgb(204, 204, 204)" stroke-width="1px"></line><line x1="107.35677083333334" y1="0" x2="107.35677083333334" y2="5" style="visibility: inherit;" fill="rgb(0, 0, 0)" stroke="rgb(204, 204, 204)" stroke-width="1px"></line><line x1="128.828125" y1="0" x2="128.828125" y2="5" style="visibility: inherit;" fill="rgb(0, 0, 0)" stroke="rgb(204, 204, 204)" stroke-width="1px"></line><line x1="150.29947916666669" y1="0" x2="150.29947916666669" y2="5" style="visibility: inherit;" fill="rgb(0, 0, 0)" stroke="rgb(204, 204, 204)" stroke-width="1px"></line><line x1="171.77083333333331" y1="0" x2="171.77083333333331" y2="5" style="visibility: inherit;" fill="rgb(0, 0, 0)" stroke="rgb(204, 204, 204)" stroke-width="1px"></line><line x1="193.2421875" y1="0" x2="193.2421875" y2="5" style="visibility: inherit;" fill="rgb(0, 0, 0)" stroke="rgb(204, 204, 204)" stroke-width="1px"></line><line x1="214.71354166666669" y1="0" x2="214.71354166666669" y2="5" style="visibility: inherit;" fill="rgb(0, 0, 0)" stroke="rgb(204, 204, 204)" stroke-width="1px"></line><line x1="236.18489583333331" y1="0" x2="236.18489583333331" y2="5" style="visibility: inherit;" fill="rgb(0, 0, 0)" stroke="rgb(204, 204, 204)" stroke-width="1px"></line><line x1="257.65625" y1="0" x2="257.65625" y2="5" style="visibility: inherit;" fill="rgb(0, 0, 0)" stroke="rgb(204, 204, 204)" stroke-width="1px"></line></g><g transform="translate(0, 8)"><text x="0" y="0" dx="0em" dy="0.95em" style="text-anchor: middle; visibility: hidden; font-family: Roboto, sans-serif; font-size: 12px; font-weight: 200;" fill="rgb(255, 255, 255)" stroke="none" stroke-width="1px">-500</text><text x="21.471354166666664" y="0" dx="0em" dy="0.95em" style="text-anchor: middle; visibility: inherit; font-family: Roboto, sans-serif; font-size: 12px; font-weight: 200;" fill="rgb(255, 255, 255)" stroke="none" stroke-width="1px">0</text><text x="42.94270833333333" y="0" dx="0em" dy="0.95em" style="text-anchor: middle; visibility: hidden; font-family: Roboto, sans-serif; font-size: 12px; font-weight: 200;" fill="rgb(255, 255, 255)" stroke="none" stroke-width="1px">500</text><text x="64.4140625" y="0" dx="0em" dy="0.95em" style="text-anchor: middle; visibility: inherit; font-family: Roboto, sans-serif; font-size: 12px; font-weight: 200;" fill="rgb(255, 255, 255)" stroke="none" stroke-width="1px">1k</text><text x="85.88541666666666" y="0" dx="0em" dy="0.95em" style="text-anchor: middle; visibility: hidden; font-family: Roboto, sans-serif; font-size: 12px; font-weight: 200;" fill="rgb(255, 255, 255)" stroke="none" stroke-width="1px">1.5k</text><text x="107.35677083333334" y="0" dx="0em" dy="0.95em" style="text-anchor: middle; visibility: inherit; font-family: Roboto, sans-serif; font-size: 12px; font-weight: 200;" fill="rgb(255, 255, 255)" stroke="none" stroke-width="1px">2k</text><text x="128.828125" y="0" dx="0em" dy="0.95em" style="text-anchor: middle; visibility: hidden; font-family: Roboto, sans-serif; font-size: 12px; font-weight: 200;" fill="rgb(255, 255, 255)" stroke="none" stroke-width="1px">2.5k</text><text x="150.29947916666669" y="0" dx="0em" dy="0.95em" style="text-anchor: middle; visibility: inherit; font-family: Roboto, sans-serif; font-size: 12px; font-weight: 200;" fill="rgb(255, 255, 255)" stroke="none" stroke-width="1px">3k</text><text x="171.77083333333331" y="0" dx="0em" dy="0.95em" style="text-anchor: middle; visibility: hidden; font-family: Roboto, sans-serif; font-size: 12px; font-weight: 200;" fill="rgb(255, 255, 255)" stroke="none" stroke-width="1px">3.5k</text><text x="193.2421875" y="0" dx="0em" dy="0.95em" style="text-anchor: middle; visibility: inherit; font-family: Roboto, sans-serif; font-size: 12px; font-weight: 200;" fill="rgb(255, 255, 255)" stroke="none" stroke-width="1px">4k</text><text x="214.71354166666669" y="0" dx="0em" dy="0.95em" style="text-anchor: middle; visibility: hidden; font-family: Roboto, sans-serif; font-size: 12px; font-weight: 200;" fill="rgb(255, 255, 255)" stroke="none" stroke-width="1px">4.5k</text><text x="236.18489583333331" y="0" dx="0em" dy="0.95em" style="text-anchor: middle; visibility: inherit; font-family: Roboto, sans-serif; font-size: 12px; font-weight: 200;" fill="rgb(255, 255, 255)" stroke="none" stroke-width="1px">5k</text><text x="257.65625" y="0" dx="0em" dy="0.95em" style="text-anchor: middle; visibility: hidden; font-family: Roboto, sans-serif; font-size: 12px; font-weight: 200;" fill="rgb(255, 255, 255)" stroke="none" stroke-width="1px">5.5k</text></g><line x1="0" y1="0" x2="257.65625" y2="0" fill="rgb(0, 0, 0)" stroke="rgb(204, 204, 204)" stroke-width="1px"></line></g></g></g></g></svg>