<svg viewBox="0 0 330 200" xmlns="http://www.w3.org/2000/svg"><g><g><g><g><g><line x1="51.5625" y1="177" x2="46.5625" y2="177" style="visibility: inherit;" fill="rgb(0, 0, 0)" stroke="rgb(204, 204, 204)" stroke-width="1px"></line><line x1="51.5625" y1="160.9090909090909" x2="46.5625" y2="160.9090909090909" style="visibility: inherit;" fill="rgb(0, 0, 0)" stroke="rgb(204, 204, 204)" stroke-width="1px"></line><line x1="51.5625" y1="144.8181818181818" x2="46.5625" y2="144.8181818181818" style="visibility: inherit;" fill="rgb(0, 0, 0)" stroke="rgb(204, 204, 204)" stroke-width="1px"></line><line x1="51.5625" y1="128.72727272727272" x2="46.5625" y2="128.72727272727272" style="visibility: inherit;" fill="rgb(0, 0, 0)" stroke="rgb(204, 204, 204)" stroke-width="1px"></line><line x1="51.5625" y1="112.63636363636364" x2="46.5625" y2="112.63636363636364" style="visibility: inherit;" fill="rgb(0, 0, 0)" stroke="rgb(204, 204, 204)" stroke-width="1px"></line><line x1="51.5625" y1="96.54545454545453" x2="46.5625" y2="96.54545454545453" style="visibility: inherit;" fill="rgb(0, 0, 0)" stroke="rgb(204, 204, 204)" stroke-width="1px"></line><line x1="51.5625" y1="80.45454545454547" x2="46.5625" y2="80.45454545454547" style="visibility: inherit;" fill="rgb(0, 0, 0)" stroke="rgb(204, 204, 204)" stroke-width="1px"></line><line x1="51.5625" y1="64.36363636363639" x2="46.5625" y2="64.36363636363639" style="visibility: inherit;" fill="rgb(0, 0, 0)" stroke="rgb(204, 204, 204)" stroke-width="1px"></line><line x1="51.5625" y1="48.27272727272729" x2="46.5625" y2="48.27272727272729" style="visibility: inherit;" fill="rgb(0, 0, 0)" stroke="rgb(204, 204, 204)" stroke-width="1px"></line><line x1="51.5625" y1="32.181818181818194" x2="46.5625" y2="32.181818181818194" style="visibility: inherit;" fill="rgb(0, 0, 0)" stroke="rgb(204, 204, 204)" stroke-width="1px"></line><line x1="51.5625" y1="16.090909090909097" x2="46.5625" y2="16.090909090909097" style="visibility: inherit;" fill="rgb(0, 0, 0)" stroke="rgb(204, 204, 204)" stroke-width="1px"></line><line x1="51.5625" y1="0" x2="46.5625" y2="0" style="visibility: inherit;" fill="rgb(0, 0, 0)" stroke="rgb(204, 204, 204)" stroke-width="1px"></line></g><g transform="translate(41.5625, 0)"><text x="0" y="177" dx="0em" dy="0.3em" style="text-anchor: end; visibility: hidden; font-family: Roboto, sans-serif; font-size: 12px; font-weight: 200;" fill="rgb(255, 255, 255)" stroke="none" stroke-width="1px">-0.2</text><text x="0" y="160.9090909090909" dx="0em" dy="0.3em" style="text-anchor: end; visibility: inherit; font-family: Roboto, sans-serif; font-size: 12px; font-weight: 200;" fill="rgb(255, 255, 255)" stroke="none" stroke-width="1px">0</text><text x="0" y="144.8181818181818" dx="0em" dy="0.3em" style="text-anchor: end; visibility: hidden; font-family: Roboto, sans-serif; font-size: 12px; font-weight: 200;" fill="rgb(255, 255, 255)" stroke="none" stroke-width="1px">0.2</text><text x="0" y="128.72727272727272" dx="0em" dy="0.3em" style="text-anchor: end; visibility: inherit; font-family: Roboto, sans-serif; font-size: 12px; font-weight: 200;" fill="rgb(255, 255, 255)" stroke="none" stroke-width="1px">0.4</text><text x="0" y="112.63636363636364" dx="0em" dy="0.3em" style="text-anchor: end; visibility: hidden; font-family: Roboto, sans-serif; font-size: 12px; font-weight: 200;" fill="rgb(255, 255, 255)" stroke="none" stroke-width="1px">0.6</text><text x="0" y="96.54545454545453" dx="0em" dy="0.3em" style="text-anchor: end; visibility: inherit; font-family: Roboto, sans-serif; font-size: 12px; font-weight: 200;" fill="rgb(255, 255, 255)" stroke="none" stroke-width="1px">0.8</text><text x="0" y="80.45454545454547" dx="0em" dy="0.3em" style="text-anchor: end; visibility: hidden; font-family: Roboto, sans-serif; font-size: 12px; font-weight: 200;" fill="rgb(255, 255, 255)" stroke="none" stroke-width="1px">1</text><text x="0" y="64.36363636363639" dx="0em" dy="0.3em" style="text-anchor: end; visibility: inherit; font-family: Roboto, sans-serif; font-size: 12px; font-weight: 200;" fill="rgb(255, 255, 255)" stroke="none" stroke-width="1px">1.2</text><text x="0" y="48.27272727272729" dx="0em" dy="0.3em" style="text-anchor: end; visibility: hidden; font-family: Roboto, sans-serif; font-size: 12px; font-weight: 200;" fill="rgb(255, 255, 255)" stroke="none" stroke-width="1px">1.4</text><text x="0" y="32.181818181818194" dx="0em" dy="0.3em" style="text-anchor: end; visibility: inherit; font-family: Roboto, sans-serif; font-size: 12px; font-weight: 200;" fill="rgb(255, 255, 255)" stroke="none" stroke-width="1px">1.6</text><text x="0" y="16.090909090909097" dx="0em" dy="0.3em" style="text-anchor: end; visibility: hidden; font-family: Roboto, sans-serif; font-size: 12px; font-weight: 200;" fill="rgb(255, 255, 255)" stroke="none" stroke-width="1px">1.8</text><text x="0" y="0" dx="0em" dy="0.3em" style="text-anchor: end; visibility: hidden; font-family: Roboto, sans-serif; font-size: 12px; font-weight: 200;" fill="rgb(255, 255, 255)" stroke="none" stroke-width="1px">2</text></g><line x1="51.5625" y1="0" x2="51.5625" y2="177" fill="rgb(0, 0, 0)" stroke="rgb(204, 204, 204)" stroke-width="1px"></line></g></g><g transform="translate(51, 0)" clip-path="url(#clip_0)"><clipPath id="clip_0"><rect width="278" height="177"></rect></clipPath><g><g><g><line x1="0" y1="0" x2="0" y2="177" fill="rgb(0, 0, 0)" stroke="rgb(189, 189, 189)" stroke-width="1px" opacity="0.25"></line><line x1="21.418269230769234" y1="0" x2="21.418269230769234" y2="177" fill="rgb(0, 0, 0)" stroke="rgb(189, 189, 189)" stroke-width="1px" opacity="0.25"></line><line x1="42.83653846153847" y1="0" x2="42.83653846153847" y2="177" fill="rgb(0, 0, 0)" stroke="rgb(189, 189, 189)" stroke-width="1px" opacity="0.25"></line><line x1="64.2548076923077" y1="0" x2="64.2548076923077" y2="177" fill="rgb(0, 0, 0)" stroke="rgb(189, 189, 189)" stroke-width="1px" opacity="0.25"></line><line x1="85.67307692307693" y1="0" x2="85.67307692307693" y2="177" fill="rgb(0, 0, 0)" stroke="rgb(189, 189, 189)" stroke-width="1px" opacity="0.25"></line><line x1="107.09134615384616" y1="0" x2="107.09134615384616" y2="177" fill="rgb(0, 0, 0)" stroke="rgb(189, 189, 189)" stroke-width="1px" opacity="0.25"></line><line x1="128.5096153846154" y1="0" x2="128.5096153846154" y2="177" fill="rgb(0, 0, 0)" stroke="rgb(189, 189, 189)" stroke-width="1px" opacity="0.25"></line><line x1="149.9278846153846" y1="0" x2="149.9278846153846" y2="177" fill="rgb(0, 0, 0)" stroke="rgb(189, 189, 189)" stroke-width="1px" opacity="0.25"></line><line x1="171.34615384615387" y1="0" x2="171.34615384615387" y2="177" fill="rgb(0, 0, 0)" stroke="rgb(189, 189, 189)" stroke-width="1px" opacity="0.25"></line><line x1="192.76442307692307" y1="0" x2="192.76442307692307" y2="177" fill="rgb(0, 0, 0)" stroke="rgb(189, 189, 189)" stroke-width="1px" opacity="0.25"></line><line x1="214.18269230769232" y1="0" x2="214.18269230769232" y2="177" fill="rgb(0, 0, 0)" stroke="rgb(189, 189, 189)" stroke-width="1px" opacity="0.25"></line><line x1="235.60096153846155" y1="0" x2="235.60096153846155" y2="177" fill="rgb(0, 0, 0)" stroke="rgb(189, 189, 189)" stroke-width="1px" opacity="0.25"></line><line x1="257.0192307692308" y1="0" x2="257.0192307692308" y2="177" fill="rgb(0, 0, 0)" stroke="rgb(189, 189, 189)" stroke-width="1px" opacity="0.25"></line><line x1="278.4375" y1="0" x2="278.4375" y2="177" fill="rgb(0, 0, 0)" stroke="rgb(189, 189, 189)" stroke-width="1px" opacity="0.25"></line></g><g><line x1="0" y1="177" x2="278.4375" y2="177" fill="rgb(0, 0, 0)" stroke="rgb(189, 189, 189)" stroke-width="1px" opacity="0.25"></line><line x1="0" y1="160.9090909090909" x2="278.4375" y2="160.9090909090909" fill="rgb(0, 0, 0)" stroke="rgb(189, 189, 189)" stroke-width="1px" opacity="0.25"></line><line x1="0" y1="144.8181818181818" x2="278.4375" y2="144.8181818181818" fill="rgb(0, 0, 0)" stroke="rgb(189, 189, 189)" stroke-width="1px" opacity="0.25"></line><line x1="0" y1="128.72727272727272" x2="278.4375" y2="128.72727272727272" fill="rgb(0, 0, 0)" stroke="rgb(189, 189, 189)" stroke-width="1px" opacity="0.25"></line><line x1="0" y1="112.63636363636364" x2="278.4375" y2="112.63636363636364" fill="rgb(0, 0, 0)" stroke="rgb(189, 189, 189)" stroke-width="1px" opacity="0.25"></line><line x1="0" y1="96.54545454545453" x2="278.4375" y2="96.54545454545453" fill="rgb(0, 0, 0)" stroke="rgb(189, 189, 189)" stroke-width="1px" opacity="0.25"></line><line x1="0" y1="80.45454545454547" x2="278.4375" y2="80.45454545454547" fill="rgb(0, 0, 0)" stroke="rgb(189, 189, 189)" stroke-width="1px" opacity="0.25"></line><line x1="0" y1="64.36363636363639" x2="278.4375" y2="64.36363636363639" fill="rgb(0, 0, 0)" stroke="rgb(189, 189, 189)" stroke-width="1px" opacity="0.25"></line><line x1="0" y1="48.27272727272729" x2="278.4375" y2="48.27272727272729" fill="rgb(0, 0, 0)" stroke="rgb(189, 189, 189)" stroke-width="1px" opacity="0.25"></line><line x1="0" y1="32.181818181818194" x2="278.4375" y2="32.181818181818194" fill="rgb(0, 0, 0)" stroke="rgb(189, 189, 189)" stroke-width="1px" opacity="0.25"></line><line x1="0" y1="16.090909090909097" x2="278.4375" y2="16.090909090909097" fill="rgb(0, 0, 0)" stroke="rgb(189, 189, 189)" stroke-width="1px" opacity="0.25"></line><line x1="0" y1="0" x2="278.4375" y2="0" fill="rgb(0, 0, 0)" stroke="rgb(189, 189, 189)" stroke-width="1px" opacity="0.25"></line></g></g></g><g><g><line x1="0" y1="160.9090909090909" x2="278.4375" y2="160.9090909090909" fill="rgb(0, 0, 0)" stroke="rgb(153, 153, 153)" stroke-width="1.5px"></line></g></g><g><g><line x1="21.418269230769234" y1="0" x2="21.418269230769234" y2="177" fill="rgb(0, 0, 0)" stroke="rgb(153, 153, 153)" stroke-width="1.5px"></line></g></g><g><g><g><g><g><path stroke="rgb(238, 51, 119)" stroke-width="2px" d="M21.717375360576924,158.1233575669202L21.97143887019231,158.60512975088616L22.09793516826923,159.40169596702347L22.107187860576925,159.71256536002727L22.18572865384615,159.40653161246655L22.59136925480769,159.78996407366384L22.716901730769234,160.58335540212175L22.805851802884614,161.21760939687493L22.81930247596154,162.77850960598866L22.917483822115383,163.69826882452952L22.942350432692308,163.79160570559256L23.07827076923077,164.37649318674949L23.2676296875,164.35297177148064L23.685971322115385,164.90870661920385L24.33800769230769,165.7177205078776L24.346575,166.5820288838953L24.44297862980769,166.33285777892016L24.45797141826923,166.6153898345852L24.54818516826923,166.75136103923697L25.074624807692306,167.80248062128945L25.162696730769234,168.64815307714292L25.167280240384617,168.52286872149256L25.452614423076923,169.22516143859667L25.53603858173077,169.5892724937373L25.77900742788462,169.83473720190753L26.11073358173077,170.0955582382595L26.33468300480769,170.2274935500114L26.50193826923077,169.81162150483715L26.59936997596154,170.03485109735615L26.701963485576922,170.45073583913114L26.7041053125,170.02099280591784L26.728950504807692,170.27531854475623L27.11139512019231,169.55385318375752L27.221442187500003,169.09140401240523L27.83548254807692,168.3629938022836L28.231870456730768,168.44062456963135L28.26399786057692,168.1401799609372L28.385717884615385,167.63001652401533L29.031564375,167.08903184940013L29.035848028846154,166.36201707028292L29.138827067307695,165.40966757867494L29.28738418269231,164.858286981199L29.43827588942308,164.12754812830195L29.453268677884616,163.45985994935083L29.67586875,162.77594273527356L29.73296985576923,161.74437366563575L29.896519759615387,161.140860714742L30.479118100961536,160.17122178224952L30.649671778846155,158.84525938985468L30.84076557692308,158.02684696925706L30.8750990625,156.9758338032549L31.217384423076926,156.11530651509688L31.452407091346153,155.51462798850437L31.830546634615384,154.30737188479256L32.11110454326923,153.7126329399908L32.16923372596154,153.12325375726698L32.611628076923076,152.13787801654053L32.641399471153846,151.26200498237534L33.037230504807695,150.29375884869145L33.3994134375,149.233724766406L33.57572862980769,148.21128867495037L33.69468569711538,147.34942327813076L33.70914302884616,146.23363520435717L33.78457817307692,145.13316575835046L33.95793764423077,144.3789170295275L34.394227788461535,143.55914188245646L34.43312336538462,143.05062906909578L34.5760903125,142.14511221805037L35.170939903846154,140.88671673774718L35.43136463942308,140.10043947950592L35.4570665625,139.4524063755056L35.75413795673077,138.51193334044564L35.987854110576926,137.79599284585285L36.381500480769226,137.12999336998487L36.85794987980769,136.10175522836613L37.02057879807692,135.46872287479903L37.02559067307693,134.76396529848716L37.12552831730769,133.949667086596L37.70724850961539,132.6904416424636L37.728666778846154,132.0552530076652L37.799796850961535,131.2096061339473L38.13043067307692,130.3493799471673L38.28723382211539,129.79281972915584L38.529688629807694,129.05650719435877L38.615875745192305,128.73805982589113L38.91301139423077,127.76003565244557L38.942996971153846,127.28839057729314L39.19858117788461,126.71222299055394L39.219999447115384,126.18017177963864L39.41649064903846,125.6483847302491L39.99904615384616,124.87990955987675L40.11924548076923,124.27650804440694L40.241458124999994,123.8351675356881L40.804565841346154,123.28923810653012L41.2446684375,122.70222213425681L41.42700216346154,121.67888589082402L41.454203365384615,121.193441933682L41.72985649038462,120.75996683009252L42.035923557692314,119.97735410950766L42.17064447115384,119.52891955265845L42.948855865384616,118.80986847871856L42.963848653846156,118.28813366993258L43.21075846153846,118.02343394313657L43.378891874999994,117.23746269126508L43.469962355769226,116.85289181269638L43.649019086538466,116.41200288394599L44.0153357451923,115.87317509476158L44.27428262019231,115.21378987223028L44.28070810096154,114.68367002749517L44.409453317307694,114.11476007797482L44.42658793269231,113.5692961352762L44.52320574519231,112.78266759652114L44.697507620192305,112.43071862709103L45.36537209134615,111.56024038207285L45.477218293269225,110.8972588402933L45.60431430288461,110.07535746717771L45.67553004807692,109.85848306237656L45.92627372596154,109.13754664041299L46.08213447115385,108.75531153871276L46.52230132211538,108.23937171303962L46.53301045673077,107.7853773042076L46.93310372596154,107.19338205304174L47.19980401442308,106.48195871846319L48.003567403846155,106.09481776201235L48.43880805288461,105.48720280007149L48.5683457451923,105.15299627794292L48.76873507211538,104.82120237338394L48.82656439903847,104.45911253645312L49.54671086538462,103.89148420653929L49.852221057692304,103.18795787641308L49.96051182692308,102.75918244662336L50.009731009615386,101.90577766311493L50.40903180288461,101.73679730755536L50.977986706730775,100.95430412978347L51.27413711538461,100.25439063122404L51.42663519230769,99.74959079445138L51.519590480769224,99.24852823312624L51.749751201923075,99.02917145510361L52.152286153846156,98.43324850581752L52.21647670673077,97.765037138128L52.25627185096154,97.58927367967912L52.45002151442307,97.32473363686763L52.51427632211538,96.5434708798077L52.64848319711538,96.18166630839667L52.68808557692308,95.91716815981114L53.90890550480769,95.53393456692055L53.981085072115384,95.05877599978193L54.46965721153846,94.53239850146325L54.51909057692308,93.85028212342327L55.26262579326923,93.41603549488691L55.544276033653844,93.16089143088075L55.696045889423075,92.75623123171205L56.490792187500006,92.18661324291844L56.72512947115385,91.21561463688337L56.82481009615385,90.43030922562696L56.912582163461536,89.88937115143764L57.263863197115384,89.17621705150177L57.329381682692315,88.80124421050772L57.73709985576923,87.76099719043972L57.78882497596154,87.2830063668421L57.83594516826923,86.8566081536225L58.26563848557692,85.92117607970798L58.29376067307692,84.93546003420106L58.35550954326923,84.19124966858315L58.37264415865384,83.36462343240022L60.17846127403847,82.33667493485713L61.57182677884615,81.73890178465162L61.681167043269234,80.85873130865095L61.893743365384616,80.07020149897821L62.440723125000005,79.09503398148206L62.66850641826923,78.17540710360704L62.69769951923077,77.0859737378248L62.86011425480769,75.79396601627612L63.100684254807696,75.25441833536361L63.41371225961539,74.0905453469435L63.534875408653846,73.06018872500182L63.554151850961546,72.17553052166376L63.71307540865384,71.58993212139798L63.935568389423075,71.27857608136782L63.952703004807695,70.07437192712L64.10265230769231,69.51043297396174L64.3466278125,68.70553773448944L64.5537853125,67.85957141676126L64.55592713942308,67.04736593337361L64.63577444711538,66.25307729517183L65.05906370192308,65.67097151218822L65.0654891826923,65.72707830949525L65.16846822115384,64.87880902855021L65.21978639423077,64.5991967412076L65.69280887019231,64.10703424202404L65.82686581730769,63.59603575531585L65.96120120192307,63.075690391853584L66.01046322115384,62.706567981186716L66.19236858173078,61.966433398264485L66.34300326923076,61.7492203100902L66.62036985576923,61.10717379865824L67.3066326201923,60.69033820142938L68.1378328125,59.829919297288946L68.23483615384616,58.75227890826567L68.31489764423077,58.43229368461028L68.37454752403846,57.75555385573079L68.61124081730769,57.00555465343635L69.38208432692308,56.38518370567351L70.0078833173077,56.399795540294555L70.02930158653845,56.14561710676585L70.12069334134615,55.58874990790321L70.17490298076923,55.0259495090542L70.31731305288461,54.39481536038977L70.47640795673078,53.81978218927123L70.61427735576923,53.10215645675977L70.85257701923078,52.88264143234693L71.12488889423076,52.64613826688033L71.14802062499999,52.258353886331335L71.1892936298077,51.72394622751921L71.68761108173076,51.53719770611206L71.98500374999999,51.52651981670633L72.12790644230769,51.44833650187058L72.41137723557692,50.77875226924088L72.41566088942308,50.77577953709703L72.49480139423078,50.52752006786192L72.54269264423077,50.139268390173555L73.1239630528846,49.93596329850427L73.3297926201923,49.755627164627526L73.34692723557693,49.59490101230413L73.71300829326924,49.13899058879613L73.78259625,48.998609470231266L73.936850625,48.630157427485564L74.0189254326923,48.48863580173296L74.45253829326923,48.2485687373034L74.6193651923077,48.10162679740111L74.74114947115385,48.096827763865406L75.36193658653846,47.48574552725123L75.62463165865384,47.46660349070194L75.69708966346154,47.19501893811024L75.85329310096154,47.09486300960912L76.15848201923076,46.78885270341968L76.21039990384615,46.7636475345844L76.34535641826922,46.318908864746604L76.65461480769231,45.759710613333226L77.00476067307693,45.77507466697239L77.69196584134615,45.5057535907856L77.69410766826923,45.31267183647499L77.76018302884614,45.19259075431644L78.41421129807692,45.016897189804475L78.43991322115384,44.395040257553426L78.44777372596154,44.302978702892176L78.44991555288462,44.12178356176246L78.69217759615384,43.78077775388777L79.17967882211539,43.36477401108026L79.38418045673076,43.273770001425035L79.419285,42.64402585459553L79.45663846153846,42.025614849445994L79.84715776442307,41.89970078699787L80.04047906250001,41.55307146659137L80.11300132211538,41.187441860337834L80.149905,40.86528385359028L80.88967060096154,40.37747725135783L81.13433149038462,40.28170638091818L81.16217524038461,40.36716340851135L81.35474689903846,40.2616681932541L81.41491081730769,40.05290253732699L82.25000913461538,39.48553305785152L82.30439012019231,39.59521841100207L82.44127427884617,39.58650078387325L82.73228430288462,39.20761998403769L82.86180057692307,39.21409011364787L83.29922588942308,38.9978998073094L83.33349512019231,38.3647552852069L83.48963430288462,37.75769013048181L83.59332014423076,37.900132635773105L84.04972204326923,37.01979196255425L84.4182876201923,36.883761450271265L84.4720903125,36.63546330904606L84.59959326923077,36.25127886579015L84.77235302884615,35.6323468754273L84.9170334375,35.413862904845494L85.092170625,34.89073822057002L85.36557483173077,34.7139586464953L85.38913492788461,34.31595253701763L85.68250096153847,34.17140962411281L85.88081271634616,33.78542260839357L85.91058411057692,33.86965655838199L87.34620786057692,33.62667874950761L87.42342072115386,33.65849992630087L87.95373706730769,33.623808438627826L88.1904089423077,33.15849257593545L88.32654346153845,32.64822266784997L88.34153625,32.15033281822164L88.45807305288461,31.58957076469964L88.4773494951923,31.38105058590355L88.60251786057692,31.09217051903905L88.63010459134615,30.47150432963775L88.95797545673078,30.254868813531612L89.02809887019231,30.0076073367628L89.51048112980769,29.73639252309237L89.73256716346154,29.41034139734683L89.97219475961538,29.39427944861997L90.07423139423076,29.324425823851538L90.19143216346154,28.930406360764284L90.46926995192307,28.44024013550007L90.48451975961538,28.54647325947314L90.76169358173077,28.331390618793602L91.011751875,28.123357991264772L91.06930276442309,28.44617052785247L91.07358641826923,27.9989119655053L91.260118125,27.668994574855333L91.40728305288461,27.3844853977972L91.47648548076923,27.697140028267018L91.53547139423078,27.16657232436788L92.21706497596153,26.783957644157976L92.23634141826923,26.400445535915818L92.26114377403846,26.099178404813955L92.30166713942307,25.555785115571638L92.33807819711538,25.118227032134953L92.45069545673077,25.31982483270739L92.4763973798077,25.323004283416537L92.52936475961539,25.707667980982528L92.60565663461539,25.89323970861386L92.82238810096153,26.083275028253897L92.8630828125,25.9151064625862L93.08334829326922,25.906508800692436L93.54743935096154,25.43004911823409L93.5920964423077,25.725876848079594L93.7068126923077,25.4730849081075L93.89150242788462,25.727719441768127L94.04877677884616,25.59839263256931L94.43372733173076,25.703061566885868L95.58737956730769,25.672108849175526L95.63028036057692,25.74006314018377L95.64741497596154,25.489924213638947L95.6774648076923,24.764249587749077L95.89862985576923,25.008111990076678L96.08653233173078,25.021631711246528L96.49971216346155,24.866790300140853L96.51470495192308,25.156532040343567L96.6637546875,25.542401252212677L96.88189975961538,25.399015782005335L96.91831081730768,25.139461088879646L97.06012117788462,25.101236014410187L97.49765358173076,24.935954124846987L97.55771040865385,24.45129479001285L98.29841841346153,24.639560797031507L98.36065990384616,24.7521637036568L98.5886573798077,24.53000052977584L98.6961342548077,24.422558927510604L98.76248805288462,24.43017656348581L98.88275163461539,24.187040471314088L99.4324729326923,24.261651418390215L99.50225365384615,23.9438439373579L100.03049242788462,23.570811310146244L100.10151540865385,23.665296473008738L100.67432560096154,23.54315295832608L100.91014074519231,23.36057551539776L101.56930939903846,23.40033482422084L102.08521125,23.464195400187766L102.11913778846154,23.0380932574858L102.14269788461539,23.179968182426553L102.63420432692307,22.890960441590725L102.67502754807693,22.87496295037185L102.92675646634616,22.776602125222333L103.21958704326924,22.314387624447654L103.26904182692307,21.995886686998663L103.75290194711539,22.81756888950881L103.87494324519231,22.33145365039613L104.72167168269232,22.37224237816728L104.78022923076922,22.348736826792578L104.8885842548077,22.162157391889167L105.09306447115384,21.85800049907326L105.15719076923077,21.78648322614995L105.16789990384615,22.171072848388853L105.38927913461539,21.845882311793495L105.96337442307693,22.072802902728863L106.38901968750001,21.658768017528786L106.69243088942308,21.163491062688415L106.72588622596153,21.23878272171247L106.73445353365385,20.66664972138814L106.8049410576923,20.29124125133516L106.84610697115384,20.184506820396326L106.9976840625,19.980374105192972L107.51694858173077,19.84782370148051L107.94297937500001,19.91390603728214L108.0004660096154,20.104341267548016L108.14566045673077,19.94839630767059L108.28599295673077,19.983623398335403L108.55967560096154,19.98861127186792L108.59377348557692,19.829738505318236L109.55941615384616,19.754445172205358L109.81459341346154,19.86223546268077L110.04349045673077,19.509424531092534L110.47262689903846,19.561792858497107L110.51051581730769,19.457533124094105L110.95342420673077,19.221578765168562L111.58571293269232,19.318908966527715L112.20819209134615,18.844424632453812L112.714284375,18.82140074433011L112.78807031250001,18.700935549688577L112.90242245192309,18.42835882365299L112.97055396634616,18.25803343330164L113.12348040865385,18.221547361014093L113.18006747596154,17.60756542536434L113.18863478365385,17.034637547772732L113.32003586538461,16.87975071261172L113.68545295673077,16.72089652824347L113.71229004807692,16.184576634954933L113.87984516826923,15.393919196253684L113.88841247596154,15.100979880814432L113.96427598557693,15.631968582842227L114.14678105769231,15.700106397560464L114.16177384615384,15.868644227417796L114.25507182692307,15.938462898728917L114.3665325,15.855918218425277L114.95315747596153,15.845772425260973L115.40619670673077,15.859804546536063L115.43618228365384,15.8401941364281L115.74736831730769,15.841368499357946L116.04060584134615,15.941683665615843L116.47057759615384,15.741220257301963L116.48974694711539,15.733684330572135L116.60035088942308,16.17380187949425L116.88345757211538,15.925313883834193L116.95842151442308,15.415559025163928L117.2013046875,14.887697911779467L117.98804055288463,14.474264673310287L118.10800427884615,14.481933224681098L118.27435997596153,13.949720761932545L118.35084461538462,13.8095446055256L118.58672401442307,13.668592339211239L118.62099324519231,13.480414102120886L118.78593533653847,13.383162163778367L118.96623432692307,13.19825835091222L120.42779560096155,13.218728043639171L120.51698127403846,13.208258293804244L120.6439059375,12.809271010895374L120.68588574519231,12.80098147403346L120.92795502403847,12.521275607785341L121.0353890625,12.023773273861893L121.15890822115385,12.044886559059313L121.23438620192309,11.665753044941727L121.34394064903847,11.624978552267082L121.37853115384615,11.904658094847173L121.40851673076922,12.223663882919993L121.48384478365384,12.506523284152134L121.56478442307692,12.915874052558609L121.59477,12.58282931713052L121.85585870192307,12.311608585478535L121.99353533653846,12.394393832948296L122.04219764423077,12.397281865909472L122.26520466346153,12.553445913100619L122.4854273076923,12.29888066912262L122.58116697115385,12.312577972192441L123.1973919951923,12.746486371656585L123.86664865384616,12.421987474198342L124.1557738701923,12.796149399743648L124.76732971153847,12.533102361973793L124.8803967548077,12.589542923447022L124.93244314903845,13.174016631827444L125.1989292548077,13.053642408781098L125.3672554326923,12.803471375585593L125.4948440625,13.007429572436596L125.53361112980768,12.541630151567466L126.30869545673077,12.50400619826573L126.41420185096153,12.555017365412173L126.60797293269232,12.51970266652617L126.64142826923077,12.073342541048047L126.70463358173076,11.92806107314709L126.85788129807692,11.607027152136988L127.61056211538461,11.105109925951583L127.61343216346154,10.834079330195003L128.0076139903846,10.28580395234783L128.34358096153846,10.085143878924267L128.66975978365383,9.95583025559616L128.86528716346155,9.94154671417149L128.979489375,9.710629577030476L129.10480766826925,9.417666699198865L129.95873264423076,9.301037444367813L130.05920574519232,9.421368786968902L130.07580490384615,8.917559337277709L130.38756923076923,8.865789929995097L130.48566490384616,8.787172100904899L130.62516209134614,8.668331563025573L130.98034125,8.35803424163364L131.09563579326922,8.484113919916245L131.22498072115383,8.29302974427944L131.5499601201923,7.939739056165045L131.5871208173077,8.101460504773726L131.91034391826923,8.639440181218413L132.16203000000002,8.58834506925867L132.38250966346155,8.344476947664434L132.45034132211538,8.040252458741566L132.58604747596155,8.008180244250992L132.77088713942308,7.837600438673517L132.80286461538464,7.727889238577278L133.43982252403848,7.556611352935006L133.56239927884616,7.72486598359236L134.0572898076923,8.172262367654717L134.07228259615385,8.096329765093419L134.07967189903846,8.54942231596658L134.08823920673078,8.908635632848071L134.38573896634614,8.633277423171013L134.47820163461537,8.832232753658573L134.82436370192306,8.807365466730943L134.85518459134616,9.24895570982324L134.89962749999998,9.260094531776733L134.93175490384616,9.162521294215699L135.17742245192306,8.796950031934472L135.9830278125,8.65331213837174L136.02920560096155,8.92670567160684L136.12192528846154,8.952407566362071L136.18076127403847,9.25063208134271L136.3656651923077,9.315474564251813L136.63746302884616,9.474393235594155L136.7327100721154,9.385609241087993L137.17193451923077,9.532366547100537L137.39140752403847,9.684724919835189L137.3978330048077,9.480757641031943L137.45315639423077,9.288336556460116L137.51951019230768,9.290061479056838L137.89702860576924,9.400957951439839L137.9071166105769,9.524927202141889L137.92425122596154,9.964197793355792L138.26214584134615,10.037579077664498L138.3729853846154,9.900841629555739L138.79319040865386,9.762886519940235L139.0543219471154,9.822117009338154L139.4998862019231,9.78335833912051L139.56917430288462,9.691367756299957L139.92433204326923,9.95254363179608L139.95431762019228,10.005787711755149L140.13521632211538,10.078880573204001L140.51040014423077,10.143237790499393L140.57921704326924,10.169452493718385L140.9553004326923,10.062375582890676L141.58641115384614,10.54631303142477L141.59926211538462,10.196152653256577L141.97358920673076,9.869439338490544L142.55378870192308,9.678822319300538L143.67441396634615,9.735609853553022L143.7818480048077,9.981124023533297L143.98045961538463,9.858072709441528L144.22229329326925,9.729050512319747L144.3363455769231,9.608867640500522L144.39770891826925,9.981508487694063L144.56143016826923,9.721516339539054L144.6175246153846,9.674041045409007L144.65387141826923,9.634949688625575L145.2122456971154,9.412175722951506L145.69948990384614,9.052257795796978L145.797114375,9.036037593292404L146.04967860576923,8.847054349503576L146.48605442307692,8.854746269494175L146.54988086538464,8.855070725592276L146.6891638701923,8.226596852996147L147.4187557932692,8.070189531545036L147.61421891826924,8.194444811852843L147.6270698798077,7.8775890792101215L147.67359036057692,8.210795161288559L147.86359182692308,8.403621151244234L148.23569141826923,8.450889143625163L148.4925821394231,8.794465715225725L148.6479716826923,8.464782143372489L149.58731271634616,8.306069119780352L149.7589158894231,8.658307950900364L149.90633783653848,8.677879903276636L150.10796942307692,8.424769063070183L150.24384692307692,8.219506338984376L150.44603538461539,8.647207640775559L150.7512243028846,8.69990944672151L151.71134105769232,8.869632034686456L151.8804811298077,8.989196767902113L152.50178228365385,9.072807824826931L152.56575865384616,9.463250628261287L152.58289326923077,9.692728977577037L153.24917278846152,10.12815351385683L153.5624792307692,10.473249762545658L153.97111838942305,10.32843551693306L154.26247110576924,10.278911058336691L154.40910057692307,10.098476321380474L154.41124240384613,9.794778447432117L154.58824298076922,9.663614487904045L154.9171205048077,9.838923853713256L155.14764533653846,9.999766288703858L155.32402478365384,10.27932921497858L155.57999451923075,10.18651696970211L155.811954375,10.176004231504521L155.9674510096154,10.107298955017843L156.0768126923077,9.76526807485868L156.67592451923076,9.46756003093962L156.69539372596157,9.385190255231809L157.0453039903846,9.63177102679898L157.4667084375,9.886914023653576L157.70055310096154,9.862706569717345L157.8146910576923,10.22077628830022L158.21469865384614,10.41199756236482L158.31330836538461,10.311656876857981L158.4861966346154,10.475354602073985L158.6435994951923,10.857886612094697L158.70849685096155,11.086696194003347L158.8053716826923,10.868017752442602L158.9602471875,11.151476560619216L159.04939002403844,11.506479810357177L159.18355406249998,11.662966264918927L159.59630552884616,12.278673666505892L159.89569009615383,12.17175262091354L160.41998790865384,12.099204136438951L161.14874451923077,11.934538581492227L161.44095396634614,12.195469316997373L161.77709228365384,12.322257176563095L161.8362067067308,12.055955362077126L161.93183927884616,12.643985998053155L162.81365084134615,13.121823526440437L162.8842026201923,13.08521641537521L162.96587048076924,13.105182188532073L164.53559401442308,13.033325365236596L164.53773584134618,13.136203420230574L164.57281896634615,12.949239789198659L164.77824158653846,12.933066402703837L164.88550427884616,13.369775505945116L165.05944204326923,13.633947254217102L165.22408427884616,13.834011708569314L165.93885475961537,14.027991670020844L166.06260951923076,13.850994264014364L166.44306223557692,13.884971168606487L166.44520406249998,13.639519236602219L166.47304781250003,13.951231672669957L166.7697979326923,14.254901762868714L167.04225973557695,14.059479018867421L167.08565314903845,14.311409418936954L167.47514437499999,13.994391707408587L167.59352314903848,13.713063613775617L167.7594290625,13.609771838931785L168.00505377403846,13.815270195894987L169.14105735576925,14.100600183638342L169.14962466346154,14.159942008916751L169.21415790865385,13.994468014171646L169.28835079326925,13.860116380491343L169.39597759615384,13.978225198733945L169.55650752403847,14.455915962408845L170.09806846153847,14.517381080590063L170.26836512019233,14.557551559065152L170.9320101923077,15.048314033719285L171.16964588942307,14.559071691643164L171.4343114423077,14.625504499297742L171.4865291826923,14.654689745076691L171.73039759615384,14.64067209214636L172.05439175480768,14.846478412104512L172.17150685096152,14.40018473318324L172.27827692307693,14.29844998064524L172.32366223557693,14.335313352080668L172.3927789903846,14.323179145309426L172.4453822596154,13.891598488770999L172.78186326923077,13.214857432731263L172.94440651442306,12.902085332109673L172.99011310096154,13.095901097431302L172.9943967548077,12.666317427005033L173.2067803125,12.623115652861905L173.21320579326922,12.851160632638745L173.53683584134615,12.72760239934452L173.88340485576921,12.593477083907725L174.19928149038464,13.033785308279365L174.35704846153845,12.91975415711749L174.48521538461537,12.699593065402164L174.8401589423077,13.086581404202695L175.13206853365384,12.833919546051314L176.03206420673075,13.088251409268825L176.11690197115385,13.212845579778026L176.12761110576923,13.377047355983173L176.22540692307692,13.15984791572896L176.35130350961538,12.815937328340844L176.39966596153846,12.318614708951857L176.58349896634616,11.844504042146436L176.95480608173077,11.586774587777903L176.96939192307693,11.542815013722926L178.37995629807693,11.282586366150962L178.45624817307692,11.388904924527413L178.9554009375,11.647678300974427L179.0209836778846,11.477556275813601L179.6449406971154,11.791450875757409L179.68259401442307,11.75546536124801L179.85199110576923,11.726917663929743L179.98159305288462,11.086086697494352L180.1243672355769,10.898250851180308L180.60996223557694,10.697985890354648L180.61424588942307,10.922153069008807L180.87942548076924,10.599518896180486L180.9689324278846,10.524387603992983L181.21899072115386,10.429876611369437L181.6655830528846,10.895797006167196L181.77211752403846,10.760729036804516L182.07255158653845,10.504105340044232L182.17120413461538,10.658217280331774L182.2378363701923,10.552925781336752L182.41385170673078,10.607900675746887L182.65660637019232,10.176380953921441L182.67159915865386,9.923694526363402L182.69353146634617,9.770325231019113L183.00465324519232,9.595123997617332L183.26428550480767,9.432841753306949L183.52937942307693,9.286379926525857L183.81278596153845,9.951424814090949L183.96061485576922,10.42723902789565L184.19840048076924,10.324417438902229L184.53098336538463,10.59001997301963L184.73734838942306,10.507176954800714L185.13876959134615,10.31004572353503L185.2276982451923,9.759870250587788L185.37912540865383,10.092128605477987L185.49975310096153,10.066069450269541L186.56706829326924,10.082249230464765L186.70997098557692,10.009090085033431L186.87155040865386,9.861257309149014L186.89950125,9.790395968207822L186.98189733173078,9.836883176403196L187.04765141826923,9.155179565247401L187.6834955769231,8.76281627833182L187.91442735576922,8.898988935483551L188.2875764423077,8.731825049365304L188.33600314903845,8.849127415537296L188.7401230528846,9.178230232325667L188.79227653846152,9.193483464923565L189.06484543269232,9.410630222031783L189.07983822115384,8.870890461441652L189.12815783653846,8.85481323422586L189.19845259615383,8.807353596730364L189.206634375,9.149231503277695L189.34261896634618,9.291457160097352L189.48087389423077,9.061170426431888L189.86728088942309,8.865262721574213L189.9468497596154,8.675729104256373L189.98111899038463,8.75168942917048L190.28159588942307,8.4918493722862L190.3356770192308,8.213338368790867L190.41130492788463,7.8499162031594345L190.8564622355769,7.470577646935028L190.9427564423077,7.7574188621671585L191.10735584134616,7.593836483462207L191.21164139423078,7.56589305357044L191.25075115384615,7.623511530953337L191.46426987980772,7.5788552468447055L192.01881028846154,7.721079653440543L192.25736697115386,7.919257770719241L192.32858271634615,7.9274015719811946L193.21611295673077,7.744612661388457L193.48570471153846,7.715215890885187L193.8422118028846,7.810359717229051L194.4179991346154,7.828252798473045L194.67240533653845,7.6576865400052245L194.85831591346155,7.597208425913179L194.92884627403848,8.071059248009377L195.0569489423077,8.40581637783361L195.0951162980769,8.315110742950333L195.25331163461536,8.136275236503838L195.5658684375,8.136312689360237L195.6748017548077,8.242147908705766L195.9661973076923,8.350373251981122L196.47344617788463,8.502825926680153L197.00007858173078,8.947241743278788L197.33885134615386,8.797581520290828L197.43917451923076,8.788940482591569L197.84719254807692,8.535562222742985L197.91397471153846,8.384494779867282L197.92935302884615,8.592067789550171L198.32522689903846,8.365112527852444L198.35688310096154,8.510333391167476L198.49488100961537,8.73830037750999L198.75916103365387,8.268066834835365L198.9366970673077,8.61675234145228L199.04948567307693,8.548856770052788L199.21226451923079,8.651935255063705L199.63664610576922,8.524654477936865L199.7039423076923,8.53928019007303L199.78220466346153,8.672836069549167L199.9504880048077,8.985238833231017L200.26503670673077,9.234528604248279L200.65506338942308,9.11702499578527L200.71978939903846,8.957619062112297L200.78954870192308,9.136366605655233L200.9244623798077,9.070668453052024L201.00664427884615,9.254560605628491L201.0297117548077,9.603590539021116L201.15882108173076,9.191353630613657L201.64899959134615,9.536811277618954L201.7106413701923,9.484609839062259L202.6242376442308,9.470623650881969L203.02407389423078,10.051295601385666L203.0378886778846,10.122153663421987L203.31414151442308,9.824240160914629L203.34198526442307,9.607385530573833L203.4372751442308,9.378603148253367L203.49294122596154,9.3308734304734L203.60382360576924,9.428097629340943L203.78981985576922,9.4832519868081L204.59555372596154,9.299403229219147L204.7149605769231,9.332464796120684L204.93756064903846,9.12326556741498L205.0740806971154,9.064661530916643L205.16602932692308,8.95160034901964L205.48231290865385,9.132058114494356L205.50801483173075,9.477344269936163L206.05987795673076,9.383252096989189L206.12391858173075,9.05785564203017L206.14972759615387,8.802930455763894L206.64549627403846,9.1574685118658L206.7855075,9.263601126776576L207.2739511298077,9.289755140413202L207.46669413461538,9.230926939847919L207.56864509615386,9.415914506358467L207.79364401442308,9.470061245324006L208.28870588942308,9.282882946150322L208.50376673076923,9.571168736196395L208.68018901442306,10.447293179995555L208.7144582451923,9.969009384683375L209.51207459134616,10.07836033730485L209.5480358653846,9.985826556689943L209.77948168269234,9.620093450144537L209.81994079326924,9.42039496834168L209.98925221153846,8.99454963393601L210.11949670673079,8.482462817619306L210.54132951923077,7.982401869824348L210.71575990384616,8.035538505983016L210.98995658653845,7.736905683025557L211.98224358173078,7.667822123583012L212.30343194711537,7.586238844043356L212.34573302884615,7.461069003943229L212.77551201923077,7.1002014892197725L212.98125591346152,7.008458678971653L213.14311377403845,7.471021627950759L213.45674149038462,8.040284987682796L213.49874271634616,8.021351973469363L213.50516819711538,8.729485454709437L213.63524134615386,8.885031551859178L213.68266139423076,9.19494340889974L213.689086875,9.184115999969489L214.261554375,9.120685634307208L214.43977579326923,9.115535163708302L214.49407110576925,8.778131566515986L214.7581369471154,8.85892966698877L214.88979504807693,8.733157986142306L215.7702786778846,8.881974446186149L215.8939049278846,9.249922804438622L215.89818858173078,9.15860090768471L215.96295742788462,9.176803551421823L216.11076490384613,9.427088456501096L216.6028924759615,9.498075926751474L216.80448122596155,9.472947959218573L217.32338163461537,10.328037503056118L217.7461354326923,10.256971366334183L218.22294894230768,10.013374172043727L218.55773790865385,10.053765914934273L219.22624492788464,9.663459150472777L219.31862192307693,9.429733104515302L219.55212389423076,9.049836239132079L219.6303219951923,8.949731356676716L220.0747725,9.236939857586473L220.29917170673076,9.080295057330137L220.592109375,8.812016720612302L220.64891062499998,8.350415648878283L220.91295504807692,8.304833359730056L221.200216875,8.320678061669078L221.3168821875,8.438747357125495L221.3845425,8.28291882307934L221.53384925480768,7.974762726632817L221.61170466346152,8.104565269405793L222.33080163461537,8.19889578287032L222.5170120673077,8.76732748006838L222.5649675721154,8.808284598048033L222.6916780528846,8.653828650629311L223.25373627403846,8.556680887179757L223.4222123798077,8.267972544445039L223.59959848557693,8.702465347678489L223.6838151201923,8.528893086432426L223.7459709375,8.79437669051283L223.88148432692307,8.859092544113784L223.94914463942308,9.067206761439472L224.75331497596156,8.836173444395415L225.04490329326924,8.901972843224847L225.18947661057692,9.086381457704963L225.33677004807691,9.261442741746029L225.58924860576923,9.609414454658989L225.68336048076924,9.546022057327622L225.9677094230769,10.255883054145325L226.0876303125,10.508267796519533L226.27484740384614,10.78637107800578L226.386950625,11.009734086794728L226.55557665865385,10.764124026349595L226.78571596153847,11.108296168413752L226.80619182692308,10.962238317318391L227.10564064903846,10.583151294131024L227.25749617788463,10.86277226167672L227.65833908653846,10.884394319852328L227.80439026442306,10.687301488311489L227.90578435096154,10.81936789860329L227.94245242788463,10.722531981871366L228.07745177884615,10.614540676590615L228.3892589423077,10.241270272149531L228.88095814903846,10.67701707461738L229.01525069711536,10.882638696068128L229.46711192307694,10.298410883655862L229.96217379807692,10.498398552375631L230.0051816826923,10.595566908718782L230.1813469471154,10.827732691104995L230.18563060096156,11.202906797994132L230.75098723557693,10.923441321826227L230.95561737980768,10.696892030274084L231.59165430288462,11.383317213232113L231.67381478365385,11.002999836794865L232.0237893028846,10.928747969953921L232.18579709134616,10.594406902683012L232.23405245192308,9.980525016714168L232.5774301442308,9.506325915702307L232.80030865384614,9.596175512374879L232.8670265625,9.573828567965712L232.9228425721154,10.064796520901712L232.94119802884615,10.491002272662268L233.09208973557693,10.769417598242619L233.223705,10.67414668077129L233.24940692307692,10.900876927682488L233.42165264423076,11.155103115125394L233.5865733173077,11.29579639297068L233.79994211538462,11.393874855190242L233.84130079326923,11.601192903665215L233.96449867788462,11.775605720175477L234.00086689903847,11.555931120723814L234.12143033653845,11.71033761060386L234.14462632211539,11.21142507614003L234.5469256730769,11.056052201234463L235.02947927884617,11.134643956858039L235.0707094471154,10.898075394630158L235.81996334134615,11.120987254706897L235.8349561298077,11.19356860823212L236.1843095192308,11.051301476259953L236.25668185096154,11.10563630200107L236.322714375,10.776131449351505L236.43764480769232,10.548140843100274L236.62623266826924,10.673352435898787L237.03705649038463,10.666745204611392L237.1033031971154,10.668634485041379L237.21694853365383,10.604762547780092L237.29107716346155,10.461263546779989L237.31249543269232,10.536063053283124L237.72154153846154,10.57301643276657L237.9550006730769,10.328701809269933L238.25815485576925,10.198746887373824L238.37267834134616,10.175569635266655L238.8184996153846,9.908510399520155L239.11910502403845,9.871840122888052L239.27674348557693,9.805895860271177L239.59167771634617,9.747266831901602L239.96379872596154,9.792534159826603L240.08451209134614,9.741810954407145L240.86377298076923,9.744489440925895L241.08144685096153,9.46801510573804L241.11049002403848,9.551665858317898L241.15118473557692,9.40971408683809L241.23600108173076,8.976838279788762L241.26598665865384,8.520229097682689L241.29764286057693,8.108436416641785L241.32548661057692,8.265696106975176L241.4060193028846,8.641359027274532L241.48946487980768,8.208188259910507L241.50874132211538,8.257841556297928L241.6286836298077,8.247807602023132L241.67841685096155,8.07783250505931L242.0320967307692,7.834280617930907L242.0363803846154,7.916941009592048L242.3916023798077,7.858495019941755L242.75834740384616,7.591720500884498L242.95134742788463,7.989954936931712L243.04734411057692,7.64422165155124L243.10202495192308,7.809658785294888L243.13048983173076,7.737528155100996L243.53523086538462,7.633636233588124L244.0152571153846,8.031294702106887L244.1342784375,7.847465112575543L244.38996973557693,7.827572633237724L244.75855673076924,7.71260691787149L244.96800598557692,7.508255229069202L245.18535858173078,7.707547915487224L245.88230906249998,7.524777986451281L246.1600397596154,7.407175779366891L247.26498685096155,7.702131084530455L247.34950334134615,7.86163782418061L247.41819173076922,8.39875051470502L247.80459872596154,8.260913418396425L248.6981475,8.378624225237141L248.98438125,8.203336966421201L249.55875497596153,8.297413655283663L250.05424521634615,8.33039490624783L250.1186071153846,8.52190481540246L250.35549317307692,8.243730664715908L250.357635,8.395189509511743L250.4802974278846,8.67728594442726L250.89060721153845,8.777128907624972L250.8991745192308,8.748416767666258L251.06323846153845,8.778974419036969L251.57012322115386,8.760673155443307L252.0735810576923,8.723297461587157L252.34077396634615,8.749186830069577L252.40896973557693,8.839645521298733L252.58108694711538,8.667023717198783L252.59393790865383,8.776191631405801" style="fill: none;" fill="none"></path></g></g></g></g><g opacity="0.2"><g><g><g><path stroke="rgb(238, 51, 119)" stroke-width="2px" d="M21.717375360576924,158.1233575669202L21.97143887019231,159.06859459186143L22.09793516826923,160.90517009227452L22.107187860576925,160.5760738410225L22.18572865384615,158.2943536442789L22.59136925480769,161.4993325773288L22.716901730769234,164.74918566982853L22.805851802884614,165.03146589818326L22.81930247596154,173.3093387498097L22.917483822115383,170.55255922404203L22.942350432692308,164.55053534697402L23.07827076923077,169.51420266858557L23.2676296875,164.13158108056948L23.685971322115385,170.4753000932661L24.33800769230769,174.29165250875732L24.346575,176.22535887089643L24.44297862980769,163.418726275929L24.45797141826923,170.06592027165672L24.54818516826923,168.47966270351952L25.074624807692306,181.66651839559728L25.162696730769234,180.1920640874993L25.167280240384617,166.75713002004406L25.452614423076923,179.42264977503905L25.53603858173077,175.02563672986898L25.77900742788462,173.5965211418542L26.11073358173077,174.1916994411837L26.33468300480769,172.34769584103063L26.50193826923077,162.98243970186874L26.59936997596154,173.77603216604754L26.701963485576922,177.5559132749384L26.7041053125,162.5446344641122L26.728950504807692,174.7764212299477L27.11139512019231,156.5763874419711L27.221442187500003,160.64425268464467L27.83548254807692,154.8626346547495L28.231870456730768,169.89943972365424L28.26399786057692,162.41982620378786L28.385717884615385,157.79502319510686L29.031564375,156.53574408116665L29.035848028846154,152.01927541331813L29.138827067307695,146.41925413500178L29.28738418269231,153.750807385553L29.43827588942308,149.26333629272202L29.453268677884616,149.75197135724804L29.67586875,148.6104985258796L29.73296985576923,140.1978293603117L29.896519759615387,148.43362740494987L30.479118100961536,139.59806539795616L30.649671778846155,130.5053609880534L30.84076557692308,140.41223698041657L30.8750990625,134.20349860733205L31.217384423076926,137.35092027620837L31.452407091346153,142.3363008621064L31.830546634615384,127.66638839786704L32.11110454326923,140.51488629796287L32.16923372596154,139.97445661913264L32.611628076923076,130.04200161858037L32.641399471153846,131.52534192258662L33.037230504807695,128.37322549386457L33.3994134375,125.12735773216596L33.57572862980769,124.85990987582642L33.69468569711538,127.58419413458219L33.70914302884616,120.54414998401298L33.78457817307692,119.70051746476783L33.95793764423077,126.88448070125148L34.394227788461535,124.47877114469355L34.43312336538462,131.1754959957166L34.5760903125,120.93132380734792L35.170939903846154,111.31563801657072L35.43136463942308,121.5694011341442L35.4570665625,124.13647807457231L35.75413795673077,116.22425160624765L35.987854110576926,120.78536425124517L36.381500480769226,121.26657713543287L36.85794987980769,111.55170435255225L37.02057879807692,120.31990446827628L37.02559067307693,117.86162463101475L37.12552831730769,114.3789568272504L37.70724850961539,102.36508076841181L37.728666778846154,116.72852348197593L37.799796850961535,110.76651895588095L38.13043067307692,109.51653794808823L38.28723382211539,116.29089897329158L38.529688629807694,111.16431713104248L38.615875745192305,120.98758180033079L38.91301139423077,103.92023075710645L38.942996971153846,115.77496452765033L39.19858117788461,112.62747092680499L39.219999447115384,113.15627639943904L39.41649064903846,112.61403883045371L39.99904615384616,106.02071138945493L40.11924548076923,109.45062908259305L40.241458124999994,112.97870993614197L40.804565841346154,109.84514236450195L41.2446684375,108.23094102469358L41.42700216346154,96.4255142211914L41.454203365384615,109.20212810689753L41.72985649038462,110.04225993698294L42.035923557692314,100.60962422327563L42.17064447115384,108.42158951542594L42.948855865384616,100.98466791889884L42.963848653846156,105.34395624290815L43.21075846153846,111.45117702809247L43.378891874999994,97.70796531980689L43.469962355769226,107.29038737036966L43.649019086538466,105.44158231128348L44.0153357451923,102.45691871101207L44.27428262019231,98.78533357923682L44.28070810096154,101.4677582274784L44.409453317307694,99.92346996610816L44.42658793269231,99.95516798712991L44.52320574519231,93.13868839632383L44.697507620192305,103.63712570884012L45.36537209134615,89.80004757642746L45.477218293269225,94.31605647910727L45.60431430288461,89.5100130818107L45.67553004807692,104.42949950695038L45.92627372596154,91.08270488002084L46.08213447115385,99.1788158362562L46.52230132211538,95.30791201374747L46.53301045673077,96.40216510404242L46.93310372596154,92.3445594581691L47.19980401442308,88.6312585798177L48.003567403846155,96.37755957516758L48.43880805288461,90.23105434396051L48.5683457451923,96.75901960242881L48.76873507211538,96.48530407385394L48.82656439903847,95.35942489450629L49.54671086538462,89.62241877209058L49.852221057692304,85.4979307814078L49.96051182692308,91.97492504661734L50.009731009615386,80.43620759790595L50.40903180288461,97.4846501242031L50.977986706730775,81.25946418805557L51.27413711538461,82.63413207097489L51.42663519230769,87.03859846700321L51.519590480769224,86.62906099449506L51.749751201923075,93.50349377502097L52.152286153846156,83.41889067129657L52.21647670673077,80.92629928480497L52.25627185096154,93.15930889411408L52.45002151442307,90.656109939922L52.51427632211538,76.84591997753492L52.64848319711538,87.0582646673376L52.68808557692308,89.24648312005131L53.90890550480769,85.86733021519403L53.981085072115384,83.07181412523444L54.46965721153846,81.25155167146164L54.51909057692308,76.63783517750828L55.26262579326923,82.4569540403106L55.544276033653844,86.72105718742719L55.696045889423075,82.54144533114001L56.490792187500006,77.80624053694986L56.72512947115385,66.69954169880262L56.82481009615385,70.60066174377097L56.912582163461536,76.22887795621699L57.263863197115384,71.16500160910867L57.329381682692315,79.33018164201218L57.73709985576923,61.48415744304659L57.78882497596154,75.20785640586509L57.83594516826923,76.08393983407456L58.26563848557692,62.2862756252289L58.29376067307692,60.028216026046074L58.35550954326923,65.38506648757242L58.37264415865384,62.474353746934376L60.17846127403847,56.35692341761156L61.57182677884615,66.63018009879373L61.681167043269234,58.61105073582044L61.893743365384616,60.137706073847696L62.440723125000005,54.44330285895957L62.66850641826923,54.92644591764971L62.69769951923077,49.542712081562414L62.86011425480769,43.12753135507758L63.100684254807696,61.612119620496586L63.41371225961539,44.66099625284023L63.534875408653846,47.005546851591646L63.554151850961546,49.80419917540117L63.71307540865384,56.780641078948996L63.935568389423075,63.40432860634545L63.952703004807695,39.61867072365502L64.10265230769231,55.247243317690774L64.3466278125,48.347337029197014L64.5537853125,46.461827484044164L64.55592713942308,46.50288625196978L64.63577444711538,46.16116144440392L65.05906370192308,50.94587461514908L65.0654891826923,67.14641186324033L65.16846822115384,43.419536785645924L65.21978639423077,57.52545345913282L65.69280887019231,51.65578560395676L65.82686581730769,50.66792948679491L65.96120120192307,49.910792762582965L66.01046322115384,53.36744037541477L66.19236858173078,43.23994663628666L66.34300326923076,56.253293427554055L66.62036985576923,44.86177276481284L67.3066326201923,50.14313302256846L68.1378328125,38.058293678543805L68.23483615384616,31.483682935888126L68.31489764423077,50.33524892546916L68.37454752403846,40.63074393705889L68.61124081730769,38.02661483938045L69.38208432692308,40.6862754171545L70.0078833173077,56.76956355571749L70.02930158653845,49.713267575610786L70.12069334134615,41.49622938849711L70.17490298076923,40.78308625654741L70.31731305288461,38.422413305802785L70.47640795673078,39.26697134971621L70.61427735576923,34.940426458012L70.85257701923078,47.32707316225226L71.12488889423076,46.66056112809616L71.14802062499999,42.44394746693699L71.1892936298077,38.19852265444669L71.68761108173076,46.8106975338676L71.98500374999999,51.25626585700297L72.12790644230769,49.46952370080082L72.41137723557692,33.83148485963996L72.41566088942308,50.70053864609113L72.49480139423078,44.243934696370914L72.54269264423077,40.31232508746061L73.1239630528846,44.79011893272402L73.3297926201923,45.19111568277533L73.34692723557693,45.52671188657935L73.71300829326924,37.599223852157614L73.78259625,45.44533285227689L73.936850625,39.303973154588185L74.0189254326923,44.90644731304864L74.45253829326923,42.171967896548196L74.6193651923077,44.382197531786844L74.74114947115385,47.9753528399901L75.36193658653846,32.017725055867984L75.62463165865384,46.982068256898366L75.69708966346154,40.32046778635546L75.85329310096154,44.559629722075044L76.15848201923076,39.04282174327159L76.21039990384615,46.12562705170026L76.34535641826922,35.06115707484159L76.65461480769231,31.60456700758501L77.00476067307693,46.16399076851933L77.69196584134615,38.68830263614657L77.69410766826923,40.425085642121076L77.76018302884614,42.15290112928911L78.41421129807692,40.569438717582024L78.43991322115384,28.65347645499492L78.44777372596154,41.97254370559348L78.44991555288462,39.53501863913103L78.69217759615384,35.148549621755436L79.17967882211539,32.83401863141495L79.38418045673076,40.97008060325278L79.419285,26.70254718173636L79.45663846153846,26.370988759127545L79.84715776442307,38.712270368229284L80.04047906250001,32.778362469239674L80.11300132211538,31.93173278461805L80.149905,32.710017507726505L80.88967060096154,28.028876781463644L81.13433149038462,37.857306166128694L81.16217524038461,42.530476830222405L81.35474689903846,37.59109074419196L81.41491081730769,34.768058278343915L82.25000913461538,25.12271014126866L82.30439012019231,42.37188122489238L82.44127427884617,39.36581546610053L82.73228430288462,29.616300246932305L82.86180057692307,39.37788085504013L83.29922588942308,33.52505467154765L83.33349512019231,22.33671784400942L83.48963430288462,22.389832409945416L83.59332014423076,41.5060696818612L84.04972204326923,14.73391153595664L84.4182876201923,33.44013658436863L84.4720903125,30.349766557866886L84.59959326923077,26.52559453790839L84.77235302884615,19.963979504325188L84.9170334375,29.882899306037224L85.092170625,21.64772467179733L85.36557483173077,30.238741961392513L85.38913492788461,24.240325472571648L85.68250096153847,30.512265671383272L85.88081271634616,24.014046679843574L85.91058411057692,36.0020655935461L87.34620786057692,27.47561443935743L87.42342072115386,34.464064186269596L87.95373706730769,32.745580673217795L88.1904089423077,21.37884297154168L88.32654346153845,19.730536287481144L88.34153625,19.54604517329825L88.45807305288461,17.393639250235136L88.4773494951923,26.10227010466838L88.60251786057692,23.779040141539152L88.63010459134615,14.759049361402328L88.95797545673078,24.77063672109085L89.02809887019231,23.748061440207756L89.51048112980769,22.870453054254718L89.73256716346154,21.15618955005301L89.97219475961538,28.987662792205832L90.07423139423076,27.55604397166861L90.19143216346154,18.955589207735944L90.46926995192307,16.0314108024944L90.48451975961538,31.235824552449337L90.76169358173077,22.886450724168263L91.011751875,22.856891480359188L91.06930276442309,36.61835952238604L91.07358641826923,16.67629529129377L91.260118125,19.31693705645477L91.40728305288461,20.181962143291145L91.47648548076923,35.61218473044309L91.53547139423078,13.734920349988077L92.21706497596153,17.097826220772507L92.23634141826923,16.691592823375373L92.26114377403846,18.472407785328976L92.30166713942307,11.799432472749197L92.33807819711538,14.041158719496286L92.45069545673077,30.42340571230109L92.4763973798077,25.403494184667423L92.52936475961539,35.445686199448346L92.60565663461539,30.591112700375668L92.82238810096153,30.894147699529483L92.8630828125,21.657804738391548L93.08334829326922,25.688853101296864L93.54743935096154,13.368144035339355L93.5920964423077,33.2149607484991L93.7068126923077,19.07348090952094L93.89150242788462,32.17397088354285L94.04877677884616,22.324393499981294L94.43372733173076,28.352829597213066L95.58737956730769,24.888518831946648L95.63028036057692,27.46037445285106L95.64741497596154,19.157478267496295L95.6774648076923,6.393275044181126L95.89862985576923,31.181664575230013L96.08653233173078,25.363893237980953L96.49971216346155,20.946867520158953L96.51470495192308,32.49155532230033L96.6637546875,35.31096241690898L96.88189975961538,21.769107471812873L96.91831081730768,18.568643168969594L97.06012117788462,24.133540066805768L97.49765358173076,20.751720883629563L97.55771040865385,12.181784456426437L98.29841841346153,29.405654668808005L98.36065990384616,27.60279016061264L98.5886573798077,18.90577392144638L98.6961342548077,21.702594377777817L98.76248805288462,24.623022729700274L98.88275163461539,18.03186763416639L99.4324729326923,26.150483705780747L99.50225365384615,15.89830788699064L100.03049242788462,14.127208536321456L100.10151540865385,26.05725987391039L100.67432560096154,20.450997298414066L100.91014074519231,18.73848893425683L101.56930939903846,24.40687195821243L102.08521125,25.080874508077457L102.11913778846154,12.250992601568038L102.14269788461539,26.771640235727496L102.63420432692307,15.574508526108485L102.67502754807693,22.46997421438045L102.92675646634616,20.28652245348151L103.21958704326924,10.613072893836279L103.26904182692307,13.932790810411618L103.75290194711539,43.61908565868033L103.87494324519231,10.025072206150403L104.72167168269232,23.40484044768596L104.78022923076922,21.75367566672241L104.8885842548077,17.43875498121436L105.09306447115384,14.15803378278558L105.15719076923077,19.975968165831144L105.16789990384615,31.907256733287483L105.38927913461539,13.613432049751282L105.96337442307693,27.81747351993216L106.38901968750001,11.177153804085474L106.69243088942308,8.625170588493347L106.72588622596153,23.144849538803122L106.73445353365385,6.18265823884443L106.8049410576923,10.787483941424975L106.84610697115384,17.482441663742087L106.9976840625,14.812595519152548L107.51694858173077,16.492206996137455L107.94297937500001,21.586831862276263L108.0004660096154,24.925357591022163L108.14566045673077,16.00052801045504L108.28599295673077,20.875424688512638L108.55967560096154,20.114883184433005L108.59377348557692,15.807750333439222L109.55941615384616,17.848335612903963L109.81459341346154,22.591030922803036L110.04349045673077,10.577739910645926L110.47262689903846,20.887538032098256L110.51051581730769,16.81811636144466L110.95342420673077,13.24820946563374L111.58571293269232,21.782899228009335L112.20819209134615,6.832482056184256L112.714284375,18.238532976670704L112.78807031250001,15.651264732534225L112.90242245192309,11.527865312316198L112.97055396634616,13.946112611077051L113.12348040865385,17.297873822125545L113.18006747596154,2.0641310106624275L113.18863478365385,2.530518716031864L113.32003586538461,12.958668903871024L113.68545295673077,12.69937813282013L113.71229004807692,2.6072173768823887L113.87984516826923,-4.622194875370354L113.88841247596154,7.684990980408412L113.96427598557693,29.074364792216926L114.14678105769231,17.425068725239168L114.16177384615384,20.135311863639153L114.25507182692307,17.705977450717597L114.3665325,13.766234733841639L114.95315747596153,15.588923692703247L115.40619670673077,16.21503873304888L115.43618228365384,15.343741178512573L115.74736831730769,15.871098420836706L116.04060584134615,18.481241031126554L116.47057759615384,10.666331323710349L116.48974694711539,15.542906414378772L116.60035088942308,27.315724058584745L116.88345757211538,9.634644660082724L116.95842151442308,2.510713447224012L117.2013046875,1.5244781970977783L117.98804055288463,4.007876677946603L118.10800427884615,14.676068641922694L118.27435997596153,0.4763430898839688L118.35084461538462,10.260874791578805L118.58672401442307,10.100274682044983L118.62099324519231,8.716533780097961L118.78593533653847,10.921152721751819L118.96623432692307,8.517272634939706L120.42779560096155,13.736934445121069L120.51698127403846,12.943208325992932L120.6439059375,2.7085934985767692L120.68588574519231,12.59112531488591L120.92795502403847,5.440301136537039L121.0353890625,-0.5708904699845676L121.15890822115385,12.579386017539282L121.23438620192309,2.0676892453974034L121.34394064903847,10.592740123922184L121.37853115384615,18.98496622389014L121.40851673076922,20.2995469353416L121.48384478365384,19.667332064021736L121.56478442307692,23.278911547227345L121.59477,4.151539206504822L121.85585870192307,5.445441874590782L121.99353533653846,14.490167661146677L122.04219764423077,12.470394698056314L122.26520466346153,16.50686193596235L122.4854273076923,5.854360732165245L122.58116697115385,12.65933600339022L123.1973919951923,23.73121976852419L123.86664865384616,4.207041913812802L124.1557738701923,22.26835370063784L124.76732971153847,5.8738590912385344L124.8803967548077,14.018380262634974L124.93244314903845,27.970429658889792L125.1989292548077,10.006273984909058L125.3672554326923,6.470194296403372L125.4948440625,18.17079224369744L125.53361112980768,0.749550299210989L126.30869545673077,11.551526134664352L126.41420185096153,13.846405311064279L126.60797293269232,11.625683199275622L126.64142826923077,0.7733837582848253L126.70463358173076,8.250146074728525L126.85788129807692,3.479800115932116L127.61056211538461,-1.6013207218863783L127.61343216346154,3.9727259224111293L128.0076139903846,-3.5942199013449967L128.34358096153846,5.005275769667184L128.66975978365383,6.682153831828723L128.86528716346155,9.579947590827942L128.979489375,3.8647800142114903L129.10480766826925,2.00108024207029L129.95873264423076,6.348475813865662L130.05920574519232,12.46765169230375L130.07580490384615,-3.8367745009335747L130.38756923076923,7.555206526409497L130.48566490384616,6.796899708834556L130.62516209134614,5.659789551388135L130.98034125,0.5026126449758267L131.09563579326922,11.675920486450195L131.22498072115383,3.455583019690073L131.5499601201923,-1.004093560305523L131.5871208173077,12.195566621693704L131.91034391826923,22.258820317008293L132.16203000000002,7.294831980358472L132.38250966346155,2.1707629615610387L132.45034132211538,0.3385693918574958L132.58604747596155,7.196246819062674L132.77088713942308,3.5192380168221176L132.80286461538464,4.950463609261954L133.43982252403848,3.2205764813856717L133.56239927884616,11.984364769675512L134.0572898076923,19.498454982584185L134.07228259615385,6.174035993489357L134.07967189903846,20.019817894155338L134.08823920673078,18.00240429964935L134.38573896634614,1.6623669862747192L134.47820163461537,13.86894399469548L134.82436370192306,8.177830468524585L134.85518459134616,20.42816129597752L134.89962749999998,9.542082602327511L134.93175490384616,6.692377762361014L135.17742245192306,-0.45777505094355875L135.9830278125,5.017005476084617L136.02920560096155,15.847878781231973L136.12192528846154,9.603071321140638L136.18076127403847,16.800421097061875L136.3656651923077,10.957013206048453L136.63746302884616,13.497544852170083L136.7327100721154,7.1379723332145035L137.17193451923077,13.247643600810656L137.39140752403847,13.541797399520874L137.3978330048077,4.317164962941959L137.45315639423077,4.417044899680394L137.51951019230768,9.333729256283155L137.89702860576924,12.208389694040463L137.9071166105769,12.66330664808099L137.92425122596154,21.084679581902268L138.26214584134615,11.895284219221628L138.3729853846154,6.439225186001172L138.79319040865386,6.270444013855678L139.0543219471154,11.321583606980067L139.4998862019231,8.802152005108926L139.56917430288462,7.362553531473324L139.92433204326923,16.564417102120164L139.95431762019228,11.353703628886828L140.13521632211538,11.929284063252542L140.51040014423077,11.772491552613001L140.57921704326924,10.833098400722852L140.9553004326923,7.351639054038304L141.58641115384614,22.79757158322769L141.59926211538462,1.3315662470730816L141.97358920673076,1.5984338521957397L142.55378870192308,4.853201996196399L143.67441396634615,11.173231114040723L143.7818480048077,16.196509057825274L143.98045961538463,6.742931550199344L144.22229329326925,6.462751735340467L144.3363455769231,6.566343361681149L144.39770891826925,19.415205717086813L144.56143016826923,3.139609857039011L144.6175246153846,8.4721664948897L144.65387141826923,8.645321130752563L145.2122456971154,3.7724769115448L145.69948990384614,-0.05934866991908638L145.797114375,8.625410361723459L146.04967860576923,4.062794338573108L146.48605442307692,9.049473296512256L146.54988086538464,8.863284587860107L146.6891638701923,-7.683715386824167L147.4187557932692,4.11061471158807L147.61421891826924,11.340065327557657L147.6270698798077,-0.14386393807150744L147.67359036057692,16.64617018266159L147.86359182692308,13.285163315859702L148.23569141826923,9.647515687075522L148.4925821394231,17.492377866398225L148.6479716826923,0.11858224868774414L149.58731271634616,4.2881236293099105L149.7589158894231,17.57551204074515L149.90633783653848,9.173359329050228L150.10796942307692,2.017068321054623L150.24384692307692,3.023118430917904L150.44603538461539,19.474803751165226L150.7512243028846,10.034097270532095L151.71134105769232,13.166293339295828L151.8804811298077,12.016072381626477L152.50178228365385,11.189487739042795L152.56575865384616,19.34761843898082L152.58289326923077,15.502154556187723L153.24917278846152,21.151269403370968L153.5624792307692,19.209633740511823L153.97111838942305,6.6623485630208705L154.26247110576924,9.025160290978175L154.40910057692307,5.53062850778754L154.41124240384613,2.106427008455441L154.58824298076922,6.343095302581787L154.9171205048077,14.277018850499923L155.14764533653846,14.071619510650635L155.32402478365384,17.356685400009177L155.57999451923075,7.836901708082712L155.811954375,9.909865964542737L155.9674510096154,8.36797064000909L156.0768126923077,1.1064863204956055L156.67592451923076,1.9308458675037712L156.69539372596157,7.299934354695412L157.0453039903846,15.874157927253027L157.4667084375,16.346060416915215L157.70055310096154,9.249875762245875L157.8146910576923,19.28559389981358L158.21469865384614,15.252915078943417L158.31330836538461,7.771453207189396L158.4861966346154,14.619491750543759L158.6435994951923,20.54198644377971L158.70849685096155,16.879191398620627L158.8053716826923,5.3320003639568L158.9602471875,18.327460072257317L159.04939002403844,20.49366734244609L159.18355406249998,15.62454440376975L159.59630552884616,27.86579262126578L159.89569009615383,9.464961940591976L160.41998790865384,10.262581976977255L161.14874451923077,7.765900059179819L161.44095396634614,18.80113688382237L161.77709228365384,15.53199193694375L161.8362067067308,5.314314690503212L161.93183927884616,27.53044578162109L162.81365084134615,25.218657797033146L162.8842026201923,12.158478498458862L162.96587048076924,13.610631498423484L164.53559401442308,11.21421315453269L164.53773584134618,15.740642601793454L164.57281896634615,8.21610786698081L164.77824158653846,12.523624355142758L164.88550427884616,24.425411224365256L165.05944204326923,20.32166361808779L165.22408427884616,18.898801315914522L165.93885475961537,18.938747536052375L166.06260951923076,9.37016519633207L166.44306223557692,14.745123332197005L166.44520406249998,7.425709800286734L166.47304781250003,21.842478080229338L166.7697979326923,21.942549835551887L167.04225973557695,9.112197973511439L167.08565314903845,20.689226388931296L167.47514437499999,5.968838063153359L167.59352314903848,6.591020822525024L167.7594290625,10.994859012690451L168.00505377403846,19.01762333783238L169.14105735576925,21.323954083702805L169.14962466346154,15.662227164615283L169.21415790865385,9.805363199927587L169.28835079326925,10.458898706869638L169.39597759615384,16.968243176286883L169.55650752403847,26.549034768884844L170.09806846153847,16.07341907241128L170.26836512019233,15.57449893517927L170.9320101923077,27.4723535234278L171.16964588942307,2.173515558242798L171.4343114423077,16.307303471998747L171.4865291826923,15.393537282943726L171.73039759615384,14.285804141651502L172.05439175480768,20.056627880443244L172.17150685096152,3.1019079143350865L172.27827692307693,11.722954403270373L172.32366223557693,15.268538702617994L172.3927789903846,14.015992121262991L172.4453822596154,2.9657934470610257L172.78186326923077,-3.91737666997044L172.94440651442306,4.98401267962023L172.99011310096154,18.002500208941388L172.9943967548077,1.791067665273502L173.2067803125,11.529428633776572L173.21320579326922,18.624299331144865L173.53683584134615,9.59962817755613L173.88340485576921,9.197988835248086L174.19928149038464,24.180535619909122L174.35704846153845,10.032965540885925L174.48521538461537,7.1260412172837615L174.8401589423077,22.883496717973195L175.13206853365384,6.437585137107152L176.03206420673075,19.52686331488872L176.11690197115385,16.367045370015255L176.12761110576923,17.533944953571687L176.22540692307692,7.661272612485024L176.35130350961538,4.109569300304761L176.39966596153846,-0.27150002392856987L176.58349896634616,-0.1579817858609429L176.95480608173077,5.062149979851466L176.96939192307693,10.429943691600451L178.37995629807693,4.694692709229213L178.45624817307692,14.080443165519018L178.9554009375,18.19873062047093L179.0209836778846,7.170782902024013L179.6449406971154,19.737940484827227L179.68259401442307,10.844463651830509L179.85199110576923,11.004210168665097L179.98159305288462,-5.1370551369407L180.1243672355769,6.1430381102995515L180.60996223557694,5.628120303153992L180.61424588942307,16.59712217070842L180.87942548076924,2.4317800998687744L180.9689324278846,8.622379628094766L181.21899072115386,8.037256219170313L181.6655830528846,22.690939632329098L181.77211752403846,7.341376759789211L182.07255158653845,4.007473858920005L182.17120413461538,14.55968271602284L182.2378363701923,7.887388359416613L182.41385170673078,11.999633528969508L182.65660637019232,-0.7478814775293416L182.67159915865386,3.5267381234602566L182.69353146634617,5.887660438364193L183.00465324519232,5.159766457297581L183.26428550480767,5.324538621035484L183.52937942307693,5.578583153811363L183.81278596153845,26.78756117820742L183.96061485576922,22.472851493141892L184.19840048076924,7.7214077385989155L184.53098336538463,17.313957810401938L184.73734838942306,8.409940546209171L185.13876959134615,5.31951297413219L185.2276982451923,-4.168256196108746L185.37912540865383,18.503511168740037L185.49975310096153,9.406361363150854L186.56706829326924,10.491853139617223L186.70997098557692,8.15700856122103L186.87155040865386,6.118753877553078L186.89950125,7.996485179120853L186.98189733173078,11.013743552294638L187.04765141826923,-8.102685538205218L187.6834955769231,-1.1701700904152574L187.91442735576922,12.34630725600503L188.2875764423077,4.499939300797206L188.33600314903845,11.818729422309179L188.7401230528846,17.509727857329644L188.79227653846152,9.579631090164185L189.06484543269232,14.90787180987272L189.07983822115384,-4.793047688224095L189.12815783653846,8.447805534709582L189.19845259615383,7.605875405398277L189.206634375,17.804140611128386L189.34261896634618,12.892011945897872L189.48087389423077,3.231279958378187L189.86728088942309,3.905704509128222L189.9468497596154,3.87753595005382L189.98111899038463,10.674685023047704L190.28159588942307,1.9137931953776985L190.3356770192308,1.1626124382019043L190.41130492788463,-1.35040283203125L190.8564622355769,-2.1326773816888878L190.9427564423077,15.01903067935597L191.10735584134616,3.452619422565809L191.21164139423078,6.858483065258374L191.25075115384615,9.082168774171317L191.46426987980772,6.448346159674901L192.01881028846154,11.32160278883848L192.25736697115386,12.93629326603629L192.32858271634615,8.133568330244577L193.21611295673077,3.1171670826998676L193.48570471153846,6.971013437617907L193.8422118028846,10.219000794670801L194.4179991346154,8.281230276281192L194.67240533653845,3.3396670493212666L194.85831591346155,6.066157221794128L194.92884627403848,20.066966902125984L195.0569489423077,16.880457401275656L195.0951162980769,6.018825986168605L195.25331163461536,3.6089132048866928L195.5658684375,8.137260837988412L195.6748017548077,10.921450040557165L195.9661973076923,11.09018325805664L196.47344617788463,12.362285744060168L197.00007858173078,20.197978995063103L197.33885134615386,5.00881482254375L197.43917451923076,8.570185791362414L197.84719254807692,2.12109153920953L197.91397471153846,4.5601031996987045L197.92935302884615,13.846942403099757L198.32522689903846,2.6195609027689244L198.35688310096154,12.186714194037695L198.49488100961537,14.509464610706678L198.75916103365387,-3.6362665349786827L198.9366970673077,17.444001219489373L199.04948567307693,6.830026778307823L199.21226451923079,11.261448480866175L199.63664610576922,5.302441120147705L199.7039423076923,8.909541639414694L199.78220466346153,12.053908597339282L199.9504880048077,16.89396142959597L200.26503670673077,15.545495965264063L200.65506338942308,6.142328381538391L200.71978939903846,4.922132004391065L200.78954870192308,13.661501786925573L200.9244623798077,7.4074678529392575L201.00664427884615,13.90993562611666L201.0297117548077,18.439558852802644L201.15882108173076,-1.244749155911518L201.64899959134615,18.282344341278097L201.7106413701923,8.16308921033685L202.6242376442308,9.116552255370397L203.02407389423078,24.75146445361053L203.0378886778846,11.915981444445517L203.31414151442308,2.282324650070888L203.34198526442307,4.117539362473929L203.4372751442308,3.586796522140503L203.49294122596154,8.12255794351752L203.60382360576924,11.889404979619119L203.78981985576922,10.879528089003122L204.59555372596154,4.6451267870989765L204.7149605769231,10.169444463469762L204.93756064903846,3.827221935445621L205.0740806971154,7.581054080616346L205.16602932692308,6.0893672704696655L205.48231290865385,13.700488914142957L205.50801483173075,18.21853588927878L206.05987795673076,7.001234455542123L206.12391858173075,0.8201874928040866L206.14972759615387,2.3492981087077767L206.64549627403846,18.132879300550993L206.7855075,11.950432062149048L207.2739511298077,9.951864643530405L207.46669413461538,7.741644599220973L207.56864509615386,14.099020795388663L207.79364401442308,10.840828689661887L208.28870588942308,4.544316530227661L208.50376673076923,16.86935110525652L208.68018901442306,32.62707515196367L208.7144582451923,-2.139122486114502L209.51207459134616,12.846666032617733L209.5480358653846,7.643260847438464L209.77948168269234,0.361271121285182L209.81994079326924,4.364870244806454L209.98925221153846,-1.7860612002286187L210.54132951923077,-4.677035808563232L210.71575990384616,9.380734400315726L210.98995658653845,0.17678000710226915L211.98224358173078,5.918917276642543L212.30343194711537,5.520893714644688L212.34573302884615,4.29229568351399L212.77551201923077,-2.035444541410959L212.98125591346152,4.6859170090068485L213.14311377403845,19.181167862632073L213.45674149038462,22.451636357740934L213.49874271634616,7.54204777154055L213.50516819711538,26.656443585049043L213.63524134615386,12.82280380075627L213.68266139423076,17.040606737136862L213.689086875,8.910011594945743L214.261554375,7.5148958509618495L214.43977579326923,8.985146934335873L214.49407110576925,0.236493132331151L214.7581369471154,10.904397368431091L214.88979504807693,5.549148592081932L215.7702786778846,12.649380618875668L215.8939049278846,18.564825979146114L215.89818858173078,6.8467149951241195L215.96295742788462,9.637617848136205L216.11076490384613,15.763248421929102L216.6028924759615,11.29517977887933L216.80448122596155,8.83681362325494L217.32338163461537,31.975304375995307L217.7461354326923,8.457876010374582L218.22294894230768,3.8465188850056022L218.55773790865385,11.076314774426553L219.22624492788464,-0.2174647287888889L219.31862192307693,3.512773730538112L219.55212389423076,-0.5675528266213121L219.6303219951923,6.415497227148569L220.0747725,16.507849801670442L220.29917170673076,5.114708271893593L220.592109375,2.0203388279134487L220.64891062499998,-3.33537990396672L220.91295504807692,7.150881723924124L221.200216875,8.721799200231388L221.3168821875,11.427764784206042L221.3845425,4.337996461174709L221.53384925480768,0.1735478639602661L221.61170466346152,11.390619115395987L222.33080163461537,10.586947202682495L222.5170120673077,23.157624656503863L222.5649675721154,9.845146374268973L222.6916780528846,4.7436544028195415L223.25373627403846,6.097308559851205L223.4222123798077,0.959092920476749L223.59959848557693,19.70199368216777L223.6838151201923,4.134774262254879L223.7459709375,15.515303720127454L223.88148432692307,10.49742546948519L223.94914463942308,14.335782473737533L224.75331497596156,2.9873826287009537L225.04490329326924,10.567736571485355L225.18947661057692,13.75483111901716L225.33677004807691,13.693257353522558L225.58924860576923,18.418593081561017L225.68336048076924,7.9411934722553585L225.9677094230769,28.226574605161503L226.0876303125,16.897586800835374L226.27484740384614,17.826775204051643L226.386950625,16.664344993504635L226.55557665865385,4.546311443502262L226.78571596153847,19.821285659616656L226.80619182692308,7.2646685080094695L227.10564064903846,0.9862640229138407L227.25749617788463,17.94159780849112L227.65833908653846,11.431773792613635L227.80439026442306,5.697740858251407L227.90578435096154,14.162733338095922L227.94245242788463,8.271054300394919L228.07745177884615,7.880655527114868L228.3892589423077,0.7916352965614977L228.88095814903846,21.70829138972545L229.01525069711536,16.088112375952978L229.46711192307694,-4.491777420043945L229.96217379807692,15.561244271018285L230.0051816826923,13.05546056140553L230.1813469471154,16.70519276098772L230.18563060096156,20.700735503977008L230.75098723557693,3.848552161997006L230.95561737980768,4.9616178599270855L231.59165430288462,28.760712634433418L231.67381478365385,1.3749652017246574L232.0237893028846,9.049003340981226L232.18579709134616,2.1302988312461197L232.23405245192308,-5.560379570180709L232.5774301442308,-2.498398694125103L232.80030865384614,11.87078898603265L232.8670265625,9.008098027922887L232.9228425721154,22.49403785575522L232.94119802884615,21.280737356706105L233.09208973557693,17.817721366882346L233.223705,8.26228819110177L233.24940692307692,16.64073212580248L233.42165264423076,17.59103975512767L233.5865733173077,14.857557795264501L233.79994211538462,13.876808556643393L233.84130079326923,16.849612972953118L233.96449867788462,16.191003864461734L234.00086689903847,5.994695208289403L234.12143033653845,15.619259801777932L234.14462632211539,-1.4189396121285143L234.5469256730769,7.122665210203683L235.02947927884617,13.124256296591318L235.0707094471154,4.9091554771770145L235.81996334134615,16.764176975597053L235.8349561298077,13.031022873791787L236.1843095192308,7.449696714227841L236.25668185096154,12.481165311553259L236.322714375,2.4344559691169083L236.43764480769232,4.776378653266209L236.62623266826924,13.843182758851492L237.03705649038463,10.499477928335025L237.1033031971154,10.716463110663671L237.21694853365383,8.9877940307964L237.29107716346155,6.828473047776663L237.31249543269232,12.429671612652871L237.72154153846154,11.508520408110178L237.9550006730769,4.1436842354861225L238.25815485576925,6.9088354435833965L238.37267834134616,9.588819200342343L238.8184996153846,3.147695010358646L239.11910502403845,8.943503119728785L239.27674348557693,8.136464790864432L239.59167771634617,8.263026692650538L239.96379872596154,10.938512303612452L240.08451209134614,8.457712964578116L240.86377298076923,9.81229744174264L241.08144685096153,2.468849041245204L241.11049002403848,11.669350699944937L241.15118473557692,5.816092924638236L241.23600108173076,-1.981754519722682L241.29764286057693,-2.316420403393818L241.32548661057692,12.246849320151586L241.4060193028846,18.151562430641892L241.48946487980768,-2.7578716928308555L241.50874132211538,9.514853954315186L241.6286836298077,7.993790128014308L241.67841685096155,3.774778734553942L242.0320967307692,1.6685723174702018L242.0363803846154,10.009554082697079L242.3916023798077,6.3788886503739715L242.75834740384616,0.8381129394878059L242.95134742788463,18.07157408107413L243.04734411057692,-1.1082894151861125L243.10202495192308,11.997830434279L243.13048983173076,5.911484306508854L243.53523086538462,5.003530220551932L244.0152571153846,18.098332773555427L244.1342784375,3.193673924966299L244.38996973557693,7.3239788142117535L244.75855673076924,4.802159070968628L244.96800598557692,2.334930896759033L245.18535858173078,12.752799608490687L245.88230906249998,2.897812940857631L246.1600397596154,4.429983063177621L247.26498685096155,15.169157494198194L247.34950334134615,11.899676864797408L247.41819173076922,21.99618231166495L247.80459872596154,4.7714585065841675L248.6981475,11.358566229993636L248.98438125,3.765801624818289L249.55875497596153,10.67903930490668L250.05424521634615,9.165341312235043L250.1186071153846,13.37012935768474L250.35549317307692,1.2015324289148595L250.357635,12.229489738290951L250.4802974278846,15.81877990202471L250.89060721153845,11.304732344367284L250.8991745192308,8.021546277132895L251.06323846153845,9.552565487948325L251.57012322115386,8.2973622192036L252.0735810576923,7.777102264490989L252.34077396634615,9.404596632177189L252.40896973557693,11.129678704521876L252.58108694711538,4.296966466036705L252.59393790865383,11.539863564751368" style="fill: none;" fill="none"></path></g></g></g></g></g></g><g transform="translate(51, 177)" clip-path="url(#clip_1)"><clipPath id="clip_1"><rect width="278" height="23"></rect></clipPath><g><g><line x1="0" y1="0" x2="0" y2="5" style="visibility: inherit;" fill="rgb(0, 0, 0)" stroke="rgb(204, 204, 204)" stroke-width="1px"></line><line x1="21.418269230769234" y1="0" x2="21.418269230769234" y2="5" style="visibility: inherit;" fill="rgb(0, 0, 0)" stroke="rgb(204, 204, 204)" stroke-width="1px"></line><line x1="42.83653846153847" y1="0" x2="42.83653846153847" y2="5" style="visibility: inherit;" fill="rgb(0, 0, 0)" stroke="rgb(204, 204, 204)" stroke-width="1px"></line><line x1="64.2548076923077" y1="0" x2="64.2548076923077" y2="5" style="visibility: inherit;" fill="rgb(0, 0, 0)" stroke="rgb(204, 204, 204)" stroke-width="1px"></line><line x1="85.67307692307693" y1="0" x2="85.67307692307693" y2="5" style="visibility: inherit;" fill="rgb(0, 0, 0)" stroke="rgb(204, 204, 204)" stroke-width="1px"></line><line x1="107.09134615384616" y1="0" x2="107.09134615384616" y2="5" style="visibility: inherit;" fill="rgb(0, 0, 0)" stroke="rgb(204, 204, 204)" stroke-width="1px"></line><line x1="128.5096153846154" y1="0" x2="128.5096153846154" y2="5" style="visibility: inherit;" fill="rgb(0, 0, 0)" stroke="rgb(204, 204, 204)" stroke-width="1px"></line><line x1="149.9278846153846" y1="0" x2="149.9278846153846" y2="5" style="visibility: inherit;" fill="rgb(0, 0, 0)" stroke="rgb(204, 204, 204)" stroke-width="1px"></line><line x1="171.34615384615387" y1="0" x2="171.34615384615387" y2="5" style="visibility: inherit;" fill="rgb(0, 0, 0)" stroke="rgb(204, 204, 204)" stroke-width="1px"></line><line x1="192.76442307692307" y1="0" x2="192.76442307692307" y2="5" style="visibility: inherit;" fill="rgb(0, 0, 0)" stroke="rgb(204, 204, 204)" stroke-width="1px"></line><line x1="214.18269230769232" y1="0" x2="214.18269230769232" y2="5" style="visibility: inherit;" fill="rgb(0, 0, 0)" stroke="rgb(204, 204, 204)" stroke-width="1px"></line><line x1="235.60096153846155" y1="0" x2="235.60096153846155" y2="5" style="visibility: inherit;" fill="rgb(0, 0, 0)" stroke="rgb(204, 204, 204)" stroke-width="1px"></line><line x1="257.0192307692308" y1="0" x2="257.0192307692308" y2="5" style="visibility: inherit;" fill="rgb(0, 0, 0)" stroke="rgb(204, 204, 204)" stroke-width="1px"></line><line x1="278.4375" y1="0" x2="278.4375" y2="5" style="visibility: inherit;" fill="rgb(0, 0, 0)" stroke="rgb(204, 204, 204)" stroke-width="1px"></line></g><g transform="translate(0, 8)"><text x="0" y="0" dx="0em" dy="0.95em" style="text-anchor: middle; visibility: hidden; font-family: Roboto, sans-serif; font-size: 12px; font-weight: 200;" fill="rgb(255, 255, 255)" stroke="none" stroke-width="1px">-1M</text><text x="21.418269230769234" y="0" dx="0em" dy="0.95em" style="text-anchor: middle; visibility: inherit; font-family: Roboto, sans-serif; font-size: 12px; font-weight: 200;" fill="rgb(255, 255, 255)" stroke="none" stroke-width="1px">0</text><text x="42.83653846153847" y="0" dx="0em" dy="0.95em" style="text-anchor: middle; visibility: hidden; font-family: Roboto, sans-serif; font-size: 12px; font-weight: 200;" fill="rgb(255, 255, 255)" stroke="none" stroke-width="1px">1M</text><text x="64.2548076923077" y="0" dx="0em" dy="0.95em" style="text-anchor: middle; visibility: inherit; font-family: Roboto, sans-serif; font-size: 12px; font-weight: 200;" fill="rgb(255, 255, 255)" stroke="none" stroke-width="1px">2M</text><text x="85.67307692307693" y="0" dx="0em" dy="0.95em" style="text-anchor: middle; visibility: hidden; font-family: Roboto, sans-serif; font-size: 12px; font-weight: 200;" fill="rgb(255, 255, 255)" stroke="none" stroke-width="1px">3M</text><text x="107.09134615384616" y="0" dx="0em" dy="0.95em" style="text-anchor: middle; visibility: inherit; font-family: Roboto, sans-serif; font-size: 12px; font-weight: 200;" fill="rgb(255, 255, 255)" stroke="none" stroke-width="1px">4M</text><text x="128.5096153846154" y="0" dx="0em" dy="0.95em" style="text-anchor: middle; visibility: hidden; font-family: Roboto, sans-serif; font-size: 12px; font-weight: 200;" fill="rgb(255, 255, 255)" stroke="none" stroke-width="1px">5M</text><text x="149.9278846153846" y="0" dx="0em" dy="0.95em" style="text-anchor: middle; visibility: inherit; font-family: Roboto, sans-serif; font-size: 12px; font-weight: 200;" fill="rgb(255, 255, 255)" stroke="none" stroke-width="1px">6M</text><text x="171.34615384615387" y="0" dx="0em" dy="0.95em" style="text-anchor: middle; visibility: hidden; font-family: Roboto, sans-serif; font-size: 12px; font-weight: 200;" fill="rgb(255, 255, 255)" stroke="none" stroke-width="1px">7M</text><text x="192.76442307692307" y="0" dx="0em" dy="0.95em" style="text-anchor: middle; visibility: inherit; font-family: Roboto, sans-serif; font-size: 12px; font-weight: 200;" fill="rgb(255, 255, 255)" stroke="none" stroke-width="1px">8M</text><text x="214.18269230769232" y="0" dx="0em" dy="0.95em" style="text-anchor: middle; visibility: hidden; font-family: Roboto, sans-serif; font-size: 12px; font-weight: 200;" fill="rgb(255, 255, 255)" stroke="none" stroke-width="1px">9M</text><text x="235.60096153846155" y="0" dx="0em" dy="0.95em" style="text-anchor: middle; visibility: inherit; font-family: Roboto, sans-serif; font-size: 12px; font-weight: 200;" fill="rgb(255, 255, 255)" stroke="none" stroke-width="1px">10M</text><text x="257.0192307692308" y="0" dx="0em" dy="0.95em" style="text-anchor: middle; visibility: hidden; font-family: Roboto, sans-serif; font-size: 12px; font-weight: 200;" fill="rgb(255, 255, 255)" stroke="none" stroke-width="1px">11M</text><text x="278.4375" y="0" dx="0em" dy="0.95em" style="text-anchor: middle; visibility: hidden; font-family: Roboto, sans-serif; font-size: 12px; font-weight: 200;" fill="rgb(255, 255, 255)" stroke="none" stroke-width="1px">12M</text></g><line x1="0" y1="0" x2="278.4375" y2="0" fill="rgb(0, 0, 0)" stroke="rgb(204, 204, 204)" stroke-width="1px"></line></g></g></g></g></svg>