<svg viewBox="0 0 330 200" xmlns="http://www.w3.org/2000/svg"><g><g><g><g><g><line x1="41.171875" y1="177" x2="36.171875" y2="177" style="visibility: inherit;" fill="rgb(0, 0, 0)" stroke="rgb(204, 204, 204)" stroke-width="1px"></line><line x1="41.171875" y1="157.33333333333331" x2="36.171875" y2="157.33333333333331" style="visibility: inherit;" fill="rgb(0, 0, 0)" stroke="rgb(204, 204, 204)" stroke-width="1px"></line><line x1="41.171875" y1="137.66666666666666" x2="36.171875" y2="137.66666666666666" style="visibility: inherit;" fill="rgb(0, 0, 0)" stroke="rgb(204, 204, 204)" stroke-width="1px"></line><line x1="41.171875" y1="118.00000000000001" x2="36.171875" y2="118.00000000000001" style="visibility: inherit;" fill="rgb(0, 0, 0)" stroke="rgb(204, 204, 204)" stroke-width="1px"></line><line x1="41.171875" y1="98.33333333333334" x2="36.171875" y2="98.33333333333334" style="visibility: inherit;" fill="rgb(0, 0, 0)" stroke="rgb(204, 204, 204)" stroke-width="1px"></line><line x1="41.171875" y1="78.66666666666666" x2="36.171875" y2="78.66666666666666" style="visibility: inherit;" fill="rgb(0, 0, 0)" stroke="rgb(204, 204, 204)" stroke-width="1px"></line><line x1="41.171875" y1="59.00000000000001" x2="36.171875" y2="59.00000000000001" style="visibility: inherit;" fill="rgb(0, 0, 0)" stroke="rgb(204, 204, 204)" stroke-width="1px"></line><line x1="41.171875" y1="39.33333333333333" x2="36.171875" y2="39.33333333333333" style="visibility: inherit;" fill="rgb(0, 0, 0)" stroke="rgb(204, 204, 204)" stroke-width="1px"></line><line x1="41.171875" y1="19.666666666666675" x2="36.171875" y2="19.666666666666675" style="visibility: inherit;" fill="rgb(0, 0, 0)" stroke="rgb(204, 204, 204)" stroke-width="1px"></line><line x1="41.171875" y1="0" x2="36.171875" y2="0" style="visibility: inherit;" fill="rgb(0, 0, 0)" stroke="rgb(204, 204, 204)" stroke-width="1px"></line></g><g transform="translate(31.171875, 0)"><text x="0" y="177" dx="0em" dy="0.3em" style="text-anchor: end; visibility: hidden; font-family: Roboto, sans-serif; font-size: 12px; font-weight: 200;" fill="rgb(255, 255, 255)" stroke="none" stroke-width="1px">-25</text><text x="0" y="157.33333333333331" dx="0em" dy="0.3em" style="text-anchor: end; visibility: inherit; font-family: Roboto, sans-serif; font-size: 12px; font-weight: 200;" fill="rgb(255, 255, 255)" stroke="none" stroke-width="1px">-20</text><text x="0" y="137.66666666666666" dx="0em" dy="0.3em" style="text-anchor: end; visibility: hidden; font-family: Roboto, sans-serif; font-size: 12px; font-weight: 200;" fill="rgb(255, 255, 255)" stroke="none" stroke-width="1px">-15</text><text x="0" y="118.00000000000001" dx="0em" dy="0.3em" style="text-anchor: end; visibility: inherit; font-family: Roboto, sans-serif; font-size: 12px; font-weight: 200;" fill="rgb(255, 255, 255)" stroke="none" stroke-width="1px">-10</text><text x="0" y="98.33333333333334" dx="0em" dy="0.3em" style="text-anchor: end; visibility: hidden; font-family: Roboto, sans-serif; font-size: 12px; font-weight: 200;" fill="rgb(255, 255, 255)" stroke="none" stroke-width="1px">-5</text><text x="0" y="78.66666666666666" dx="0em" dy="0.3em" style="text-anchor: end; visibility: inherit; font-family: Roboto, sans-serif; font-size: 12px; font-weight: 200;" fill="rgb(255, 255, 255)" stroke="none" stroke-width="1px">0</text><text x="0" y="59.00000000000001" dx="0em" dy="0.3em" style="text-anchor: end; visibility: hidden; font-family: Roboto, sans-serif; font-size: 12px; font-weight: 200;" fill="rgb(255, 255, 255)" stroke="none" stroke-width="1px">5</text><text x="0" y="39.33333333333333" dx="0em" dy="0.3em" style="text-anchor: end; visibility: inherit; font-family: Roboto, sans-serif; font-size: 12px; font-weight: 200;" fill="rgb(255, 255, 255)" stroke="none" stroke-width="1px">10</text><text x="0" y="19.666666666666675" dx="0em" dy="0.3em" style="text-anchor: end; visibility: hidden; font-family: Roboto, sans-serif; font-size: 12px; font-weight: 200;" fill="rgb(255, 255, 255)" stroke="none" stroke-width="1px">15</text><text x="0" y="0" dx="0em" dy="0.3em" style="text-anchor: end; visibility: hidden; font-family: Roboto, sans-serif; font-size: 12px; font-weight: 200;" fill="rgb(255, 255, 255)" stroke="none" stroke-width="1px">20</text></g><line x1="41.171875" y1="0" x2="41.171875" y2="177" fill="rgb(0, 0, 0)" stroke="rgb(204, 204, 204)" stroke-width="1px"></line></g></g><g transform="translate(41, 0)" clip-path="url(#clip_0)"><clipPath id="clip_0"><rect width="288" height="177"></rect></clipPath><g><g><g><line x1="0" y1="0" x2="0" y2="177" fill="rgb(0, 0, 0)" stroke="rgb(189, 189, 189)" stroke-width="1px" opacity="0.25"></line><line x1="24.069010416666664" y1="0" x2="24.069010416666664" y2="177" fill="rgb(0, 0, 0)" stroke="rgb(189, 189, 189)" stroke-width="1px" opacity="0.25"></line><line x1="48.13802083333333" y1="0" x2="48.13802083333333" y2="177" fill="rgb(0, 0, 0)" stroke="rgb(189, 189, 189)" stroke-width="1px" opacity="0.25"></line><line x1="72.20703125" y1="0" x2="72.20703125" y2="177" fill="rgb(0, 0, 0)" stroke="rgb(189, 189, 189)" stroke-width="1px" opacity="0.25"></line><line x1="96.27604166666666" y1="0" x2="96.27604166666666" y2="177" fill="rgb(0, 0, 0)" stroke="rgb(189, 189, 189)" stroke-width="1px" opacity="0.25"></line><line x1="120.34505208333334" y1="0" x2="120.34505208333334" y2="177" fill="rgb(0, 0, 0)" stroke="rgb(189, 189, 189)" stroke-width="1px" opacity="0.25"></line><line x1="144.4140625" y1="0" x2="144.4140625" y2="177" fill="rgb(0, 0, 0)" stroke="rgb(189, 189, 189)" stroke-width="1px" opacity="0.25"></line><line x1="168.48307291666669" y1="0" x2="168.48307291666669" y2="177" fill="rgb(0, 0, 0)" stroke="rgb(189, 189, 189)" stroke-width="1px" opacity="0.25"></line><line x1="192.55208333333331" y1="0" x2="192.55208333333331" y2="177" fill="rgb(0, 0, 0)" stroke="rgb(189, 189, 189)" stroke-width="1px" opacity="0.25"></line><line x1="216.62109375" y1="0" x2="216.62109375" y2="177" fill="rgb(0, 0, 0)" stroke="rgb(189, 189, 189)" stroke-width="1px" opacity="0.25"></line><line x1="240.69010416666669" y1="0" x2="240.69010416666669" y2="177" fill="rgb(0, 0, 0)" stroke="rgb(189, 189, 189)" stroke-width="1px" opacity="0.25"></line><line x1="264.7591145833333" y1="0" x2="264.7591145833333" y2="177" fill="rgb(0, 0, 0)" stroke="rgb(189, 189, 189)" stroke-width="1px" opacity="0.25"></line><line x1="288.828125" y1="0" x2="288.828125" y2="177" fill="rgb(0, 0, 0)" stroke="rgb(189, 189, 189)" stroke-width="1px" opacity="0.25"></line></g><g><line x1="0" y1="177" x2="288.828125" y2="177" fill="rgb(0, 0, 0)" stroke="rgb(189, 189, 189)" stroke-width="1px" opacity="0.25"></line><line x1="0" y1="157.33333333333331" x2="288.828125" y2="157.33333333333331" fill="rgb(0, 0, 0)" stroke="rgb(189, 189, 189)" stroke-width="1px" opacity="0.25"></line><line x1="0" y1="137.66666666666666" x2="288.828125" y2="137.66666666666666" fill="rgb(0, 0, 0)" stroke="rgb(189, 189, 189)" stroke-width="1px" opacity="0.25"></line><line x1="0" y1="118.00000000000001" x2="288.828125" y2="118.00000000000001" fill="rgb(0, 0, 0)" stroke="rgb(189, 189, 189)" stroke-width="1px" opacity="0.25"></line><line x1="0" y1="98.33333333333334" x2="288.828125" y2="98.33333333333334" fill="rgb(0, 0, 0)" stroke="rgb(189, 189, 189)" stroke-width="1px" opacity="0.25"></line><line x1="0" y1="78.66666666666666" x2="288.828125" y2="78.66666666666666" fill="rgb(0, 0, 0)" stroke="rgb(189, 189, 189)" stroke-width="1px" opacity="0.25"></line><line x1="0" y1="59.00000000000001" x2="288.828125" y2="59.00000000000001" fill="rgb(0, 0, 0)" stroke="rgb(189, 189, 189)" stroke-width="1px" opacity="0.25"></line><line x1="0" y1="39.33333333333333" x2="288.828125" y2="39.33333333333333" fill="rgb(0, 0, 0)" stroke="rgb(189, 189, 189)" stroke-width="1px" opacity="0.25"></line><line x1="0" y1="19.666666666666675" x2="288.828125" y2="19.666666666666675" fill="rgb(0, 0, 0)" stroke="rgb(189, 189, 189)" stroke-width="1px" opacity="0.25"></line><line x1="0" y1="0" x2="288.828125" y2="0" fill="rgb(0, 0, 0)" stroke="rgb(189, 189, 189)" stroke-width="1px" opacity="0.25"></line></g></g></g><g><g><line x1="0" y1="78.66666666666666" x2="288.828125" y2="78.66666666666666" fill="rgb(0, 0, 0)" stroke="rgb(153, 153, 153)" stroke-width="1.5px"></line></g></g><g><g><line x1="24.069010416666664" y1="0" x2="24.069010416666664" y2="177" fill="rgb(0, 0, 0)" stroke="rgb(153, 153, 153)" stroke-width="1.5px"></line></g></g><g><g><g><g><g><path stroke="rgb(238, 51, 119)" stroke-width="2px" d="M24.357838541666666,161.26666666666665L24.983632812499998,159.26190961603805L25.2724609375,159.9562112373435L26.042669270833336,159.26190961603808L26.1389453125,157.99697706207746L26.283359375,157.8753875977457L26.379635416666666,157.78866811070546L26.668463541666668,158.28459429774992L26.81287760416667,158.161797682399L27.534947916666667,158.06378084950973L27.679361979166668,157.5530218944281L27.92005208333333,157.93258109644646L28.30515625,158.25278744501037L28.642122395833333,157.81229112562983L29.0272265625,157.4318557225566L29.171640625000002,157.42375173921712L29.219778645833333,157.72645542503798L29.556744791666667,157.9943917806527L30.1825390625,157.94617731863642L30.808333333333334,157.9029882125275L31.3378515625,157.86410543313536L31.578541666666666,157.82894063687797L31.722955729166667,158.05043957729333L32.15619791666667,158.2523305914393L32.2043359375,158.43697426843707L32.68571614583333,158.3709069590031L32.92640625,158.54054710857434L33.02268229166666,158.47125204573632L33.070820312500004,158.1856979938296L33.263372395833336,158.35606327344908L33.6484765625,158.51427165851157L34.033580729166665,158.66147288448036L34.08171875,158.38437313082042L34.32240885416667,158.5339773984168L34.85192708333334,158.27115484071413L35.14075520833334,158.0250339178137L35.3814453125,157.99051728084794L35.525859374999996,158.15207806415663L36.103515625,157.92035476562336L36.39234375,157.7022779350256L36.63303385416666,157.49682635254052L36.97,157.4890943035134L37.16255208333334,156.74457264539103L37.258828125,156.40654295330265L38.17345052083333,156.26807056907094L38.414140625,156.31674124852054L38.46227864583333,156.5411722486541L38.702968750000004,156.75386625124764L38.943658854166664,156.77976644554192L39.03993489583333,156.28043321944338L39.425039062500005,156.5004105678067L39.47317708333333,156.7094047847629L39.81014322916667,156.5651354201896L40.0026953125,156.0868929675221L40.4359375,155.80142546569058L40.821041666666666,155.69840231725482L41.591249999999995,155.0965188690367L41.783802083333335,154.85729378252066L42.07263020833334,154.96203574672745L42.26518229166667,155.06191718187603L42.36145833333333,154.99220285462L44.38325520833334,155.09002270729457L44.431393229166666,155.1834020664542L44.527669270833336,155.10943490197167L44.81649739583334,155.36392360716104L45.24973958333334,155.44505231633028L45.346015625,155.1995603397452L45.394153645833335,155.12589020441186L45.53856770833334,154.73434183961567L45.827395833333334,154.5199304132413L46.26063802083334,154.47446851543612L46.40505208333334,154.2717101538497L46.453190104166666,153.60106582402327L46.9345703125,153.43448354912212L47.752916666666664,153.11686011430223L47.849192708333334,152.97044569280894L48.523125,152.67276113351065L48.76381510416667,152.23044934323408L48.86009114583333,151.8066308337653L49.004505208333335,151.40046812574946L49.389609375000006,151.63613779510504L49.678437499999994,151.550108660814L49.77471354166667,151.46762742172197L49.91912760416667,151.23306776780245L50.20795572916667,150.2319600262276L50.44864583333333,149.73678534281652L50.93002604166667,149.57136809845736L51.21885416666667,148.94894041405152L51.50768229166667,148.96926041736336L51.700234375,148.21783298594178L51.989062499999996,147.95872737301121L52.08533854166667,147.24858384869006L52.1334765625,146.72062012684353L52.22975260416667,146.36730985158275L52.32602864583333,146.18146632542263L52.37416666666667,145.69667859265107L52.614856770833335,144.77209765925525L52.66299479166666,144.3429925194508L53.09623697916666,143.4726309238572L53.385065104166664,143.09468643013966L53.48134114583333,142.2741575691864L53.72203125,141.02886601423907L53.96272135416666,140.89869504850705L54.05899739583334,140.01278311867688L54.636653645833334,139.6179395239641L54.973619791666664,138.32679940056792L55.0217578125,137.69382184424407L55.11803385416666,137.54099460765443L55.21430989583334,136.3323197242674L55.262447916666666,135.92893669910956L55.358723958333336,135.38979002430685L55.93638020833333,134.56879744382013L56.08079427083333,133.02297686399822L56.27334635416667,132.14253736288674L56.41776041666667,131.7500274090413L56.562174479166664,131.07046452190835L56.754726562500004,129.20856802757987L56.80286458333333,127.8720181256929L56.995416666666664,127.64408006508926L57.23610677083333,126.36859592099115L57.765625,126.04763373088993L57.95817708333333,125.43748533364051L58.10259114583333,125.30318305381113L58.4876953125,124.26985754201668L58.680247395833334,122.82447058580759L58.82466145833333,121.43486469754936L58.872799479166666,120.3999867731819L58.920937499999994,118.95343076642284L59.25790364583333,116.35874159564494L59.54673177083333,115.06751944647544L59.643007812499995,114.7284341588869L59.69114583333333,112.7483133592898L59.88369791666667,111.29533902529046L60.076249999999995,111.70184498593694L60.268802083333334,110.13920936604507L60.31694010416667,109.08730205545159L60.5094921875,108.0757731299549L60.942734375,106.05178060485508L61.13528645833333,104.10542231133545L61.18342447916667,102.08356507176126L61.231562499999995,101.03982756380648L61.32783854166667,101.38679707092811L61.3759765625,99.76974900879677L61.6648046875,99.71495823818115L61.857356770833334,98.16214690194523L61.90549479166666,97.2687286746521L62.00177083333333,96.25952295802637L62.098046875,94.98901732228038L62.2424609375,93.16736507987409L62.290598958333334,92.16493720886285L62.33873697916666,90.90102917609909L62.386874999999996,91.18424146912277L62.5312890625,89.65823933256904L62.72384114583333,89.53918762574597L62.96453125,88.22599242276975L63.012669270833335,87.5622295524515L63.06080729166666,86.47438138418114L63.349635416666665,84.82887445000212L64.16798177083334,82.19768499124122L64.36053385416666,81.61391984423048L64.45680989583333,80.15386956334767L64.6975,78.45001777489652L65.8528125,76.81115172048914L65.94908854166667,75.23478404844917L66.18977864583333,74.91626222101138L66.2860546875,74.60988405288202L66.47860677083334,75.51277430039633L66.57488281250001,74.58497239976556L66.95998697916667,72.79444227022698L67.24881510416667,70.77279767822347L67.4413671875,69.7261756199646L67.77833333333334,68.12079791629913L67.87460937499999,66.72622804564911L68.1634375,65.23513620470439L68.25971354166667,63.35192709247506L68.40412760416667,61.83970026618585L68.54854166666667,61.133181779855924L68.93364583333333,60.00471224089701L68.98178385416666,58.619985137889806L69.12619791666667,57.13837148823444L69.4631640625,55.56356125439705L69.607578125,54.64708496045819L70.0408203125,54.363859591539295L70.23337239583333,53.34348117696132L70.37778645833333,52.51152029030278L70.42592447916667,51.262488730766336L70.85916666666667,49.91141607035525L70.9073046875,48.91089497004551L71.09985677083334,47.79887944321781L71.1961328125,46.87873707441524L71.24427083333333,45.69448749310175L71.43682291666666,44.40573877133401L71.4849609375,43.31557036848371L71.629375,41.818230123038845L71.67751302083333,40.97602959392259L72.0626171875,40.76403365203611L72.25516927083333,40.70964067466755L72.3514453125,39.61056182992429L72.44772135416667,39.151421186014616L72.495859375,37.66302488824222L72.9291015625,36.97887926294359L73.073515625,35.87217321016806L73.45861979166668,36.4523201782106L73.55489583333333,36.86088301025776L73.79558593750001,36.805349711499815L74.03627604166667,36.602410344342225L74.3732421875,35.65960853802575L74.99903645833334,37.742936182774606L75.28786458333333,37.20534090902839L75.43227864583334,36.389165538197965L75.5285546875,35.454513863382864L75.72110677083333,35.45244177484955L75.91365885416666,35.8989654361526L76.00993489583333,35.132479120435285L76.250625,34.8436418707491L76.29876302083333,34.26678288072528L76.34690104166665,33.71185452000737L76.73200520833333,32.87902510234335L77.02083333333333,33.124339521646405L77.21338541666665,32.76234263835913L77.2615234375,32.2646117407867L77.30966145833334,31.337319187214863L77.74290364583334,31.94020778604277L77.98359375000001,31.47373378271142L78.65752604166666,31.174482872942765L78.75380208333334,31.03609738037841L79.71656250000001,30.45450416850189L79.76470052083333,30.343483484026162L79.95725260416667,30.236682792995765L80.005390625,29.834967957083187L80.05352864583334,29.00006409585915L80.92001302083334,28.346380004869587L81.16070312500001,28.614449778312025L81.49766927083334,28.573362603626766L81.54580729166666,27.78642064259203L81.83463541666667,27.477836978131283L81.93091145833334,27.180981954518636L82.17160156249999,26.745928233426476L82.26787760416667,27.373776093263253L83.42319010416666,26.482957646525247L83.51946614583333,25.924956071511065L83.61574218749999,26.13555893208096L84.00084635416667,26.03919983243215L84.14526041666667,26.245459757868353L84.53036458333334,26.443880599303224L84.67477864583334,26.33580528789317L84.81919270833333,25.932883204562035L85.44498697916667,26.74108796022537L85.781953125,26.92067156180251L86.07078125,27.09343012081611L86.35960937499999,26.661720612279783L86.40774739583334,26.69484380223907L86.69657552083333,26.278283338474505L87.17795572916667,26.176503149961608L87.41864583333333,25.630168033844L87.46678385416666,25.553017845303017L87.61119791666667,26.375642178898552L87.90002604166666,26.569109935703228L87.99630208333332,26.157332352807337L88.14071614583332,26.359095575187062L88.28513020833333,25.656354734361376L88.42954427083333,26.17610022876936L88.47768229166667,28.768705869753965L89.34416666666667,28.572287944384914L90.06623697916667,28.2338625636483L90.78830729166667,28.05776989358246L90.93272135416667,27.141011792269335L90.980859375,27.00644917696905L91.07713541666668,26.129644653468166L91.1252734375,26.780870153803058L92.136171875,27.855760056535757L92.18430989583332,27.544566253985497L92.425,27.095727950915304L92.5694140625,26.365005686259096L92.76196614583333,26.25993298913595L92.8582421875,25.710443053679654L93.05079427083334,25.032364733477337L93.24334635416668,24.977933729367194L93.4358984375,25.07504087811358L94.63934895833333,25.018988234268875L94.68748697916666,24.815596208170778L95.21700520833333,24.769402720590247L95.602109375,23.67867985932998L95.65024739583333,23.974628289025762L95.79466145833334,23.511984998519548L95.8909375,23.3658606487431L95.93907552083333,23.374758076071487L96.37231770833333,23.233848591750704L96.70928385416666,24.89191843998022L97.43135416666667,24.69335625038444L97.4794921875,24.053933922879448L97.62390625,22.990404769325885L98.53852864583334,22.11675911664928L98.77921875000001,21.425781121767848L98.82735677083333,20.76106087336199L98.9236328125,20.868941689360422L99.26059895833333,20.524318435072843L99.59756510416666,21.687472268215263L99.645703125,21.162276761316132L100.0789453125,21.404379081356755L100.27149739583334,21.039409528855195L100.36777343749999,20.83777696066998L100.56032552083333,20.643806554790736L100.99356770833334,20.606674953962813L101.33053385416666,20.570954375220843L101.378671875,21.433397570067022L101.61936197916667,21.964132090046714L102.00446614583333,22.17576312885036L102.43770833333333,22.229884472300522L102.48584635416667,22.281949179175413L102.6783984375,21.883632778651087L102.91908854166667,21.79938759197066L103.06350260416667,21.56887628135137L103.15977864583334,21.048189602373L103.30419270833335,20.24835438744736L103.44860677083334,20.52518492256161L103.64115885416666,20.04415899698085L104.02626302083334,20.328748892021533L104.41136718749999,19.70572042559375L104.60391927083334,19.40530180848375L104.74833333333333,19.863635494388046L104.79647135416667,19.706683412283112L105.08529947916666,20.303031635664652L105.1334375,20.428316876733383L105.51854166666666,20.698308420942553L105.71109375,20.958040217965145L105.75923177083332,21.05843500588092L105.80736979166667,21.005547648749097L105.90364583333333,21.10413712545859L106.04805989583332,20.90004600909191L106.38502604166668,20.55424332797078L106.4331640625,20.52051532731975L106.81826822916668,20.189134917652456L106.86640625,20.617682153251L107.2996484375,20.880477505203334L107.49220052083332,20.684885591986824L107.5884765625,20.646193190101876L107.732890625,20.160570183422703L107.97358072916667,19.69340092546316L108.02171875,19.393451119378415L108.11799479166667,19.7027672098811L108.1661328125,19.551928456874716L108.21427083333333,19.107887756405724L108.4549609375,18.83018756897225L109.12889322916668,19.011440725591484L109.56213541666668,18.737405564608782L109.85096354166667,18.623250654150034L110.1879296875,18.662900517981925L110.23606770833332,18.9999774176847L110.66930989583334,18.87584478209529L111.00627604166668,18.75642919861592L111.43951822916667,19.089951954531184L111.58393229166666,19.261333977394887L111.9208984375,19.127269804570336L112.01717447916666,19.297233732925296L112.20972656250001,19.460739018513458L112.69110677083333,19.169630649025613L112.73924479166666,19.935852077185565L112.88365885416665,19.327755810519218L113.12434895833333,19.041700838834057L113.31690104166665,19.812783524206903L113.9426953125,19.657764291130228L114.03897135416666,19.50863579829138L114.08710937500001,19.963041312615967L114.3759375,20.101245842603927L114.42407552083333,19.785798281302693L114.47221354166666,19.332870977060026L114.56848958333333,18.747688170139067L115.242421875,18.633142615451288L116.10890625,19.270283575389747L116.39773437500001,19.135879389213972L116.73470052083333,19.006582567852057L117.02352864583334,18.58326553923556L117.21608072916666,18.77390154594809L117.31235677083333,18.807826637176145L117.40863281249999,19.288862785285772L117.6974609375,19.004285870262965L117.84187499999999,18.879989619580215L117.93815104166667,18.760416630470274L118.08256510416666,18.19698723747703L118.22697916666667,18.70123525182712L118.37139322916667,18.887388381879923L118.80463541666667,19.365401128687427L118.90091145833334,19.37684922309305L119.47856770833334,19.53732900605017L119.52670572916666,18.64544355146897L119.57484375,17.93691647818521L120.24877604166667,18.301580426779587L120.441328125,18.05452030010797L120.63388020833334,17.816848463502616L120.82643229166666,17.737674867661617L120.8745703125,18.2593766884734L121.018984375,18.01392031436301L121.11526041666667,17.927257988722424L121.21153645833334,18.740689035672126L121.59664062499999,18.775876193300814L121.69291666666666,18.809726238369183L121.83733072916667,18.99175667793999L121.98174479166667,19.615270044876112L122.12615885416666,18.869889644365255L122.22243489583335,18.900167176636764L122.36684895833334,19.37769423955358L122.51126302083334,18.491875044925354L123.28147135416667,18.685983824176283L123.6184375,18.125383019512494L123.85912760416667,18.632351872931714L123.907265625,18.22325577700656L123.95540364583333,18.577038772471358L124.0516796875,18.319511265277615L124.09981770833332,18.968569919244214L124.19609375,18.69616422918681L124.29236979166667,19.181443378581353L124.484921875,19.648281916066345L124.67747395833332,19.648980536664787L124.9181640625,20.546452703075648L125.01444010416667,20.81195419362638L125.35140625,20.917899944480045L125.44768229166667,21.617686478141685L125.4958203125,21.543547718692615L125.73651041666668,21.023826194119106L125.9290625,20.673320769809134L126.16975260416667,20.336134553780116L126.26602864583333,19.71282805978666L126.31416666666667,19.41214057141713L126.795546875,19.12287920925314L126.84368489583333,18.54567642671191L127.03623697916667,18.28934070572564L127.18065104166668,18.042745743387215L127.32506510416667,17.50658803934145L127.373203125,17.439204356588156L127.51761718750001,16.92598122894624L127.56575520833333,16.432260582298824L127.66203125,16.256234671043295L127.90272135416667,16.236364419219104L127.95085937500001,16.96458260623639L128.28782552083334,17.36619515240732L128.33596354166667,17.154679727221883L128.528515625,18.89426863857797L128.62479166666668,18.02681972799196L128.72106770833332,17.939667241548978L128.91361979166666,17.85582654984773L129.395,17.625705132533003L129.49127604166665,17.404328329704004L129.58755208333332,17.63976386114794L129.63569010416666,17.268386155659382L129.8282421875,16.911120803881413L129.97265625,17.464231563342373L130.35776041666665,18.444724125705243L130.5503125,18.341691272720478L131.22424479166665,19.58777370446859L131.41679687500002,19.88970497816134L131.51307291666666,20.6285628740103L131.75376302083333,19.99414413630512L131.80190104166667,19.981699992172818L131.89817708333334,19.371862045651234L131.994453125,19.383064621488135L132.04259114583334,18.646508150798102L132.1388671875,18.685274175164288L132.23514322916665,19.320433768537374L132.28328125000002,19.034657280126268L132.62024739583333,18.161873621517515L132.76466145833334,18.51798909657099L133.0053515625,18.860572183124734L133.5830078125,18.14387042898266L133.77555989583334,17.902803349062662L133.91997395833334,17.52143014962439L134.40135416666666,18.051349144633516L134.69018229166667,18.262197879955206L134.7383203125,17.867167688771705L134.83459635416668,17.48714864523181L134.97901041666665,17.271036994141785L135.12342447916666,16.9136709176075L135.17156250000002,16.420418083974102L135.21970052083333,17.141642204422386L135.70108072916668,17.08812646677571L135.74921874999998,16.88717765906844L135.79735677083335,16.095998233896392L135.8936328125,15.334883627437115L136.4712890625,14.901624712480183L136.51942708333334,15.232162976180893L136.56756510416668,15.99854078927546L136.61570312499998,15.540062902387582L137.00080729166666,15.39794051103461L137.43404947916667,15.261218770632272L138.25239583333334,14.681292453336965L138.926328125,14.123403336397928L139.11888020833334,14.184580676673077L139.16701822916667,14.392899945575655L139.26329427083334,14.443836414612191L139.6483984375,14.642303965321295L139.74467447916666,14.833229749019115L139.9372265625,14.717967017948506L140.41860677083335,15.35441760782885L140.8037109375,15.06988307067594L140.85184895833333,15.692960850249102L141.3813671875,17.637561680056436L141.76647135416667,17.86413433719882L142.05529947916668,17.185297229547643L142.10343749999998,16.532255932198805L142.19971354166668,15.754563537100122L142.29598958333332,16.501090125468483L142.5366796875,16.621382034464652L143.45130208333333,17.783369521156846L143.74013020833334,18.00440148008521L143.78826822916668,18.814900893091885L144.2696484375,19.744067995336618L144.36592447916667,19.591660077730964L144.51033854166667,19.295576993937065L144.55847656249998,18.562345066165964L144.60661458333334,18.604309287095194L145.1361328125,18.79414553466511L145.280546875,19.27570133885146L145.569375,18.84215802029489L145.81006510416668,18.57455601492183L145.90634114583332,18.317122885797833L146.0026171875,18.667338883533102L146.09889322916666,18.406380005436333L146.53213541666665,19.052137566473586L146.72468750000002,18.926023005380554L146.91723958333336,18.50576746376031L147.013515625,20.19401496969908L147.15792968749997,20.323442401064025L147.59117187500001,20.74688492382891L147.63930989583332,20.406903296204366L147.8318619791667,19.780907636695932L148.12069010416667,20.07549981358436L148.21696614583334,21.106230822069076L148.79462239583333,20.752594050368046L148.84276041666666,20.41239547602614L148.8908984375,20.23459111438869L148.93903645833336,20.362476652190793L149.08345052083334,19.887635872209145L149.27600260416668,19.729772375561808L149.5648307291667,19.129507691335082L149.61296875,19.448853066049352L149.7573828125,20.353929983740816L150.14248697916668,20.626747311277033L150.38317708333335,20.44079757995014L150.52759114583333,21.308180605985964L150.67200520833333,21.39526974303003L150.72014322916667,21.479049492861087L151.00897135416668,21.85857894575419L151.10524739583335,23.718352947175482L151.39407552083333,23.414922201636003L151.53848958333333,22.82408849090735L151.68290364583333,22.55463979474413L151.92359375,21.54809681524682L152.83821614583334,21.028202469287535L153.03076822916668,21.125930775511254L153.12704427083332,20.622078739094235L153.367734375,19.987906413335164L153.60842447916667,19.67676596946789L154.23421875,19.825848862702117L154.4267708333333,20.118733272725958L154.57118489583334,19.952088074952474L155.29325520833333,19.49284206123469L155.8227734375,18.90158072932305L155.87091145833332,19.379053995137383L156.01532552083333,19.539449943385268L156.30415364583334,18.946417511978854L156.64111979166665,19.272720313309133L156.6892578125,19.58662360818001L156.73739583333332,19.73913191112054L156.78553385416666,18.989044898254797L156.83367187500002,19.463194525602333L156.88180989583333,18.574126466696082L157.2669140625,18.16724299417754L158.37408854166668,18.224221093747936L158.4222265625,18.876900692359822L158.47036458333332,18.757445132686108L158.80733072916667,19.240395551096746L159.33684895833332,18.658727186683436L159.43312500000002,19.145428887034146L160.01078125,18.86630258926543L160.05891927083334,19.34511642430804L160.20333333333332,19.20786866682304L160.29960937500002,19.972636324300243L160.34774739583335,19.662076143918295L160.4440234375,19.36331725039527L161.35864583333333,19.22537786152282L161.5993359375,18.79374683604589L161.74375,18.826917789614825L161.8881640625,18.85882824694774L162.32140625000002,19.038992773590643L162.36954427083333,18.9133777148428L162.65837239583334,18.34413602826678L162.7546484375,18.2449255258461L162.80278645833332,18.298951689204177L163.09161458333332,17.753058191613906L163.23602864583336,17.975241980358895L163.52485677083334,18.18898278512961L163.6211328125,18.245134772634177L163.71740885416665,18.000219651248273L163.86182291666668,18.362477971204207L164.29506510416667,17.81417047491166L164.53575520833334,18.93083199696976L164.63203124999998,18.659860381060458L164.68016927083335,18.69811901991681L164.72830729166668,18.884390497175556L165.25782552083334,19.063583658297286L165.73920572916666,19.086500812617068L166.12430989583333,18.959080448394808L166.94265625,18.836502058013718L167.27962239583334,19.465914979852517L167.32776041666668,19.47354354395194L167.47217447916665,19.33141555593939L167.9535546875,18.746288431444516L168.2423828125,19.379129471086916L168.43493489583335,19.09112255116929L168.675625,18.664593227534905L168.77190104166667,18.553205351549405L168.86817708333334,18.296583548177566L168.96445312499998,18.498113373356624L169.06072916666668,18.841451731851762L169.25328125,18.723343232702778L169.30141927083332,19.058122856541214L169.44583333333333,19.97804752136423L169.73466145833333,19.517815048867295L169.8309375,19.075071410326643L169.9753515625,19.247018696740597L170.36045572916666,18.665098652910395L170.45673177083333,18.852624904106207L170.5048697916667,19.033025157756132L170.5530078125,20.402303535138167L170.93811197916668,20.82274933414906L171.66018229166667,20.6293515261124L171.75645833333334,20.44330283478155L171.85273437499998,20.114857327050913L171.94901041666668,19.79889274861472L172.04528645833332,19.644401490830138L172.4785286458333,19.196847567501095L172.67108072916668,18.915767359929536L173.296875,18.944301533586188L173.48942708333334,18.67281807530407L174.40404947916667,19.009517655116152L175.12611979166664,18.73555598421627L175.1742578125,18.17307152347193L175.4630859375,18.08036147224497L175.51122395833335,19.635307736327253L175.6075,19.63649937568015L175.75191406250002,18.89031239939208L175.99260416666664,18.471413861541865L176.13701822916667,18.666300134806246L176.18515625,18.106447396342073L176.28143229166665,18.464669061952787L177.051640625,18.36087830426386L177.38860677083332,18.111564928698574L177.58115885416666,17.722258794736497L177.918125,17.34774629386535L177.96626302083334,17.585331934701184L178.30322916666665,17.365489321180096L178.44764322916666,17.303467393641274L179.60295572916667,17.094335632680753L179.74736979166664,17.64048421197761L180.08433593750001,17.269079145252253L180.22875,16.762320804394683L180.27688802083333,17.17161928049799L180.37316406250002,17.415897747841136L180.42130208333333,16.903560300085637L180.75826822916667,17.008558342016542L180.85454427083332,17.109566458354013L181.3840625,17.05726959960286L181.62475260416667,17.60482668815513L182.05799479166666,16.786376607333043L182.15427083333336,16.297960962917887L182.250546875,16.27650511299354L182.44309895833334,15.80746458536365L182.58751302083334,15.804647597786492L183.21330729166667,16.25033765573974L183.26144531249997,15.931758158153261L183.30958333333334,15.774751348142598L183.59841145833335,16.520510796916867L183.983515625,16.341131386633172L184.27234375,16.168568393940337L184.32048177083334,16.45096279497186L184.36861979166665,16.423692875429474L184.561171875,16.397459212829723L184.8018619791667,16.820622429410484L185.138828125,17.07823877709387L185.52393229166665,16.728199036896363L185.716484375,17.43772747349678L185.90903645833336,17.074027162835996L186.0053125,16.724147463980444L186.294140625,17.43382986035138L186.4385546875,16.92081099232316L186.53483072916669,16.72622017461432L186.63110677083333,17.136890474646783L186.7273828125,17.08355530327673L186.871796875,16.882780201751704L187.11248697916668,16.988567887418743L187.69014322916667,18.435535641033592L187.9308333333333,18.482318620007735L188.17152343749999,18.676790512447884L189.03800781249998,18.116539139640363L189.23055989583332,17.727043985666533L189.37497395833333,17.95021631421165L189.6156640625,17.417574760937278L189.95263020833332,17.353573586688224L190.14518229166666,16.993071123726764L190.24145833333333,16.496801087690997L190.5302864583333,15.86992264635774L190.57842447916667,15.715265585795917L190.86725260416668,16.911685493537433L191.20421875,16.717441444782736L191.493046875,16.38111200321384L191.63746093749998,16.80489641375895L191.9262890625,16.315777016702167L192.45580729166667,16.443110823400968L192.55208333333331,16.86453927877888L192.88904947916666,16.821553452851898L193.03346354166666,16.33180108830968L193.17787760416664,16.15959264695372L193.27415364583334,16.143394793036137L193.51484375,17.174079124235078L194.2850520833333,16.820397450847175L194.381328125,16.629622347714776L194.42946614583335,17.043963365168658L194.62201822916666,16.844692757292083L194.67015625000002,16.503527765848027L194.86270833333333,16.32479371074568L194.958984375,16.003384883070435L195.2478125,15.5447229241801L195.29595052083334,15.7013567863947L195.63291666666666,15.702571895178375L196.21057291666668,15.10587416316121L196.45126302083335,14.531850944960757L196.59567708333333,14.726973942385698L197.02891927083334,15.213615599241963L197.07705729166668,14.784964873137229L197.36588541666666,15.119936207958183L197.4140234375,15.292711965389179L198.08795572916665,16.804122244038474L198.2805078125,17.062365598765133L198.37678385416666,16.413995706011764L198.47305989583333,16.537597202516725L198.61747395833333,16.20810184215426L198.76188802083334,15.741660638818873L199.19513020833332,16.638144201210782L199.48395833333333,16.30482805489798L199.58023437499997,16.88097792214538L200.10975260416666,16.986834094437246L200.157890625,17.088667732181996L200.44671874999997,16.7382316916923L200.78368489583335,16.700045554074638L201.93899739583335,16.21491048968634L202.08341145833333,15.897677224411488L202.22782552083333,15.144098823216986L202.3241015625,15.01702306793468L203.33499999999998,14.59584285801974L203.4794140625,14.938000829415097L203.67196614583335,14.370356797897164L203.7201041666667,14.422149906243762L203.7682421875,14.471974876473189L204.0570703125,14.220973164500483L204.20148437499998,14.726842850916219L204.29776041666668,14.31668948924801L204.73100260416666,13.922121955323192L204.9235546875,14.738281321021011L205.06796874999998,14.92555996415562L205.30865885416665,15.404655352184427L205.69376302083333,15.118211782134704L205.88631510416667,15.141586401080252L205.9825911458333,15.16407278450587L206.0788671875,15.036238018694675L206.70466145833333,15.212194307317585L206.8009375,14.933064256972857L206.9453515625,14.515074481874494L207.5230078125,14.710834984896605L207.7155598958333,14.600223255470544L207.95624999999998,14.045414771762582L208.05252604166668,14.408489010435646L208.53390625,14.309366428039095L208.63018229166667,14.363477170440282L208.72645833333334,14.71446503796357L209.35225260416667,14.155315366520918L209.64108072916667,13.76688004925973L210.12246093750002,13.991071940721234L210.36315104166667,14.50567787364053L210.7001171875,14.402862114442149L210.84453125,14.45342002076006L210.94080729166666,14.800990059971166L211.90356770833333,14.836419104358937L211.95170572916666,14.72103517839334L211.99984375,14.75950250828103L212.24053385416667,14.647041412966344L212.3368098958333,15.585120505940376L212.62563802083332,15.590752593381286L212.81819010416666,15.29723732816613L213.2032942708333,15.911675643029172L213.25143229166665,16.502765301927447L213.49212239583332,16.473526887120858L213.54026041666665,16.59486619874361L213.7328125,16.56212794985802L214.26233072916668,17.277967087763454L214.55115885416666,17.219271005095102L214.83998697916667,17.162805373568144L214.98440104166664,17.25795210270588L215.51391927083333,17.050549922803036L215.70647135416667,16.701562359069865L215.8990234375,16.814236322758543L216.23598958333335,17.072095342493732L216.42854166666666,16.57282238614561L216.66923177083333,16.54092180213874L216.909921875,17.108100106990825L217.10247395833335,17.354792302925173L217.15061197916668,17.442643528747354L217.24688802083332,17.676623074654984L217.68013020833334,17.3038447311514L217.72826822916667,17.244165298034304L218.25778645833336,17.037287016708998L218.3540625,17.58560344340741L218.40220052083333,17.51521717922459L218.73916666666665,17.298038926414065L218.83544270833335,16.939646780543644L218.88358072916668,16.89380686954964L218.93171875000002,16.550775541840082L218.97985677083332,16.071312737916802L219.17240885416666,16.207936187209306L219.26868489583333,15.4425679454287L220.32772135416667,15.005217030169046L220.47213541666665,14.88341878302262L221.14606770833336,14.317848869267749L221.38675781249998,14.67057061223558L221.43489583333334,15.009888928970634L221.531171875,14.73844648300308L221.91627604166666,14.925718849982301L222.15696614583334,14.806941533682968L222.49393229166665,14.692677755403034L223.841796875,14.732222667364361L224.17876302083334,14.471331539337859L224.70828125,14.070887607509686L224.94897135416667,14.432993878424305L225.38221354166666,15.080273444377529L225.4303515625,16.1513563868245L225.91173177083334,16.58387151079185L225.95986979166668,16.551551060048446L226.00800781249998,17.118325453099953L226.10428385416668,16.617295752548795L226.20055989583332,17.181571847285298L226.2968359375,16.82760545042178L226.34497395833333,17.084956443305742L226.3931119791667,17.033594765126796L226.48938802083333,17.432584830718664L227.35587239583333,18.414279940484676L227.5965625,18.01347063607958L227.83725260416668,18.823625418575222L227.98166666666665,18.4072609860027L228.1260807291667,17.857251735201274L228.36677083333333,17.32814283593029L228.8962890625,17.417006741498252L229.32953125,17.502493818654667L229.4739453125,17.435265720212445L229.5220833333333,17.370592289511045L229.95532552083333,16.710509782509618L230.24415364583334,16.52391041077425L230.96622395833333,16.792801815164825L231.01436197916667,17.3504086795219L231.30319010416665,17.28895981636675L231.49574218749999,17.528779343344816L231.64015625000002,17.161619061631043L231.92898437500003,16.360010870622407L232.02526041666667,15.887797124205397L232.45850260416665,15.582994166818937L232.6510546875,15.43924038847984L232.9398828125,15.300949253717599L233.18057291666668,15.616313182076311L233.46940104166666,15.77022661449075L233.66195312500003,15.6193580031401L233.90264322916664,16.221555732354098L234.23960937500001,16.203003281191318L234.43216145833333,16.3346224898394L234.86540364583334,16.0128401685588L235.00981770833332,15.553818908820247L235.58747395833333,15.560640456951722L235.92444010416665,15.26826945292089L236.06885416666668,15.43540854704323L236.16513020833332,15.147796355588923L236.21326822916666,14.422713427409892L236.4058203125,14.323050317168288L236.45395833333333,14.227174405115896L236.50209635416667,14.583341777721495L237.07975260416666,14.328108123501407L237.36858072916667,14.530973348141664L237.41671874999997,14.576663027578974L237.51299479166667,15.517416499197635L237.75368489583335,14.927754672228136L237.80182291666668,14.659433328016798L237.94623697916666,16.045441528218813L238.23506510416667,16.332514750146498L238.4276171875,15.562412522974245L238.76458333333332,16.16677418043459L239.24596354166667,16.29977009491139L239.53479166666668,16.12877883130476L239.72734375,15.665351902381857L239.8717578125,15.667935196758032L240.25686197916667,15.072553659281207L240.35313802083334,14.64926328689517L240.97893229166667,14.242057948659848L241.17148437499998,13.999793079944077L241.2196223958333,13.766734276239568L242.13424479166667,14.28986504040913L242.1823828125,14.643650168873569L242.32679687499999,14.834524795789694L242.66376302083333,14.719212853549703L242.7600390625,14.608282765114797L243.14514322916668,14.053168020040431L243.24141927083332,14.117014301945536L243.28955729166668,13.879501091804972L243.9153515625,14.697280050316373L244.01162760416668,14.58718340840435L244.05976562499998,14.780203772218336L244.4930078125,14.816422695540698L244.637421875,14.253398633110132L244.73369791666667,14.309636151718625L245.16694010416666,14.812136644619972L245.3113541666667,14.847142118791085L245.40763020833333,15.030284051610359L245.50390625,14.608599924315822L246.0815625,14.053473127191827L246.89990885416665,14.266774481691854L247.14059895833333,14.770903718054237L247.62197916666665,14.807476043434848L247.91080729166666,14.84265862045099L248.2477734375,14.87650425954052L248.5366015625,14.161730431011318L248.63287760416668,14.221451341299549L248.82542968750002,14.577836190330146L249.16239583333333,14.023878415097613L249.21053385416667,14.088837701990581L249.258671875,15.04812853598161L249.74005208333335,14.775232984947653L250.51026041666665,14.662174131519624L250.75095052083333,14.553411514521907L250.991640625,14.149848543636704L251.23233072916668,13.612154298978533L251.28046875,13.543292435617323L251.37674479166665,13.775980656397216L251.52115885416666,13.850360058120788L252.0025390625,14.071379709245525L252.19509114583332,14.732400613627526L252.24322916666665,14.770436056976353L252.53205729166666,14.059692820144562L252.724609375,13.824357826312422L252.77274739583333,13.747432228912544L253.15785156249999,13.972363137547212L253.302265625,14.039280004987063L253.35040364583332,14.25312069813088L253.4466796875,13.71150211160191L253.59109375,13.489398364694365L253.63923177083333,13.574667893502681L253.68736979166667,14.105097180216227L253.73550781249997,13.868036820701334L253.92805989583334,13.639984754848014L254.02433593749998,13.271132000830448L254.16875,13.663628984798882L254.21688802083332,13.443344416709886L254.26502604166666,13.679830662208243L254.3131640625,13.159997097044323L254.40944010416666,13.706183874023296L254.55385416666667,13.33481555347708L254.60199218749997,12.977559229111625L254.89082031249998,12.932811978405375L255.1796484375,13.487631789892632L255.27592447916666,13.124568448543362L255.42033854166667,12.924768180832057L255.99799479166666,13.031493656627077L256.38309895833333,13.732030231008624L256.43123697916667,13.808079748896942L256.479375,13.582306051772214L256.768203125,13.514578421804856L257.10516927083336,13.449424441776282L257.34585937500003,13.835146312988796L257.6828255208333,13.757810753095226L257.87537760416666,13.683413944477593L258.3086197916667,13.611844214587434L258.5974479166667,13.094594134433098L258.69372395833335,12.746466223991321L258.83813802083336,12.411567174146294L259.17510416666664,11.7904609548621L259.46393229166665,12.986556771910662L259.60834635416666,12.792000947911387L259.7046223958333,12.903771578557409L259.75276041666666,13.908094925238935L260.1860026041667,13.678520651413159L260.66738281249997,14.055536866659487L260.7155208333333,13.521426465726416L261.100625,13.456012260028828L261.67828125,13.393083794147733L261.8226953125,13.482013276636767L261.967109375,13.418096772124603L262.59290364583336,12.908209094783828L262.9780078125,12.866097149182073L263.36311197916666,12.825585457513135L263.41125,12.487679876794292L263.5556640625,12.013148041476123L263.65194010416667,12.154515082566695L263.700078125,11.991576842762491L264.3740104166667,12.133763589404191L264.66283854166664,12.121080573006832L264.7591145833333,12.706746177899248" style="fill: none;" fill="none"></path></g></g></g></g><g opacity="0.2"><g><g><g><path stroke="rgb(238, 51, 119)" stroke-width="2px" d="M24.357838541666666,161.26666666666665L24.983632812499998,157.33333333333331L25.2724609375,161.26666666666665L26.042669270833336,157.33333333333331L26.1389453125,153.4L26.283359375,157.33333333333331L26.379635416666666,157.33333333333331L26.668463541666668,161.26666666666665L26.81287760416667,157.33333333333331L27.534947916666667,157.33333333333331L27.679361979166668,153.4L27.92005208333333,161.26666666666665L28.30515625,161.26666666666665L28.642122395833333,153.4L29.0272265625,153.4L29.171640625000002,157.33333333333331L29.219778645833333,161.26666666666665L29.556744791666667,161.26666666666665L30.1825390625,157.33333333333331L30.808333333333334,157.33333333333331L31.3378515625,157.33333333333331L31.578541666666666,157.33333333333331L31.722955729166667,161.26666666666665L32.15619791666667,161.26666666666665L32.2043359375,161.26666666666665L32.68571614583333,157.33333333333331L32.92640625,161.26666666666665L33.02268229166666,157.33333333333331L33.070820312500004,153.4L33.263372395833336,161.26666666666665L33.6484765625,161.26666666666665L34.033580729166665,161.26666666666665L34.08171875,153.4L34.32240885416667,161.26666666666665L34.85192708333334,153.4L35.14075520833334,153.4L35.3814453125,157.33333333333331L35.525859374999996,161.26666666666665L36.103515625,153.4L36.39234375,153.4L36.63303385416666,153.4L36.97,157.33333333333331L37.16255208333334,141.6L37.258828125,149.46666666666667L38.17345052083333,153.4L38.414140625,157.33333333333331L38.46227864583333,161.26666666666665L38.702968750000004,161.26666666666665L38.943658854166664,157.33333333333331L39.03993489583333,145.53333333333333L39.425039062500005,161.26666666666665L39.47317708333333,161.26666666666665L39.81014322916667,153.4L40.0026953125,145.53333333333333L40.4359375,149.46666666666667L40.821041666666666,153.4L41.591249999999995,141.6L41.783802083333335,149.46666666666667L42.07263020833334,157.33333333333331L42.26518229166667,157.33333333333331L42.36145833333333,153.4L44.38325520833334,157.33333333333331L44.431393229166666,157.33333333333331L44.527669270833336,153.4L44.81649739583334,161.26666666666665L45.24973958333334,157.33333333333331L45.346015625,149.46666666666667L45.394153645833335,153.4L45.53856770833334,145.53333333333333L45.827395833333334,149.46666666666667L46.26063802083334,153.4L46.40505208333334,149.46666666666667L46.453190104166666,137.66666666666666L46.9345703125,149.46666666666667L47.752916666666664,145.53333333333333L47.849192708333334,149.46666666666667L48.523125,145.53333333333333L48.76381510416667,141.6L48.86009114583333,141.6L49.004505208333335,141.6L49.389609375000006,157.33333333333331L49.678437499999994,149.46666666666667L49.77471354166667,149.46666666666667L49.91912760416667,145.53333333333333L50.20795572916667,125.86666666666667L50.44864583333333,137.66666666666666L50.93002604166667,145.53333333333333L51.21885416666667,133.73333333333332L51.50768229166667,149.46666666666667L51.700234375,129.8L51.989062499999996,141.6L52.08533854166667,129.8L52.1334765625,133.73333333333332L52.22975260416667,137.66666666666666L52.32602864583333,141.6L52.37416666666667,133.73333333333332L52.614856770833335,121.93333333333334L52.66299479166666,133.73333333333332L53.09623697916666,121.93333333333334L53.385065104166664,133.73333333333332L53.48134114583333,121.93333333333334L53.72203125,110.13333333333334L53.96272135416666,137.66666666666666L54.05899739583334,118.00000000000001L54.636653645833334,129.8L54.973619791666664,106.2L55.0217578125,121.93333333333334L55.11803385416666,133.73333333333332L55.21430989583334,106.2L55.262447916666666,125.86666666666667L55.358723958333336,121.93333333333334L55.93638020833333,114.06666666666665L56.08079427083333,94.4L56.27334635416667,110.13333333333334L56.41776041666667,121.93333333333334L56.562174479166664,114.06666666666665L56.754726562500004,82.6L56.80286458333333,94.4L56.995416666666664,121.93333333333334L57.23610677083333,94.4L57.765625,118.00000000000001L57.95817708333333,110.13333333333334L58.10259114583333,121.93333333333334L58.4876953125,98.33333333333334L58.680247395833334,86.53333333333335L58.82466145833333,86.53333333333335L58.872799479166666,94.4L58.920937499999994,82.6L59.25790364583333,51.133333333333326L59.54673177083333,82.6L59.643007812499995,106.2L59.69114583333333,62.93333333333332L59.88369791666667,74.73333333333335L60.076249999999995,121.93333333333334L60.268802083333334,70.8L60.31694010416667,82.6L60.5094921875,82.6L60.942734375,55.06666666666667L61.13528645833333,55.06666666666667L61.18342447916667,51.133333333333326L61.231562499999995,74.73333333333335L61.32783854166667,110.13333333333334L61.3759765625,59.00000000000001L61.6648046875,98.33333333333334L61.857356770833334,59.00000000000001L61.90549479166666,74.73333333333335L62.00177083333333,70.8L62.098046875,62.93333333333332L62.2424609375,47.20000000000001L62.290598958333334,66.86666666666666L62.33873697916666,59.00000000000001L62.386874999999996,98.33333333333334L62.5312890625,51.133333333333326L62.72384114583333,86.53333333333335L62.96453125,55.06666666666667L63.012669270833335,70.8L63.06080729166666,59.00000000000001L63.349635416666665,43.26666666666667L64.16798177083334,15.733333333333336L64.36053385416666,66.86666666666666L64.45680989583333,43.26666666666667L64.6975,35.39999999999999L65.8528125,35.39999999999999L65.94908854166667,35.39999999999999L66.18977864583333,66.86666666666666L66.2860546875,66.86666666666666L66.47860677083334,98.33333333333334L66.57488281250001,51.133333333333326L66.95998697916667,27.533333333333335L67.24881510416667,19.666666666666675L67.4413671875,43.26666666666667L67.77833333333334,27.533333333333335L67.87460937499999,31.466666666666672L68.1634375,27.533333333333335L68.25971354166667,15.733333333333336L68.40412760416667,23.599999999999994L68.54854166666667,43.26666666666667L68.93364583333333,31.466666666666672L68.98178385416666,23.599999999999994L69.12619791666667,19.666666666666675L69.4631640625,15.733333333333336L69.607578125,31.466666666666672L70.0408203125,47.20000000000001L70.23337239583333,27.533333333333335L70.37778645833333,31.466666666666672L70.42592447916667,19.666666666666675L70.85916666666667,15.733333333333336L70.9073046875,23.599999999999994L71.09985677083334,19.666666666666675L71.1961328125,23.599999999999994L71.24427083333333,15.733333333333336L71.43682291666666,11.799999999999997L71.4849609375,15.733333333333336L71.629375,3.933333333333339L71.67751302083333,19.666666666666675L72.0626171875,35.39999999999999L72.25516927083333,39.33333333333333L72.3514453125,11.799999999999997L72.44772135416667,27.533333333333335L72.495859375,0L72.9291015625,19.666666666666675L73.073515625,7.866666666666658L73.45861979166668,51.133333333333326L73.55489583333333,47.20000000000001L73.79558593750001,35.39999999999999L74.03627604166667,31.466666666666672L74.3732421875,11.799999999999997L74.99903645833334,90.46666666666665L75.28786458333333,23.599999999999994L75.43227864583334,15.733333333333336L75.5285546875,11.799999999999997L75.72110677083333,35.39999999999999L75.91365885416666,47.20000000000001L76.00993489583333,15.733333333333336L76.250625,27.533333333333335L76.29876302083333,19.666666666666675L76.34690104166665,19.666666666666675L76.73200520833333,11.799999999999997L77.02083333333333,39.33333333333333L77.21338541666665,23.599999999999994L77.2615234375,19.666666666666675L77.30966145833334,7.866666666666658L77.74290364583334,47.20000000000001L77.98359375000001,19.666666666666675L78.65752604166666,23.599999999999994L78.75380208333334,27.533333333333335L79.71656250000001,15.733333333333336L79.76470052083333,27.533333333333335L79.95725260416667,27.533333333333335L80.005390625,19.666666666666675L80.05352864583334,7.866666666666658L80.92001302083334,11.799999999999997L81.16070312500001,35.39999999999999L81.49766927083334,27.533333333333335L81.54580729166666,7.866666666666658L81.83463541666667,19.666666666666675L81.93091145833334,19.666666666666675L82.17160156249999,15.733333333333336L82.26787760416667,43.26666666666667L83.42319010416666,3.933333333333339L83.51946614583333,11.799999999999997L83.61574218749999,31.466666666666672L84.00084635416667,23.599999999999994L84.14526041666667,31.466666666666672L84.53036458333334,31.466666666666672L84.67477864583334,23.599999999999994L84.81919270833333,15.733333333333336L85.44498697916667,47.20000000000001L85.781953125,31.466666666666672L86.07078125,31.466666666666672L86.35960937499999,15.733333333333336L86.40774739583334,27.533333333333335L86.69657552083333,15.733333333333336L87.17795572916667,23.599999999999994L87.41864583333333,11.799999999999997L87.46678385416666,23.599999999999994L87.61119791666667,47.20000000000001L87.90002604166666,31.466666666666672L87.99630208333332,15.733333333333336L88.14071614583332,31.466666666666672L88.28513020833333,7.866666666666658L88.42954427083333,39.33333333333333L88.47768229166667,94.4L89.34416666666667,23.599999999999994L90.06623697916667,19.666666666666675L90.78830729166667,23.599999999999994L90.93272135416667,3.933333333333339L90.980859375,23.599999999999994L91.07713541666668,3.933333333333339L91.1252734375,43.26666666666667L92.136171875,55.06666666666667L92.18430989583332,19.666666666666675L92.425,15.733333333333336L92.5694140625,7.866666666666658L92.76196614583333,23.599999999999994L92.8582421875,11.799999999999997L93.05079427083334,7.866666666666658L93.24334635416668,23.599999999999994L93.4358984375,27.533333333333335L94.63934895833333,23.599999999999994L94.68748697916666,19.666666666666675L95.21700520833333,23.599999999999994L95.602109375,-3.9333333333333194L95.65024739583333,31.466666666666672L95.79466145833334,11.799999999999997L95.8909375,19.666666666666675L95.93907552083333,23.599999999999994L96.37231770833333,19.666666666666675L96.70928385416666,66.86666666666666L97.43135416666667,19.666666666666675L97.4794921875,7.866666666666658L97.62390625,-3.9333333333333194L98.53852864583334,0L98.77921875000001,3.933333333333339L98.82735677083333,3.933333333333339L98.9236328125,23.599999999999994L99.26059895833333,11.799999999999997L99.59756510416666,51.133333333333326L99.645703125,7.866666666666658L100.0789453125,27.533333333333335L100.27149739583334,11.799999999999997L100.36777343749999,15.733333333333336L100.56032552083333,15.733333333333336L100.99356770833334,19.666666666666675L101.33053385416666,19.666666666666675L101.378671875,43.26666666666667L101.61936197916667,35.39999999999999L102.00446614583333,27.533333333333335L102.43770833333333,23.599999999999994L102.48584635416667,23.599999999999994L102.6783984375,11.799999999999997L102.91908854166667,19.666666666666675L103.06350260416667,15.733333333333336L103.15977864583334,7.866666666666658L103.30419270833335,0L103.44860677083334,27.533333333333335L103.64115885416666,7.866666666666658L104.02626302083334,27.533333333333335L104.41136718749999,3.933333333333339L104.60391927083334,11.799999999999997L104.74833333333333,31.466666666666672L104.79647135416667,15.733333333333336L105.08529947916666,35.39999999999999L105.1334375,23.599999999999994L105.51854166666666,27.533333333333335L105.71109375,27.533333333333335L105.75923177083332,23.599999999999994L105.80736979166667,19.666666666666675L105.90364583333333,23.599999999999994L106.04805989583332,15.733333333333336L106.38502604166668,11.799999999999997L106.4331640625,19.666666666666675L106.81826822916668,11.799999999999997L106.86640625,31.466666666666672L107.2996484375,27.533333333333335L107.49220052083332,15.733333333333336L107.5884765625,19.666666666666675L107.732890625,7.866666666666658L107.97358072916667,7.866666666666658L108.02171875,11.799999999999997L108.11799479166667,27.533333333333335L108.1661328125,15.733333333333336L108.21427083333333,7.866666666666658L108.4549609375,11.799999999999997L109.12889322916668,23.599999999999994L109.56213541666668,11.799999999999997L109.85096354166667,15.733333333333336L110.1879296875,19.666666666666675L110.23606770833332,27.533333333333335L110.66930989583334,15.733333333333336L111.00627604166668,15.733333333333336L111.43951822916667,27.533333333333335L111.58393229166666,23.599999999999994L111.9208984375,15.733333333333336L112.01717447916666,23.599999999999994L112.20972656250001,23.599999999999994L112.69110677083333,11.799999999999997L112.73924479166666,39.33333333333333L112.88365885416665,3.933333333333339L113.12434895833333,11.799999999999997L113.31690104166665,39.33333333333333L113.9426953125,15.733333333333336L114.03897135416666,15.733333333333336L114.08710937500001,31.466666666666672L114.3759375,23.599999999999994L114.42407552083333,11.799999999999997L114.47221354166666,7.866666666666658L114.56848958333333,3.933333333333339L115.242421875,15.733333333333336L116.10890625,35.39999999999999L116.39773437500001,15.733333333333336L116.73470052083333,15.733333333333336L117.02352864583334,7.866666666666658L117.21608072916666,23.599999999999994L117.31235677083333,19.666666666666675L117.40863281249999,31.466666666666672L117.6974609375,11.799999999999997L117.84187499999999,15.733333333333336L117.93815104166667,15.733333333333336L118.08256510416666,3.933333333333339L118.22697916666667,31.466666666666672L118.37139322916667,23.599999999999994L118.80463541666667,31.466666666666672L118.90091145833334,19.666666666666675L119.47856770833334,23.599999999999994L119.52670572916666,-3.9333333333333194L119.57484375,0L120.24877604166667,27.533333333333335L120.441328125,11.799999999999997L120.63388020833334,11.799999999999997L120.82643229166666,15.733333333333336L120.8745703125,31.466666666666672L121.018984375,11.799999999999997L121.11526041666667,15.733333333333336L121.21153645833334,39.33333333333333L121.59664062499999,19.666666666666675L121.69291666666666,19.666666666666675L121.83733072916667,23.599999999999994L121.98174479166667,35.39999999999999L122.12615885416666,0L122.22243489583335,19.666666666666675L122.36684895833334,31.466666666666672L122.51126302083334,-3.9333333333333194L123.28147135416667,23.599999999999994L123.6184375,3.933333333333339L123.85912760416667,31.466666666666672L123.907265625,7.866666666666658L123.95540364583333,27.533333333333335L124.0516796875,11.799999999999997L124.09981770833332,35.39999999999999L124.19609375,11.799999999999997L124.29236979166667,31.466666666666672L124.484921875,31.466666666666672L124.67747395833332,19.666666666666675L124.9181640625,43.26666666666667L125.01444010416667,27.533333333333335L125.35140625,23.599999999999994L125.44768229166667,39.33333333333333L125.4958203125,19.666666666666675L125.73651041666668,7.866666666666658L125.9290625,11.799999999999997L126.16975260416667,11.799999999999997L126.26602864583333,3.933333333333339L126.31416666666667,11.799999999999997L126.795546875,11.799999999999997L126.84368489583333,3.933333333333339L127.03623697916667,11.799999999999997L127.18065104166668,11.799999999999997L127.32506510416667,3.933333333333339L127.373203125,15.733333333333336L127.51761718750001,3.933333333333339L127.56575520833333,3.933333333333339L127.66203125,11.799999999999997L127.90272135416667,15.733333333333336L127.95085937500001,35.39999999999999L128.28782552083334,27.533333333333335L128.33596354166667,11.799999999999997L128.528515625,62.93333333333332L128.62479166666668,-3.9333333333333194L128.72106770833332,15.733333333333336L128.91361979166666,15.733333333333336L129.395,11.799999999999997L129.49127604166665,11.799999999999997L129.58755208333332,23.599999999999994L129.63569010416666,7.866666666666658L129.8282421875,7.866666666666658L129.97265625,31.466666666666672L130.35776041666665,43.26666666666667L130.5503125,15.733333333333336L131.22424479166665,51.133333333333326L131.41679687500002,27.533333333333335L131.51307291666666,39.33333333333333L131.75376302083333,3.933333333333339L131.80190104166667,19.666666666666675L131.89817708333334,3.933333333333339L131.994453125,19.666666666666675L132.04259114583334,0L132.1388671875,19.666666666666675L132.23514322916665,35.39999999999999L132.28328125000002,11.799999999999997L132.62024739583333,-3.9333333333333194L132.76466145833334,27.533333333333335L133.0053515625,27.533333333333335L133.5830078125,0L133.77555989583334,11.799999999999997L133.91997395833334,7.866666666666658L134.40135416666666,31.466666666666672L134.69018229166667,23.599999999999994L134.7383203125,7.866666666666658L134.83459635416668,7.866666666666658L134.97901041666665,11.799999999999997L135.12342447916666,7.866666666666658L135.17156250000002,3.933333333333339L135.21970052083333,35.39999999999999L135.70108072916668,15.733333333333336L135.74921874999998,11.799999999999997L135.79735677083335,-3.9333333333333194L135.8936328125,-3.9333333333333194L136.4712890625,3.933333333333339L136.51942708333334,23.599999999999994L136.56756510416668,35.39999999999999L136.61570312499998,3.933333333333339L137.00080729166666,11.799999999999997L137.43404947916667,11.799999999999997L138.25239583333334,0L138.926328125,0L139.11888020833334,15.733333333333336L139.16701822916667,19.666666666666675L139.26329427083334,15.733333333333336L139.6483984375,19.666666666666675L139.74467447916666,19.666666666666675L139.9372265625,11.799999999999997L140.41860677083335,31.466666666666672L140.8037109375,7.866666666666658L140.85184895833333,31.466666666666672L141.3813671875,66.86666666666666L141.76647135416667,23.599999999999994L142.05529947916668,0L142.10343749999998,0L142.19971354166668,-3.9333333333333194L142.29598958333332,35.39999999999999L142.5366796875,19.666666666666675L143.45130208333333,47.20000000000001L143.74013020833334,23.599999999999994L143.78826822916668,39.33333333333333L144.2696484375,43.26666666666667L144.36592447916667,15.733333333333336L144.51033854166667,11.799999999999997L144.55847656249998,0L144.60661458333334,19.666666666666675L145.1361328125,23.599999999999994L145.280546875,31.466666666666672L145.569375,7.866666666666658L145.81006510416668,11.799999999999997L145.90634114583332,11.799999999999997L146.0026171875,27.533333333333335L146.09889322916666,11.799999999999997L146.53213541666665,35.39999999999999L146.72468750000002,15.733333333333336L146.91723958333336,7.866666666666658L147.013515625,62.93333333333332L147.15792968749997,23.599999999999994L147.59117187500001,31.466666666666672L147.63930989583332,11.799999999999997L147.8318619791667,3.933333333333339L148.12069010416667,27.533333333333335L148.21696614583334,47.20000000000001L148.79462239583333,11.799999999999997L148.84276041666666,11.799999999999997L148.8908984375,15.733333333333336L148.93903645833336,23.599999999999994L149.08345052083334,7.866666666666658L149.27600260416668,15.733333333333336L149.5648307291667,3.933333333333339L149.61296875,27.533333333333335L149.7573828125,43.26666666666667L150.14248697916668,27.533333333333335L150.38317708333335,15.733333333333336L150.52759114583333,43.26666666666667L150.67200520833333,23.599999999999994L150.72014322916667,23.599999999999994L151.00897135416668,31.466666666666672L151.10524739583335,70.8L151.39407552083333,15.733333333333336L151.53848958333333,7.866666666666658L151.68290364583333,15.733333333333336L151.92359375,-3.9333333333333194L152.83821614583334,7.866666666666658L153.03076822916668,23.599999999999994L153.12704427083332,7.866666666666658L153.367734375,3.933333333333339L153.60842447916667,11.799999999999997L154.23421875,23.599999999999994L154.4267708333333,27.533333333333335L154.57118489583334,15.733333333333336L155.29325520833333,7.866666666666658L155.8227734375,3.933333333333339L155.87091145833332,31.466666666666672L156.01532552083333,23.599999999999994L156.30415364583334,3.933333333333339L156.64111979166665,27.533333333333335L156.6892578125,27.533333333333335L156.73739583333332,23.599999999999994L156.78553385416666,0L156.83367187500002,31.466666666666672L156.88180989583333,-3.9333333333333194L157.2669140625,7.866666666666658L158.37408854166668,19.666666666666675L158.4222265625,35.39999999999999L158.47036458333332,15.733333333333336L158.80733072916667,31.466666666666672L159.33684895833332,3.933333333333339L159.43312500000002,31.466666666666672L160.01078125,11.799999999999997L160.05891927083334,31.466666666666672L160.20333333333332,15.733333333333336L160.29960937500002,39.33333333333333L160.34774739583335,11.799999999999997L160.4440234375,11.799999999999997L161.35864583333333,15.733333333333336L161.5993359375,7.866666666666658L161.74375,19.666666666666675L161.8881640625,19.666666666666675L162.32140625000002,23.599999999999994L162.36954427083333,15.733333333333336L162.65837239583334,3.933333333333339L162.7546484375,15.733333333333336L162.80278645833332,19.666666666666675L163.09161458333332,3.933333333333339L163.23602864583336,23.599999999999994L163.52485677083334,23.599999999999994L163.6211328125,19.666666666666675L163.71740885416665,11.799999999999997L163.86182291666668,27.533333333333335L164.29506510416667,3.933333333333339L164.53575520833334,47.20000000000001L164.63203124999998,11.799999999999997L164.68016927083335,19.666666666666675L164.72830729166668,23.599999999999994L165.25782552083334,23.599999999999994L165.73920572916666,19.666666666666675L166.12430989583333,15.733333333333336L166.94265625,15.733333333333336L167.27962239583334,35.39999999999999L167.32776041666668,19.666666666666675L167.47217447916665,15.733333333333336L167.9535546875,3.933333333333339L168.2423828125,35.39999999999999L168.43493489583335,11.799999999999997L168.675625,7.866666666666658L168.77190104166667,15.733333333333336L168.86817708333334,11.799999999999997L168.96445312499998,23.599999999999994L169.06072916666668,27.533333333333335L169.25328125,15.733333333333336L169.30141927083332,27.533333333333335L169.44583333333333,43.26666666666667L169.73466145833333,7.866666666666658L169.8309375,7.866666666666658L169.9753515625,23.599999999999994L170.36045572916666,3.933333333333339L170.45673177083333,23.599999999999994L170.5048697916667,23.599999999999994L170.5530078125,55.06666666666667L170.93811197916668,31.466666666666672L171.66018229166667,15.733333333333336L171.75645833333334,15.733333333333336L171.85273437499998,11.799999999999997L171.94901041666668,11.799999999999997L172.04528645833332,15.733333333333336L172.4785286458333,7.866666666666658L172.67108072916668,11.799999999999997L173.296875,19.666666666666675L173.48942708333334,11.799999999999997L174.40404947916667,27.533333333333335L175.12611979166664,11.799999999999997L175.1742578125,3.933333333333339L175.4630859375,15.733333333333336L175.51122395833335,59.00000000000001L175.6075,19.666666666666675L175.75191406250002,0L175.99260416666664,7.866666666666658L176.13701822916667,23.599999999999994L176.18515625,3.933333333333339L176.28143229166665,27.533333333333335L177.051640625,15.733333333333336L177.38860677083332,11.799999999999997L177.58115885416666,7.866666666666658L177.918125,7.866666666666658L177.96626302083334,23.599999999999994L178.30322916666665,11.799999999999997L178.44764322916666,15.733333333333336L179.60295572916667,11.799999999999997L179.74736979166664,31.466666666666672L180.08433593750001,7.866666666666658L180.22875,3.933333333333339L180.27688802083333,27.533333333333335L180.37316406250002,23.599999999999994L180.42130208333333,3.933333333333339L180.75826822916667,19.666666666666675L180.85454427083332,19.666666666666675L181.3840625,15.733333333333336L181.62475260416667,31.466666666666672L182.05799479166666,-3.9333333333333194L182.15427083333336,3.933333333333339L182.250546875,15.733333333333336L182.44309895833334,3.933333333333339L182.58751302083334,15.733333333333336L183.21330729166667,27.533333333333335L183.26144531249997,7.866666666666658L183.30958333333334,11.799999999999997L183.59841145833335,35.39999999999999L183.983515625,11.799999999999997L184.27234375,11.799999999999997L184.32048177083334,23.599999999999994L184.36861979166665,15.733333333333336L184.561171875,15.733333333333336L184.8018619791667,27.533333333333335L185.138828125,23.599999999999994L185.52393229166665,7.866666666666658L185.716484375,35.39999999999999L185.90903645833336,7.866666666666658L186.0053125,7.866666666666658L186.294140625,35.39999999999999L186.4385546875,3.933333333333339L186.53483072916669,11.799999999999997L186.63110677083333,27.533333333333335L186.7273828125,15.733333333333336L186.871796875,11.799999999999997L187.11248697916668,19.666666666666675L187.69014322916667,55.06666666666667L187.9308333333333,19.666666666666675L188.17152343749999,23.599999999999994L189.03800781249998,3.933333333333339L189.23055989583332,7.866666666666658L189.37497395833333,23.599999999999994L189.6156640625,3.933333333333339L189.95263020833332,15.733333333333336L190.14518229166666,7.866666666666658L190.24145833333333,3.933333333333339L190.5302864583333,0L190.57842447916667,11.799999999999997L190.86725260416668,47.20000000000001L191.20421875,11.799999999999997L191.493046875,7.866666666666658L191.63746093749998,27.533333333333335L191.9262890625,3.933333333333339L192.45580729166667,19.666666666666675L192.55208333333331,27.533333333333335L192.88904947916666,15.733333333333336L193.03346354166666,3.933333333333339L193.17787760416664,11.799999999999997L193.27415364583334,15.733333333333336L193.51484375,43.26666666666667L194.2850520833333,7.866666666666658L194.381328125,11.799999999999997L194.42946614583335,27.533333333333335L194.62201822916666,11.799999999999997L194.67015625000002,7.866666666666658L194.86270833333333,11.799999999999997L194.958984375,7.866666666666658L195.2478125,3.933333333333339L195.29595052083334,19.666666666666675L195.63291666666666,15.733333333333336L196.21057291666668,0L196.45126302083335,0L196.59567708333333,19.666666666666675L197.02891927083334,27.533333333333335L197.07705729166668,3.933333333333339L197.36588541666666,23.599999999999994L197.4140234375,19.666666666666675L198.08795572916665,55.06666666666667L198.2805078125,23.599999999999994L198.37678385416666,0L198.47305989583333,19.666666666666675L198.61747395833333,7.866666666666658L198.76188802083334,3.933333333333339L199.19513020833332,39.33333333333333L199.48395833333333,7.866666666666658L199.58023437499997,31.466666666666672L200.10975260416666,19.666666666666675L200.157890625,19.666666666666675L200.44671874999997,7.866666666666658L200.78368489583335,15.733333333333336L201.93899739583335,3.933333333333339L202.08341145833333,7.866666666666658L202.22782552083333,-3.9333333333333194L202.3241015625,11.799999999999997L203.33499999999998,3.933333333333339L203.4794140625,23.599999999999994L203.67196614583335,0L203.7201041666667,15.733333333333336L203.7682421875,15.733333333333336L204.0570703125,7.866666666666658L204.20148437499998,27.533333333333335L204.29776041666668,3.933333333333339L204.73100260416666,3.933333333333339L204.9235546875,35.39999999999999L205.06796874999998,19.666666666666675L205.30865885416665,27.533333333333335L205.69376302083333,7.866666666666658L205.88631510416667,15.733333333333336L205.9825911458333,15.733333333333336L206.0788671875,11.799999999999997L206.70466145833333,19.666666666666675L206.8009375,7.866666666666658L206.9453515625,3.933333333333339L207.5230078125,19.666666666666675L207.7155598958333,11.799999999999997L207.95624999999998,0L208.05252604166668,23.599999999999994L208.53390625,11.799999999999997L208.63018229166667,15.733333333333336L208.72645833333334,23.599999999999994L209.35225260416667,0L209.64108072916667,3.933333333333339L210.12246093750002,19.666666666666675L210.36315104166667,27.533333333333335L210.7001171875,11.799999999999997L210.84453125,15.733333333333336L210.94080729166666,23.599999999999994L211.90356770833333,15.733333333333336L211.95170572916666,11.799999999999997L211.99984375,15.733333333333336L212.24053385416667,11.799999999999997L212.3368098958333,39.33333333333333L212.62563802083332,15.733333333333336L212.81819010416666,7.866666666666658L213.2032942708333,31.466666666666672L213.25143229166665,31.466666666666672L213.49212239583332,15.733333333333336L213.54026041666665,19.666666666666675L213.7328125,15.733333333333336L214.26233072916668,35.39999999999999L214.55115885416666,15.733333333333336L214.83998697916667,15.733333333333336L214.98440104166664,19.666666666666675L215.51391927083333,11.799999999999997L215.70647135416667,7.866666666666658L215.8990234375,19.666666666666675L216.23598958333335,23.599999999999994L216.42854166666666,3.933333333333339L216.66923177083333,15.733333333333336L216.909921875,31.466666666666672L217.10247395833335,23.599999999999994L217.15061197916668,19.666666666666675L217.24688802083332,23.599999999999994L217.68013020833334,7.866666666666658L217.72826822916667,15.733333333333336L218.25778645833336,11.799999999999997L218.3540625,31.466666666666672L218.40220052083333,15.733333333333336L218.73916666666665,11.799999999999997L218.83544270833335,7.866666666666658L218.88358072916668,15.733333333333336L218.93171875000002,7.866666666666658L218.97985677083332,3.933333333333339L219.17240885416666,19.666666666666675L219.26868489583333,-3.9333333333333194L220.32772135416667,3.933333333333339L220.47213541666665,11.799999999999997L221.14606770833336,0L221.38675781249998,23.599999999999994L221.43489583333334,23.599999999999994L221.531171875,7.866666666666658L221.91627604166666,19.666666666666675L222.15696614583334,11.799999999999997L222.49393229166665,11.799999999999997L223.841796875,15.733333333333336L224.17876302083334,7.866666666666658L224.70828125,3.933333333333339L224.94897135416667,23.599999999999994L225.38221354166666,31.466666666666672L225.4303515625,43.26666666666667L225.91173177083334,27.533333333333335L225.95986979166668,15.733333333333336L226.00800781249998,31.466666666666672L226.10428385416668,3.933333333333339L226.20055989583332,31.466666666666672L226.2968359375,7.866666666666658L226.34497395833333,23.599999999999994L226.3931119791667,15.733333333333336L226.48938802083333,27.533333333333335L227.35587239583333,43.26666666666667L227.5965625,7.866666666666658L227.83725260416668,39.33333333333333L227.98166666666665,7.866666666666658L228.1260807291667,3.933333333333339L228.36677083333333,3.933333333333339L228.8962890625,19.666666666666675L229.32953125,19.666666666666675L229.4739453125,15.733333333333336L229.5220833333333,15.733333333333336L229.95532552083333,0L230.24415364583334,11.799999999999997L230.96622395833333,23.599999999999994L231.01436197916667,31.466666666666672L231.30319010416665,15.733333333333336L231.49574218749999,23.599999999999994L231.64015625000002,7.866666666666658L231.92898437500003,-3.9333333333333194L232.02526041666667,3.933333333333339L232.45850260416665,7.866666666666658L232.6510546875,11.799999999999997L232.9398828125,11.799999999999997L233.18057291666668,23.599999999999994L233.46940104166666,19.666666666666675L233.66195312500003,11.799999999999997L233.90264322916664,31.466666666666672L234.23960937500001,15.733333333333336L234.43216145833333,19.666666666666675L234.86540364583334,7.866666666666658L235.00981770833332,3.933333333333339L235.58747395833333,15.733333333333336L235.92444010416665,7.866666666666658L236.06885416666668,19.666666666666675L236.16513020833332,7.866666666666658L236.21326822916666,-3.9333333333333194L236.4058203125,11.799999999999997L236.45395833333333,11.799999999999997L236.50209635416667,23.599999999999994L237.07975260416666,7.866666666666658L237.36858072916667,19.666666666666675L237.41671874999997,15.733333333333336L237.51299479166667,39.33333333333333L237.75368489583335,0L237.80182291666668,7.866666666666658L237.94623697916666,51.133333333333326L238.23506510416667,23.599999999999994L238.4276171875,-3.9333333333333194L238.76458333333332,31.466666666666672L239.24596354166667,19.666666666666675L239.53479166666668,11.799999999999997L239.72734375,3.933333333333339L239.8717578125,15.733333333333336L240.25686197916667,0L240.35313802083334,3.933333333333339L240.97893229166667,3.933333333333339L241.17148437499998,7.866666666666658L241.2196223958333,7.866666666666658L242.13424479166667,27.533333333333335L242.1823828125,23.599999999999994L242.32679687499999,19.666666666666675L242.66376302083333,11.799999999999997L242.7600390625,11.799999999999997L243.14514322916668,0L243.24141927083332,15.733333333333336L243.28955729166668,7.866666666666658L243.9153515625,35.39999999999999L244.01162760416668,11.799999999999997L244.05976562499998,19.666666666666675L244.4930078125,15.733333333333336L244.637421875,0L244.73369791666667,15.733333333333336L245.16694010416666,27.533333333333335L245.3113541666667,15.733333333333336L245.40763020833333,19.666666666666675L245.50390625,3.933333333333339L246.0815625,0L246.89990885416665,19.666666666666675L247.14059895833333,27.533333333333335L247.62197916666665,15.733333333333336L247.91080729166666,15.733333333333336L248.2477734375,15.733333333333336L248.5366015625,-3.9333333333333194L248.63287760416668,15.733333333333336L248.82542968750002,23.599999999999994L249.16239583333333,0L249.21053385416667,15.733333333333336L249.258671875,39.33333333333333L249.74005208333335,7.866666666666658L250.51026041666665,11.799999999999997L250.75095052083333,11.799999999999997L250.991640625,3.933333333333339L251.23233072916668,0L251.28046875,11.799999999999997L251.37674479166665,19.666666666666675L251.52115885416666,15.733333333333336L252.0025390625,19.666666666666675L252.19509114583332,31.466666666666672L252.24322916666665,15.733333333333336L252.53205729166666,-3.9333333333333194L252.724609375,7.866666666666658L252.77274739583333,11.799999999999997L253.15785156249999,19.666666666666675L253.302265625,15.733333333333336L253.35040364583332,19.666666666666675L253.4466796875,0L253.59109375,7.866666666666658L253.63923177083333,15.733333333333336L253.68736979166667,27.533333333333335L253.73550781249997,7.866666666666658L253.92805989583334,7.866666666666658L254.02433593749998,3.933333333333339L254.16875,23.599999999999994L254.21688802083332,7.866666666666658L254.26502604166666,19.666666666666675L254.3131640625,0L254.40944010416666,27.533333333333335L254.55385416666667,3.933333333333339L254.60199218749997,3.933333333333339L254.89082031249998,11.799999999999997L255.1796484375,27.533333333333335L255.27592447916666,3.933333333333339L255.42033854166667,7.866666666666658L255.99799479166666,15.733333333333336L256.38309895833333,31.466666666666672L256.43123697916667,15.733333333333336L256.479375,7.866666666666658L256.768203125,11.799999999999997L257.10516927083336,11.799999999999997L257.34585937500003,23.599999999999994L257.6828255208333,11.799999999999997L257.87537760416666,11.799999999999997L258.3086197916667,11.799999999999997L258.5974479166667,0L258.69372395833335,3.933333333333339L258.83813802083336,3.933333333333339L259.17510416666664,-3.9333333333333194L259.46393229166665,43.26666666666667L259.60834635416666,7.866666666666658L259.7046223958333,15.733333333333336L259.75276041666666,39.33333333333333L260.1860026041667,7.866666666666658L260.66738281249997,23.599999999999994L260.7155208333333,0L261.100625,11.799999999999997L261.67828125,11.799999999999997L261.8226953125,15.733333333333336L261.967109375,11.799999999999997L262.59290364583336,0L262.9780078125,11.799999999999997L263.36311197916666,11.799999999999997L263.41125,3.933333333333339L263.5556640625,0L263.65194010416667,15.733333333333336L263.700078125,7.866666666666658L264.3740104166667,15.733333333333336L264.66283854166664,11.799999999999997L264.7591145833333,27.533333333333335" style="fill: none;" fill="none"></path></g></g></g></g></g></g><g transform="translate(41, 177)" clip-path="url(#clip_1)"><clipPath id="clip_1"><rect width="288" height="23"></rect></clipPath><g><g><line x1="0" y1="0" x2="0" y2="5" style="visibility: inherit;" fill="rgb(0, 0, 0)" stroke="rgb(204, 204, 204)" stroke-width="1px"></line><line x1="24.069010416666664" y1="0" x2="24.069010416666664" y2="5" style="visibility: inherit;" fill="rgb(0, 0, 0)" stroke="rgb(204, 204, 204)" stroke-width="1px"></line><line x1="48.13802083333333" y1="0" x2="48.13802083333333" y2="5" style="visibility: inherit;" fill="rgb(0, 0, 0)" stroke="rgb(204, 204, 204)" stroke-width="1px"></line><line x1="72.20703125" y1="0" x2="72.20703125" y2="5" style="visibility: inherit;" fill="rgb(0, 0, 0)" stroke="rgb(204, 204, 204)" stroke-width="1px"></line><line x1="96.27604166666666" y1="0" x2="96.27604166666666" y2="5" style="visibility: inherit;" fill="rgb(0, 0, 0)" stroke="rgb(204, 204, 204)" stroke-width="1px"></line><line x1="120.34505208333334" y1="0" x2="120.34505208333334" y2="5" style="visibility: inherit;" fill="rgb(0, 0, 0)" stroke="rgb(204, 204, 204)" stroke-width="1px"></line><line x1="144.4140625" y1="0" x2="144.4140625" y2="5" style="visibility: inherit;" fill="rgb(0, 0, 0)" stroke="rgb(204, 204, 204)" stroke-width="1px"></line><line x1="168.48307291666669" y1="0" x2="168.48307291666669" y2="5" style="visibility: inherit;" fill="rgb(0, 0, 0)" stroke="rgb(204, 204, 204)" stroke-width="1px"></line><line x1="192.55208333333331" y1="0" x2="192.55208333333331" y2="5" style="visibility: inherit;" fill="rgb(0, 0, 0)" stroke="rgb(204, 204, 204)" stroke-width="1px"></line><line x1="216.62109375" y1="0" x2="216.62109375" y2="5" style="visibility: inherit;" fill="rgb(0, 0, 0)" stroke="rgb(204, 204, 204)" stroke-width="1px"></line><line x1="240.69010416666669" y1="0" x2="240.69010416666669" y2="5" style="visibility: inherit;" fill="rgb(0, 0, 0)" stroke="rgb(204, 204, 204)" stroke-width="1px"></line><line x1="264.7591145833333" y1="0" x2="264.7591145833333" y2="5" style="visibility: inherit;" fill="rgb(0, 0, 0)" stroke="rgb(204, 204, 204)" stroke-width="1px"></line><line x1="288.828125" y1="0" x2="288.828125" y2="5" style="visibility: inherit;" fill="rgb(0, 0, 0)" stroke="rgb(204, 204, 204)" stroke-width="1px"></line></g><g transform="translate(0, 8)"><text x="0" y="0" dx="0em" dy="0.95em" style="text-anchor: middle; visibility: hidden; font-family: Roboto, sans-serif; font-size: 12px; font-weight: 200;" fill="rgb(255, 255, 255)" stroke="none" stroke-width="1px">-500</text><text x="24.069010416666664" y="0" dx="0em" dy="0.95em" style="text-anchor: middle; visibility: inherit; font-family: Roboto, sans-serif; font-size: 12px; font-weight: 200;" fill="rgb(255, 255, 255)" stroke="none" stroke-width="1px">0</text><text x="48.13802083333333" y="0" dx="0em" dy="0.95em" style="text-anchor: middle; visibility: inherit; font-family: Roboto, sans-serif; font-size: 12px; font-weight: 200;" fill="rgb(255, 255, 255)" stroke="none" stroke-width="1px">500</text><text x="72.20703125" y="0" dx="0em" dy="0.95em" style="text-anchor: middle; visibility: inherit; font-family: Roboto, sans-serif; font-size: 12px; font-weight: 200;" fill="rgb(255, 255, 255)" stroke="none" stroke-width="1px">1k</text><text x="96.27604166666666" y="0" dx="0em" dy="0.95em" style="text-anchor: middle; visibility: inherit; font-family: Roboto, sans-serif; font-size: 12px; font-weight: 200;" fill="rgb(255, 255, 255)" stroke="none" stroke-width="1px">1.5k</text><text x="120.34505208333334" y="0" dx="0em" dy="0.95em" style="text-anchor: middle; visibility: inherit; font-family: Roboto, sans-serif; font-size: 12px; font-weight: 200;" fill="rgb(255, 255, 255)" stroke="none" stroke-width="1px">2k</text><text x="144.4140625" y="0" dx="0em" dy="0.95em" style="text-anchor: middle; visibility: inherit; font-family: Roboto, sans-serif; font-size: 12px; font-weight: 200;" fill="rgb(255, 255, 255)" stroke="none" stroke-width="1px">2.5k</text><text x="168.48307291666669" y="0" dx="0em" dy="0.95em" style="text-anchor: middle; visibility: inherit; font-family: Roboto, sans-serif; font-size: 12px; font-weight: 200;" fill="rgb(255, 255, 255)" stroke="none" stroke-width="1px">3k</text><text x="192.55208333333331" y="0" dx="0em" dy="0.95em" style="text-anchor: middle; visibility: inherit; font-family: Roboto, sans-serif; font-size: 12px; font-weight: 200;" fill="rgb(255, 255, 255)" stroke="none" stroke-width="1px">3.5k</text><text x="216.62109375" y="0" dx="0em" dy="0.95em" style="text-anchor: middle; visibility: inherit; font-family: Roboto, sans-serif; font-size: 12px; font-weight: 200;" fill="rgb(255, 255, 255)" stroke="none" stroke-width="1px">4k</text><text x="240.69010416666669" y="0" dx="0em" dy="0.95em" style="text-anchor: middle; visibility: inherit; font-family: Roboto, sans-serif; font-size: 12px; font-weight: 200;" fill="rgb(255, 255, 255)" stroke="none" stroke-width="1px">4.5k</text><text x="264.7591145833333" y="0" dx="0em" dy="0.95em" style="text-anchor: middle; visibility: inherit; font-family: Roboto, sans-serif; font-size: 12px; font-weight: 200;" fill="rgb(255, 255, 255)" stroke="none" stroke-width="1px">5k</text><text x="288.828125" y="0" dx="0em" dy="0.95em" style="text-anchor: middle; visibility: hidden; font-family: Roboto, sans-serif; font-size: 12px; font-weight: 200;" fill="rgb(255, 255, 255)" stroke="none" stroke-width="1px">5.5k</text></g><line x1="0" y1="0" x2="288.828125" y2="0" fill="rgb(0, 0, 0)" stroke="rgb(204, 204, 204)" stroke-width="1px"></line></g></g></g></g></svg>